<svg xmlns="http://www.w3.org/2000/svg" xmlns:xlink="http://www.w3.org/1999/xlink" width="739" height="657" viewBox="0 0 739 657">
    <defs>
        <path id="a" d="M0 .684h204v592H0z"/>
    </defs>
    <g fill="none" fill-rule="evenodd">
        <g>
            <path fill="#DDE1E5" d="M0 0h739v64H0z"/>
            <circle cx="15" cy="18" r="4.75" fill="#FF6058" stroke="#E14942" stroke-width=".5"/>
            <circle cx="31" cy="18" r="4.75" fill="#FFC130" stroke="#E1A325" stroke-width=".5"/>
            <circle cx="47" cy="18" r="4.75" fill="#27CA40" stroke="#3EAF3F" stroke-width=".5"/>
            <path fill="#FFF" d="M72.256 7h361.607c3.566 0 4.86.371 6.163 1.069a7.27 7.27 0 0 1 3.024 3.024c.697 1.303 1.069 2.596 1.069 6.163V34.5H62V17.256c0-3.567.371-4.86 1.069-6.163a7.27 7.27 0 0 1 3.024-3.024C67.396 7.37 68.689 7 72.256 7z"/>
            <path fill="#FFF" d="M0 34h739v30H0z"/>
            <rect width="670" height="22" x="64" y="38" fill="#F1F3F4" rx="9.5"/>
        </g>
        <g transform="translate(0 64)">
            <path fill="#003643" d="M0 0h739v593H0z"/>
            <use fill="#002C38" xlink:href="#a"/>
        </g>
        <path fill="#003643" d="M22 244.458h182v40H22a6 6 0 0 1-6-6v-28a6 6 0 0 1 6-6z"/>
        <path fill="#90A2A2" fill-rule="nonzero" d="M43.849 381.647l-1.748 1.748-3.588-3.588 1.748-1.748a.922.922 0 0 1 .678-.276c.269 0 .495.092.679.276l2.231 2.23c.184.185.276.411.276.68a.922.922 0 0 1-.276.678zm-16.974 9.798l10.603-10.603 3.588 3.588-10.603 10.603h-3.588v-3.588zM30.693 320.6h13.432v1.933H30.693V320.6zm0 9.615v-1.932h13.432v1.932H30.693zm0-3.864v-1.886h13.432v1.886H30.693zm-3.818-3.818V320.6h1.932v1.932h-1.932zm0 7.682v-1.932h1.932v1.932h-1.932zm0-3.864v-1.886h1.932v1.886h-1.932zM41.25 503.59v-1.932h-11.5v1.932h11.5zm-3.818 5.75v-1.932H29.75v1.932h7.682zm-7.682-4.807v1.932h11.5v-1.932h-11.5zm13.432-6.693c.521 0 .966.184 1.334.552.368.368.552.812.552 1.334v11.5c0 .521-.184.973-.552 1.357a1.782 1.782 0 0 1-1.334.575H29.75l-3.818 3.818v-17.25c0-.522.184-.966.552-1.334a1.817 1.817 0 0 1 1.334-.552h15.364zM35.5 267.766c.598 0 1.158-.154 1.679-.46a3.473 3.473 0 0 0 1.242-1.23c.307-.514.46-1.07.46-1.668 0-.598-.153-1.158-.46-1.68a3.444 3.444 0 0 0-1.242-1.241 3.256 3.256 0 0 0-1.679-.46c-.598 0-1.154.153-1.668.46-.513.306-.923.72-1.23 1.242a3.256 3.256 0 0 0-.46 1.679c0 .598.153 1.154.46 1.667.307.514.717.924 1.23 1.23.514.307 1.07.46 1.668.46zm7.153-2.415l2.001 1.564a.447.447 0 0 1 .161.299.542.542 0 0 1-.069.345l-1.932 3.312a.42.42 0 0 1-.242.207.51.51 0 0 1-.333-.023l-2.369-.943c-.613.444-1.158.759-1.633.943l-.345 2.507a.584.584 0 0 1-.173.299.416.416 0 0 1-.287.115h-3.864a.416.416 0 0 1-.288-.115.468.468 0 0 1-.149-.3l-.368-2.506c-.644-.26-1.18-.575-1.61-.943l-2.392.943c-.245.107-.437.046-.575-.184l-1.932-3.312a.542.542 0 0 1-.069-.345.447.447 0 0 1 .161-.3l2.024-1.563a7.191 7.191 0 0 1-.046-.943c0-.414.015-.729.046-.943l-2.024-1.564a.447.447 0 0 1-.161-.3.542.542 0 0 1 .069-.344l1.932-3.312c.138-.23.33-.292.575-.184l2.392.943a7.425 7.425 0 0 1 1.61-.943l.368-2.507a.468.468 0 0 1 .15-.3.416.416 0 0 1 .287-.114h3.864c.107 0 .203.038.287.115a.584.584 0 0 1 .173.299l.345 2.507c.598.23 1.142.544 1.633.943l2.369-.943a.51.51 0 0 1 .333-.023c.1.03.18.1.242.207l1.932 3.312a.542.542 0 0 1 .069.345.447.447 0 0 1-.161.299l-2.001 1.564c.03.214.046.529.046.943 0 .414-.015.728-.046.943zM35.5 212.33a6.562 6.562 0 0 0 3.289-.873 6.868 6.868 0 0 0 2.461-2.231c-.015-.583-.376-1.12-1.081-1.61-.613-.414-1.395-.752-2.346-1.012-.859-.23-1.637-.345-2.335-.345-.697 0-1.475.115-2.334.345-.95.26-1.725.598-2.323 1.012-.705.49-1.066 1.027-1.081 1.61a6.868 6.868 0 0 0 2.461 2.23 6.646 6.646 0 0 0 3.289.875zm0-13.615c-.506 0-.981.13-1.426.39-.445.261-.797.614-1.058 1.059-.26.444-.391.92-.391 1.426 0 .506.13.981.391 1.426.26.444.613.797 1.058 1.058.445.26.92.39 1.426.39.506 0 .981-.13 1.426-.39.445-.26.797-.614 1.058-1.058.26-.445.391-.92.391-1.426 0-.506-.13-.982-.391-1.426a2.917 2.917 0 0 0-1.058-1.058 2.773 2.773 0 0 0-1.426-.391zm0-2.875a9.41 9.41 0 0 1 4.853 1.31 9.068 9.068 0 0 1 3.404 3.405 9.41 9.41 0 0 1 1.311 4.853 9.41 9.41 0 0 1-1.311 4.853 9.068 9.068 0 0 1-3.404 3.404 9.41 9.41 0 0 1-4.853 1.31 9.41 9.41 0 0 1-4.853-1.31 9.24 9.24 0 0 1-3.404-3.427 9.368 9.368 0 0 1-1.311-4.83c0-1.733.437-3.343 1.311-4.83a9.417 9.417 0 0 1 3.427-3.427 9.368 9.368 0 0 1 4.83-1.311zM35.5 446.408v-6.693h-8.625v6.693H35.5zm8.625-8.625c.521 0 .974.191 1.357.575.383.383.575.835.575 1.357V453.1c0 .521-.192.973-.575 1.357a1.856 1.856 0 0 1-1.357.575h-17.25c-.521 0-.974-.192-1.357-.575a1.856 1.856 0 0 1-.575-1.357v-13.386c0-.522.192-.974.575-1.357a1.856 1.856 0 0 1 1.357-.575h17.25z"/>
        <g>
            <path fill="#90A2A2" fill-rule="nonzero" d="M82.533 117.374h2.725l7.625 17.7h-3.6l-1.65-4.05h-7.675l-1.6 4.05h-3.525l7.7-17.7zm4 10.95l-2.725-7.2-2.775 7.2h5.5zm17.334 4.95h-.05c-.433.733-1.017 1.267-1.75 1.6-.733.333-1.525.5-2.375.5-.933 0-1.763-.162-2.488-.487a5.574 5.574 0 0 1-1.862-1.338 5.718 5.718 0 0 1-1.175-2 7.483 7.483 0 0 1-.4-2.475c0-.883.142-1.708.425-2.475a6.155 6.155 0 0 1 1.187-2 5.474 5.474 0 0 1 1.838-1.337 5.623 5.623 0 0 1 2.35-.488c.567 0 1.067.058 1.5.175.433.117.817.267 1.15.45a4.6 4.6 0 0 1 .85.588c.233.208.425.412.575.612h.075v-8.425h3v18.9h-2.85v-1.8zm-7.1-4.2c0 .467.08.917.237 1.35.159.433.392.817.7 1.15.309.333.68.6 1.113.8.433.2.925.3 1.475.3s1.042-.1 1.475-.3c.433-.2.804-.467 1.112-.8.309-.333.542-.717.7-1.15.159-.433.238-.883.238-1.35 0-.467-.08-.917-.238-1.35a3.388 3.388 0 0 0-.7-1.15c-.308-.333-.679-.6-1.112-.8-.433-.2-.925-.3-1.475-.3s-1.042.1-1.475.3c-.433.2-.804.467-1.113.8a3.388 3.388 0 0 0-.7 1.15 3.903 3.903 0 0 0-.237 1.35zm13.633-11.7h5.4c.734 0 1.45.075 2.15.225.7.15 1.325.396 1.875.738.55.341.996.787 1.338 1.337.342.55.512 1.233.512 2.05 0 1.033-.279 1.888-.837 2.563-.558.675-1.313 1.154-2.263 1.437v.05a4.453 4.453 0 0 1 2.863 1.375c.358.383.637.83.837 1.338.2.508.3 1.054.3 1.637 0 .983-.204 1.792-.612 2.425a4.563 4.563 0 0 1-1.6 1.513c-.658.375-1.4.637-2.225.787-.825.15-1.646.225-2.463.225H110.4v-17.7zm2.1 7.5h2.9c.5 0 .988-.033 1.463-.1a3.769 3.769 0 0 0 1.287-.412c.384-.209.692-.5.925-.875.234-.375.35-.871.35-1.488 0-.55-.108-.996-.325-1.337a2.375 2.375 0 0 0-.862-.813 3.728 3.728 0 0 0-1.225-.412 8.578 8.578 0 0 0-1.388-.113H112.5v5.55zm0 8.25h3.55c.517 0 1.03-.054 1.538-.162a4.534 4.534 0 0 0 1.375-.525c.408-.242.737-.559.987-.95.25-.392.375-.871.375-1.438 0-.617-.12-1.133-.362-1.55a2.879 2.879 0 0 0-.95-1 3.872 3.872 0 0 0-1.35-.525c-.508-.1-1.03-.15-1.563-.15h-3.6v6.3zm13.26-16.95h1.95v18.9h-1.95v-18.9zm4.933 13.05c0-.917.158-1.75.475-2.5.316-.75.75-1.396 1.3-1.937a5.776 5.776 0 0 1 1.975-1.263c.766-.3 1.6-.45 2.5-.45.9 0 1.733.15 2.5.45.766.3 1.425.72 1.975 1.263.55.541.983 1.187 1.3 1.937.316.75.475 1.583.475 2.5s-.159 1.75-.475 2.5a5.914 5.914 0 0 1-1.3 1.938 5.776 5.776 0 0 1-1.975 1.262c-.767.3-1.6.45-2.5.45-.9 0-1.734-.15-2.5-.45a5.776 5.776 0 0 1-1.975-1.262 5.914 5.914 0 0 1-1.3-1.938c-.317-.75-.475-1.583-.475-2.5zm2.1 0c0 .617.095 1.188.287 1.713.192.525.471.983.838 1.375.366.391.804.7 1.312.925.508.225 1.08.337 1.713.337s1.204-.112 1.712-.337a3.986 3.986 0 0 0 1.313-.925 3.99 3.99 0 0 0 .837-1.375 4.957 4.957 0 0 0 .288-1.713c0-.617-.096-1.187-.288-1.712a3.99 3.99 0 0 0-.837-1.375 3.986 3.986 0 0 0-1.313-.925c-.508-.225-1.079-.338-1.712-.338-.634 0-1.205.113-1.713.338a3.986 3.986 0 0 0-1.312.925 3.99 3.99 0 0 0-.838 1.375 4.957 4.957 0 0 0-.287 1.712zm21.533-2.925c-.416-.5-.866-.862-1.35-1.087a3.745 3.745 0 0 0-1.6-.338c-.65 0-1.225.113-1.725.338-.5.225-.912.537-1.237.937-.325.4-.571.863-.738 1.388a5.546 5.546 0 0 0-.25 1.687c0 .6.096 1.163.288 1.688.191.525.458.987.8 1.387.341.4.754.713 1.237.938a3.805 3.805 0 0 0 1.625.337c1.284 0 2.275-.483 2.975-1.45l1.45 1.375a5.086 5.086 0 0 1-2 1.425c-.766.3-1.575.45-2.425.45-.9 0-1.725-.15-2.475-.45a5.353 5.353 0 0 1-1.912-1.275 5.871 5.871 0 0 1-1.225-1.95c-.292-.75-.438-1.575-.438-2.475 0-.883.146-1.7.438-2.45a5.77 5.77 0 0 1 1.237-1.95c.534-.55 1.171-.98 1.913-1.287.741-.309 1.562-.463 2.462-.463.867 0 1.688.15 2.463.45.775.3 1.454.767 2.037 1.4l-1.55 1.375zm3.509-10.125h1.95v12.35l5.325-5.15h2.775l-5.65 5.325 6.225 6.375h-2.875l-5.8-6.15v6.15h-1.95v-18.9z"/>
            <path fill="#F40D12" d="M34.675 106.895l-9.78 9.782a3.056 3.056 0 0 0-.895 2.16v13.834c0 .81.322 1.588.895 2.16l9.78 9.781c.574.573 1.35.895 2.161.895H50.67c.81 0 1.588-.322 2.16-.895l9.781-9.78c.573-.573.895-1.35.895-2.16v-13.835c0-.81-.322-1.587-.895-2.16l-9.78-9.782A3.056 3.056 0 0 0 50.67 106H36.836c-.81 0-1.588.322-2.16.895z"/>
            <path fill="#FFF" d="M43.282 140.074c6.545 0 8.098-6.003 8.098-6.003l3.756-10.793s.34-1.12.277-1.133c-3.498-.653-4.241 1.811-4.241 1.811s-1.345 3.492-1.553 3.492c-.209 0-.234-.258-.234-.258v-12.545s.066-1.618-1.596-1.618c-1.662 0-1.578 1.62-1.578 1.62l.003 9.269s.022.373-.29.373c-.276 0-.26-.36-.26-.36v-11.167s.102-1.824-1.579-1.824c-1.68 0-1.59 1.836-1.59 1.836l-.016 11.017s.022.34-.255.34c-.258 0-.249-.337-.249-.337v-9.236s.094-1.88-1.618-1.88c-1.68 0-1.59 1.914-1.59 1.914l-.016 9.753s.031.284-.233.284c-.28 0-.274-.284-.274-.284l-.013-5.897s.016-1.63-1.397-1.63c-1.503 0-1.475 1.63-1.475 1.63v12.728c.01-.003-.38 8.898 7.923 8.898z"/>
        </g>
        <g fill="#90A2A2" transform="translate(61 202)">
            <rect width="83" height="8" x="1" rx="4"/>
            <rect width="83" height="16" y="53" rx="4"/>
            <rect width="83" height="8" y="120" rx="4"/>
            <rect width="83" height="8" y="182" rx="4"/>
            <rect width="83" height="8" x="1" y="240" rx="4"/>
            <rect width="83" height="8" y="302" rx="4"/>
        </g>
        <g>
            <g transform="translate(308 169)">
                <circle cx="12.75" cy="12.75" r="12.75" fill="#00A498"/>
                <path fill="#FFF" fill-rule="nonzero" d="M11.25 16.332l7.938-7.956 1.062 1.062-9 9-4.176-4.176L8.118 13.2z"/>
                <path stroke="#7C9694" stroke-linecap="square" stroke-opacity=".5" d="M0 34.5h327"/>
            </g>
            <g transform="translate(307.5 275)">
                <circle cx="13.75" cy="12.75" r="12.75" fill="#00A498"/>
                <path fill="#FFF" fill-rule="nonzero" d="M12.25 16.332l7.938-7.956 1.062 1.062-9 9-4.176-4.176L9.118 13.2z"/>
                <path stroke="#7C9694" stroke-linecap="square" stroke-opacity=".5" d="M.5 33.5h327"/>
            </g>
            <g transform="translate(307.5 318)">
                <circle cx="13.75" cy="12.75" r="12.75" fill="#002C38"/>
                <path stroke="#7C9694" stroke-linecap="square" stroke-opacity=".5" d="M.5 33.5h327"/>
            </g>
            <g transform="translate(307.5 361)">
                <circle cx="13.75" cy="12.75" r="12.75" fill="#00A498"/>
                <path fill="#FFF" fill-rule="nonzero" d="M12.25 16.332l7.938-7.956 1.062 1.062-9 9-4.176-4.176L9.118 13.2z"/>
                <path stroke="#7C9694" stroke-linecap="square" stroke-opacity=".5" d="M.5 33.5h327"/>
            </g>
            <g transform="translate(307.5 404)">
                <circle cx="13.75" cy="12.75" r="12.75" fill="#00A498"/>
                <path fill="#FFF" fill-rule="nonzero" d="M12.25 16.332l7.938-7.956 1.062 1.062-9 9-4.176-4.176L9.118 13.2z"/>
                <path stroke="#7C9694" stroke-linecap="square" stroke-opacity=".5" d="M.5 33.5h327"/>
            </g>
            <g transform="translate(308 447)">
                <circle cx="12.75" cy="12.75" r="12.75" fill="#00A498"/>
                <path fill="#FFF" fill-rule="nonzero" d="M11.25 16.332l7.938-7.956 1.062 1.062-9 9-4.176-4.176L8.118 13.2z"/>
                <path stroke="#7C9694" stroke-linecap="square" stroke-opacity=".5" d="M0 58.5h327"/>
            </g>
            <g transform="translate(308 519)">
                <circle cx="12.75" cy="13.25" r="12.75" fill="#002C38"/>
                <path stroke="#7C9694" stroke-linecap="square" stroke-opacity=".5" d="M0 37h327"/>
            </g>
            <circle cx="12.75" cy="12.75" r="12.75" fill="#002C38" transform="translate(308 565)"/>
            <g transform="translate(307.5 213)">
                <circle cx="13.75" cy="12.75" r="12.75" fill="#002C38"/>
                <path stroke="#7C9694" stroke-linecap="square" stroke-opacity=".5" d="M.5 52.5h327"/>
            </g>
            <g fill="#90A2A2" transform="translate(307 120)">
                <rect width="188" height="16" rx="4"/>
                <rect width="292" height="8" x="36" y="56" rx="4"/>
                <rect width="292" height="8" x="36" y="104" rx="4"/>
                <rect width="292" height="8" x="36" y="163" rx="4"/>
                <rect width="292" height="8" x="36" y="205" rx="4"/>
                <rect width="292" height="8" x="36" y="247" rx="4"/>
                <rect width="292" height="8" x="36" y="289" rx="4"/>
                <rect width="292" height="8" x="36" y="337" rx="4"/>
                <rect width="292" height="8" x="36" y="408" rx="4"/>
                <rect width="292" height="8" x="36" y="452" rx="4"/>
            </g>
        </g>
    </g>
</svg>
