<svg width="303" height="319" viewBox="0 0 303 319" fill="none" xmlns="http://www.w3.org/2000/svg">
<path d="M297 0H6C2.68629 0 0 2.68629 0 6V313C0 316.314 2.68629 319 6 319H297C300.314 319 303 316.314 303 313V6C303 2.68629 300.314 0 297 0Z" fill="#002C38"/>
<path fill-rule="evenodd" clip-rule="evenodd" d="M16 53H288V296H16V53Z" fill="#003643"/>
<path d="M33.0659 96H273.066" stroke="#174852" stroke-linecap="square"/>
<path d="M33.0659 239H273.066" stroke="#174852" stroke-linecap="square"/>
<path d="M61.327 19.6001H63.507L69.607 33.7601H66.727L65.407 30.5201H59.267L57.987 33.7601H55.167L61.327 19.6001V19.6001ZM64.527 28.3601L62.347 22.6001L60.127 28.3601H64.527ZM78.394 32.3201H78.354C78.0332 32.8832 77.5434 33.331 76.954 33.6001C76.367 33.8661 75.734 34.0001 75.054 34.0001C74.307 34.0001 73.644 33.8701 73.064 33.6101C72.4985 33.3606 71.9911 32.9962 71.574 32.5401C71.1546 32.0766 70.8347 31.5321 70.634 30.9401C70.4167 30.3028 70.3085 29.6334 70.314 28.9601C70.314 28.2531 70.427 27.5931 70.654 26.9801C70.8661 26.3913 71.1885 25.8482 71.604 25.3801C72.01 24.9261 72.5 24.5701 73.074 24.3101C73.647 24.0501 74.274 23.9201 74.954 23.9201C75.407 23.9201 75.807 23.9661 76.154 24.0601C76.5 24.1531 76.807 24.2731 77.074 24.4201C77.34 24.5661 77.567 24.7231 77.754 24.8901C77.94 25.0561 78.094 25.2201 78.214 25.3801H78.274V18.6401H80.674V33.7601H78.394V32.3201V32.3201ZM72.714 28.9601C72.714 29.3331 72.777 29.6931 72.904 30.0401C73.03 30.3861 73.217 30.6931 73.464 30.9601C73.71 31.2261 74.007 31.4401 74.354 31.6001C74.7 31.7601 75.094 31.8401 75.534 31.8401C75.974 31.8401 76.367 31.7601 76.714 31.6001C77.0501 31.4478 77.3526 31.2302 77.604 30.9601C77.8503 30.694 78.0408 30.3812 78.164 30.0401C78.29 29.6931 78.354 29.3331 78.354 28.9601C78.354 28.5861 78.29 28.2261 78.164 27.8801C78.0408 27.5391 77.8503 27.2262 77.604 26.9601C77.3526 26.69 77.0501 26.4725 76.714 26.3201C76.367 26.1601 75.974 26.0801 75.534 26.0801C75.094 26.0801 74.7 26.1601 74.354 26.3201C74.0179 26.4725 73.7154 26.69 73.464 26.9601C73.2176 27.2262 73.0272 27.5391 72.904 27.8801C72.777 28.2261 72.714 28.5861 72.714 28.9601ZM83.62 19.6001H87.94C88.527 19.6001 89.1 19.6601 89.66 19.7801C90.22 19.9001 90.72 20.0961 91.16 20.3701C91.6 20.6431 91.957 21.0001 92.23 21.4401C92.504 21.8801 92.64 22.4261 92.64 23.0801C92.64 23.9061 92.417 24.5901 91.97 25.1301C91.524 25.6701 90.92 26.0531 90.16 26.2801V26.3201C91.0326 26.393 91.8477 26.7845 92.45 27.4201C92.737 27.7261 92.96 28.0831 93.12 28.4901C93.28 28.8961 93.36 29.3331 93.36 29.8001C93.36 30.5861 93.197 31.2331 92.87 31.7401C92.5485 32.2419 92.109 32.6573 91.59 32.9501C91.064 33.2501 90.47 33.4601 89.81 33.5801C89.15 33.7001 88.494 33.7601 87.84 33.7601H83.62V19.6001V19.6001ZM85.3 25.6001H87.62C88.02 25.6001 88.41 25.5731 88.79 25.5201C89.17 25.4661 89.514 25.3561 89.82 25.1901C90.127 25.0231 90.374 24.7901 90.56 24.4901C90.747 24.1901 90.84 23.7931 90.84 23.3001C90.84 22.8601 90.754 22.5031 90.58 22.2301C90.4086 21.9587 90.1712 21.735 89.89 21.5801C89.585 21.4139 89.2534 21.3022 88.91 21.2501C88.543 21.1901 88.1718 21.16 87.8 21.1601H85.3V25.6001V25.6001ZM85.3 32.2001H88.14C88.554 32.2001 88.964 32.1561 89.37 32.0701C89.7571 31.991 90.1287 31.8491 90.47 31.6501C90.79 31.4632 91.0609 31.2027 91.26 30.8901C91.46 30.5761 91.56 30.1931 91.56 29.7401C91.56 29.2461 91.464 28.8331 91.27 28.5001C91.0852 28.1758 90.8244 27.9013 90.51 27.7001C90.197 27.5001 89.837 27.3601 89.43 27.2801C89.0182 27.1996 88.5996 27.1594 88.18 27.1601H85.3V32.2001V32.2001ZM95.907 18.6401H97.467V33.7601H95.907V18.6401ZM99.854 29.0801C99.854 28.3461 99.981 27.6801 100.234 27.0801C100.487 26.4801 100.834 25.9631 101.274 25.5301C101.714 25.0961 102.241 24.7601 102.854 24.5201C103.467 24.2801 104.134 24.1601 104.854 24.1601C105.574 24.1601 106.241 24.2801 106.854 24.5201C107.467 24.7601 107.994 25.0961 108.434 25.5301C108.874 25.9631 109.221 26.4801 109.474 27.0801C109.727 27.6801 109.854 28.3461 109.854 29.0801C109.854 29.8131 109.727 30.4801 109.474 31.0801C109.221 31.6801 108.874 32.1961 108.434 32.6301C107.994 33.0631 107.467 33.4001 106.854 33.6401C106.241 33.8801 105.574 34.0001 104.854 34.0001C104.134 34.0001 103.467 33.8801 102.854 33.6401C102.264 33.415 101.726 33.0713 101.274 32.6301C100.828 32.1877 100.474 31.6607 100.234 31.0801C99.981 30.4801 99.854 29.8131 99.854 29.0801V29.0801ZM101.534 29.0801C101.534 29.5731 101.611 30.0301 101.764 30.4501C101.917 30.8701 102.141 31.2361 102.434 31.5501C102.727 31.8631 103.077 32.1101 103.484 32.2901C103.891 32.4701 104.347 32.5601 104.854 32.5601C105.361 32.5601 105.817 32.4701 106.224 32.2901C106.631 32.1101 106.981 31.8631 107.274 31.5501C107.567 31.2361 107.791 30.8701 107.944 30.4501C108.097 30.0301 108.174 29.5731 108.174 29.0801C108.174 28.5861 108.097 28.1301 107.944 27.7101C107.798 27.3017 107.57 26.9275 107.274 26.6101C106.978 26.2948 106.621 26.043 106.224 25.8701C105.791 25.6849 105.325 25.5929 104.854 25.6001C104.347 25.6001 103.891 25.6901 103.484 25.8701C103.077 26.0501 102.727 26.2961 102.434 26.6101C102.141 26.9231 101.917 27.2901 101.764 27.7101C101.611 28.1301 101.534 28.5861 101.534 29.0801V29.0801ZM118.761 26.7401C118.428 26.3401 118.068 26.0501 117.681 25.8701C117.279 25.687 116.842 25.5948 116.401 25.6001C115.881 25.6001 115.421 25.6901 115.021 25.8701C114.621 26.0501 114.291 26.3001 114.031 26.6201C113.771 26.9401 113.574 27.3101 113.441 27.7301C113.308 28.1501 113.241 28.6001 113.241 29.0801C113.241 29.5601 113.318 30.0101 113.471 30.4301C113.624 30.8501 113.838 31.2201 114.111 31.5401C114.384 31.8601 114.714 32.1101 115.101 32.2901C115.488 32.4701 115.921 32.5601 116.401 32.5601C117.428 32.5601 118.221 32.1731 118.781 31.4001L119.941 32.5001C119.488 33.0201 118.954 33.4001 118.341 33.6401C117.728 33.8801 117.081 34.0001 116.401 34.0001C115.681 34.0001 115.021 33.8801 114.421 33.6401C113.821 33.4001 113.311 33.0601 112.891 32.6201C112.471 32.1801 112.144 31.6601 111.911 31.0601C111.678 30.4601 111.561 29.8001 111.561 29.0801C111.561 28.3731 111.678 27.7201 111.911 27.1201C112.144 26.5201 112.474 26.0001 112.901 25.5601C113.335 25.1153 113.856 24.7647 114.431 24.5301C115.057 24.2773 115.726 24.1515 116.401 24.1601C117.094 24.1601 117.751 24.2801 118.371 24.5201C118.994 24.7621 119.552 25.1455 120.001 25.6401L118.761 26.7401V26.7401ZM121.568 18.6401H123.128V28.5201L127.388 24.4001H129.608L125.088 28.6601L130.068 33.7601H127.768L123.128 28.8401V33.7601H121.568V18.6401Z" fill="white"/>
<path fill-rule="evenodd" clip-rule="evenodd" d="M24.2305 13.1481L17.1481 20.2314C16.9426 20.4369 16.7795 20.6809 16.6683 20.9494C16.5571 21.218 16.4999 21.5058 16.5 21.7965V31.8144C16.5 32.401 16.7335 32.964 17.1481 33.3786L24.2305 40.4619C24.646 40.8765 25.2081 41.11 25.7956 41.11H35.8135C36.4001 41.11 36.9631 40.8765 37.3786 40.4619L44.461 33.3786C44.8755 32.964 45.1091 32.401 45.1091 31.8144V21.7965C45.1091 21.209 44.8755 20.6469 44.461 20.2314L37.3786 13.1481C37.1731 12.9426 36.9291 12.7795 36.6606 12.6683C36.392 12.5571 36.1042 12.4999 35.8135 12.5H25.7956C25.209 12.5 24.646 12.7335 24.2305 13.1481Z" fill="#E40D0D"/>
<path fill-rule="evenodd" clip-rule="evenodd" d="M30.4638 37.1761C35.2035 37.1761 36.3278 32.8284 36.3278 32.8284L39.0479 25.0119C39.0479 25.0119 39.2941 24.2008 39.2489 24.1918C36.7152 23.7184 36.1766 25.5043 36.1766 25.5043C36.1766 25.5043 35.2035 28.0326 35.0523 28.0326C34.9011 28.0326 34.883 27.8452 34.883 27.8452V18.7605C34.883 18.7605 34.9301 17.5883 33.7271 17.5883C32.5232 17.5883 32.5847 18.7623 32.5847 18.7623L32.5865 25.4745C32.5865 25.4745 32.6028 25.7442 32.3774 25.7442C32.1765 25.7442 32.1873 25.4835 32.1873 25.4835V17.3973C32.1873 17.3973 32.2625 16.0757 31.045 16.0757C29.8284 16.0757 29.8935 17.4063 29.8935 17.4063L29.8827 25.3839C29.8827 25.3839 29.8981 25.6292 29.6971 25.6292C29.5106 25.6292 29.517 25.3867 29.517 25.3867V18.6972C29.517 18.6972 29.5849 17.3357 28.3456 17.3357C27.1281 17.3357 27.1933 18.7225 27.1933 18.7225L27.1824 25.7849C27.1824 25.7849 27.2051 25.9904 27.0132 25.9904C26.8104 25.9904 26.8149 25.7849 26.8149 25.7849L26.8059 21.5142C26.8059 21.5142 26.8167 20.3338 25.7938 20.3338C24.7058 20.3338 24.7257 21.5142 24.7257 21.5142V30.7319C24.7329 30.7301 24.4505 37.1752 30.4638 37.1752V37.1761Z" fill="white"/>
<path d="M205.579 67H96.4211C92.8748 67 90 68.7909 90 71V79C90 81.2091 92.8748 83 96.4211 83H205.579C209.125 83 212 81.2091 212 79V71C212 68.7909 209.125 67 205.579 67Z" fill="#90A2A2"/>
<path d="M131.5 161.5H36.5C34.2909 161.5 32.5 163.739 32.5 166.5C32.5 169.261 34.2909 171.5 36.5 171.5H131.5C133.709 171.5 135.5 169.261 135.5 166.5C135.5 163.739 133.709 161.5 131.5 161.5Z" fill="#90A2A2"/>
<path d="M188.238 256.5H35.7615C33.9602 256.5 32.5 258.291 32.5 260.5C32.5 262.709 33.9602 264.5 35.7615 264.5H188.238C190.04 264.5 191.5 262.709 191.5 260.5C191.5 258.291 190.04 256.5 188.238 256.5Z" fill="#90A2A2"/>
<path d="M223.5 273.5H36.5C34.2909 273.5 32.5 275.291 32.5 277.5C32.5 279.709 34.2909 281.5 36.5 281.5H223.5C225.709 281.5 227.5 279.709 227.5 277.5C227.5 275.291 225.709 273.5 223.5 273.5Z" fill="#90A2A2"/>
<path d="M43.5 128.5H36.5C34.2909 128.5 32.5 130.291 32.5 132.5C32.5 134.709 34.2909 136.5 36.5 136.5H43.5C45.7091 136.5 47.5 134.709 47.5 132.5C47.5 130.291 45.7091 128.5 43.5 128.5Z" fill="#FF363B"/>
<path d="M223.5 128.5H191.5C189.291 128.5 187.5 130.291 187.5 132.5C187.5 134.709 189.291 136.5 191.5 136.5H223.5C225.709 136.5 227.5 134.709 227.5 132.5C227.5 130.291 225.709 128.5 223.5 128.5Z" fill="#FF363B"/>
<path d="M120.5 128.5H59.5C57.2909 128.5 55.5 130.291 55.5 132.5C55.5 134.709 57.2909 136.5 59.5 136.5H120.5C122.709 136.5 124.5 134.709 124.5 132.5C124.5 130.291 122.709 128.5 120.5 128.5Z" fill="#90A2A2"/>
<path d="M108.804 113.5H37.1957C34.6023 113.5 32.5 115.291 32.5 117.5C32.5 119.709 34.6023 121.5 37.1957 121.5H108.804C111.398 121.5 113.5 119.709 113.5 117.5C113.5 115.291 111.398 113.5 108.804 113.5Z" fill="#90A2A2"/>
<path d="M268.5 128.5H239.5C237.291 128.5 235.5 130.291 235.5 132.5C235.5 134.709 237.291 136.5 239.5 136.5H268.5C270.709 136.5 272.5 134.709 272.5 132.5C272.5 130.291 270.709 128.5 268.5 128.5Z" fill="#90A2A2"/>
<path d="M32 188C32 185.791 33.7909 184 36 184H144C146.209 184 148 185.791 148 188V216C148 218.209 146.209 220 144 220H36C33.7909 220 32 218.209 32 216V188Z" fill="#002C38"/>
<path d="M156 188C156 185.791 157.791 184 160 184H268C270.209 184 272 185.791 272 188V216C272 218.209 270.209 220 268 220H160C157.791 220 156 218.209 156 216V188Z" fill="#002C38"/>
<path fill-rule="evenodd" clip-rule="evenodd" d="M285.297 27.7272C285.297 27.9545 285.277 28.1684 285.251 28.3823L286.661 29.4852C286.788 29.5855 286.822 29.766 286.741 29.913L285.404 32.2259C285.324 32.3729 285.15 32.4331 284.997 32.3729L283.332 31.7045C282.985 31.9652 282.61 32.1925 282.203 32.3596L281.949 34.131C281.928 34.2914 281.788 34.4117 281.621 34.4117H278.947C278.78 34.4117 278.64 34.2914 278.62 34.131L278.366 32.3596C277.958 32.1925 277.584 31.9719 277.236 31.7045L275.572 32.3729C275.424 32.4264 275.244 32.3729 275.164 32.2259L273.827 29.913C273.747 29.766 273.78 29.5855 273.907 29.4852L275.318 28.3823C275.291 28.1684 275.271 27.9478 275.271 27.7272C275.271 27.5066 275.291 27.286 275.318 27.0721L273.907 25.9692C273.78 25.8689 273.74 25.6884 273.827 25.5414L275.164 23.2286C275.244 23.0815 275.418 23.0213 275.572 23.0815L277.236 23.7499C277.584 23.4892 277.958 23.262 278.366 23.0949L278.62 21.3235C278.64 21.163 278.78 21.0427 278.947 21.0427H281.621C281.788 21.0427 281.928 21.163 281.949 21.3235L282.203 23.0949C282.61 23.262 282.985 23.4826 283.332 23.7499L284.997 23.0815C285.144 23.028 285.324 23.0815 285.404 23.2286L286.741 25.5414C286.822 25.6884 286.788 25.8689 286.661 25.9692L285.251 27.0721C285.277 27.286 285.297 27.4999 285.297 27.7272ZM277.945 27.7272C277.945 29.0173 278.994 30.0668 280.284 30.0668C281.574 30.0668 282.624 29.0173 282.624 27.7272C282.624 26.4371 281.574 25.3876 280.284 25.3876C278.994 25.3876 277.945 26.4371 277.945 27.7272Z" fill="#607C84"/>
<path fill-rule="evenodd" clip-rule="evenodd" d="M258.224 20.8481H248.866C248.124 20.8481 247.529 21.4497 247.529 22.185V31.5433C247.529 32.2786 248.13 32.8802 248.866 32.8802H251.54L253.07 34.411C253.331 34.6717 253.752 34.6717 254.013 34.411L255.55 32.8802H258.224C258.959 32.8802 259.561 32.2786 259.561 31.5433V22.185C259.561 21.4497 258.959 20.8481 258.224 20.8481ZM254.213 30.2064V31.5433H252.876V30.2064H254.213ZM254.995 26.9778L255.597 26.3629C255.978 25.9818 256.219 25.4471 256.219 24.8588C256.219 23.3816 255.022 22.185 253.545 22.185C252.328 22.185 251.306 22.9939 250.978 24.1035C250.871 24.4778 251.138 24.8522 251.526 24.8522H251.727C251.987 24.8522 252.195 24.6717 252.281 24.4243C252.462 23.903 252.963 23.5219 253.545 23.5219C254.28 23.5219 254.882 24.1235 254.882 24.8588C254.882 25.2265 254.735 25.5607 254.494 25.8014L253.665 26.6436C253.257 27.058 252.977 27.5995 252.903 28.2078C252.856 28.5554 253.124 28.8629 253.471 28.8629H253.679C253.973 28.8629 254.207 28.6423 254.247 28.3548C254.334 27.7131 254.608 27.3722 254.995 26.9778Z" fill="#607C84"/>
</svg>
