<svg width="282" height="80" viewBox="0 0 282 80" fill="none" xmlns="http://www.w3.org/2000/svg">
<path d="M104.707 22.54H110.305L125.97 58.9H118.575L115.185 50.58H99.4169L96.1299 58.9H88.8899L104.708 22.5389L104.707 22.54ZM112.924 45.035L107.326 30.243L101.626 45.035H112.924ZM148.534 55.2029H148.43C147.54 56.7099 146.342 57.806 144.835 58.49C143.329 59.175 141.703 59.518 139.956 59.518C138.039 59.518 136.336 59.1839 134.846 58.5159C133.394 57.875 132.091 56.9392 131.02 55.768C129.959 54.604 129.154 53.235 128.606 51.66C128.058 50.085 127.785 48.39 127.785 46.575C127.785 44.761 128.075 43.065 128.658 41.491C129.24 39.916 130.053 38.546 131.098 37.382C132.15 36.2124 133.436 35.2766 134.872 34.6349C136.344 33.9669 137.953 33.6329 139.7 33.6329C140.864 33.6329 141.89 33.753 142.781 33.993C143.671 34.233 144.459 34.54 145.144 34.917C145.769 35.2524 146.355 35.6573 146.89 36.124C147.37 36.552 147.763 36.971 148.07 37.382H148.225V20.075H154.388V58.9H148.533V55.202L148.534 55.2029ZM133.947 46.575C133.947 47.534 134.11 48.4579 134.435 49.3489C134.751 50.2245 135.24 51.0277 135.873 51.7109C136.519 52.4048 137.296 52.9636 138.159 53.3549C139.049 53.7649 140.059 53.971 141.189 53.971C142.319 53.971 143.329 53.7649 144.219 53.3549C145.082 52.9636 145.859 52.4048 146.505 51.7109C147.137 51.0277 147.626 50.2245 147.943 49.3489C148.268 48.4589 148.43 47.534 148.43 46.575C148.43 45.617 148.268 44.6919 147.943 43.8019C147.626 42.9264 147.137 42.1232 146.505 41.4399C145.859 40.7461 145.082 40.1873 144.219 39.796C143.329 39.386 142.319 39.18 141.189 39.18C140.059 39.18 139.049 39.385 138.159 39.796C137.269 40.206 136.507 40.7549 135.873 41.4399C135.24 42.1232 134.751 42.9264 134.435 43.8019C134.11 44.6903 133.945 45.6291 133.947 46.575V46.575ZM161.955 22.54H173.049C174.555 22.54 176.027 22.694 177.465 23.002C178.903 23.31 180.187 23.815 181.317 24.517C182.434 25.2064 183.375 26.1474 184.065 27.2649C184.767 28.3949 185.118 29.798 185.118 31.476C185.118 33.599 184.544 35.354 183.398 36.74C182.25 38.127 180.701 39.111 178.749 39.693V39.796C180.989 39.9831 183.083 40.9888 184.629 42.6209C185.372 43.4189 185.956 44.3512 186.35 45.368C186.766 46.4402 186.976 47.5817 186.967 48.7319C186.967 50.7519 186.547 52.413 185.708 53.714C184.882 55.0024 183.754 56.0691 182.421 56.8209C181.069 57.5909 179.545 58.1309 177.851 58.4389C176.182 58.7447 174.488 58.8994 172.791 58.901H161.955V22.54V22.54ZM166.269 37.9469H172.227C173.254 37.9469 174.255 37.879 175.231 37.742C176.156 37.621 177.053 37.3337 177.876 36.894C178.656 36.4726 179.312 35.8527 179.776 35.097C180.256 34.327 180.496 33.307 180.496 32.041C180.496 30.911 180.273 29.9949 179.828 29.2929C179.388 28.5958 178.778 28.0216 178.056 27.624C177.32 27.214 176.481 26.931 175.539 26.777C174.597 26.6229 173.644 26.5456 172.689 26.5459H166.269V37.9469V37.9469ZM166.269 54.895H173.562C174.624 54.895 175.676 54.784 176.721 54.561C177.715 54.3578 178.669 53.9937 179.545 53.483C180.367 53.0029 181.062 52.3337 181.574 51.5309C182.088 50.7269 182.344 49.7419 182.344 48.5779C182.344 47.3109 182.096 46.25 181.6 45.394C181.125 44.5612 180.455 43.8563 179.648 43.34C178.843 42.826 177.919 42.467 176.875 42.261C175.817 42.0543 174.742 41.9511 173.665 41.9529H166.269V54.895V54.895ZM193.507 20.075H197.513V58.9H193.507V20.075V20.075ZM203.642 46.8829C203.642 44.9999 203.967 43.288 204.618 41.748C205.268 40.207 206.158 38.88 207.288 37.768C208.418 36.655 209.771 35.79 211.346 35.174C212.921 34.558 214.632 34.249 216.481 34.249C218.331 34.249 220.042 34.558 221.617 35.174C223.192 35.79 224.545 36.6539 225.674 37.7669C226.804 38.8799 227.694 40.207 228.345 41.747C228.995 43.288 229.321 44.9999 229.321 46.8829C229.321 48.7669 228.996 50.479 228.345 52.019C227.695 53.56 226.805 54.887 225.675 55.999C224.545 57.112 223.192 57.9769 221.617 58.5929C220.042 59.2089 218.33 59.518 216.481 59.518C214.632 59.518 212.921 59.2089 211.346 58.5929C209.771 57.9769 208.418 57.113 207.288 56C206.158 54.887 205.268 53.56 204.618 52.02C203.968 50.479 203.642 48.7669 203.642 46.8829V46.8829ZM207.956 46.8829C207.956 48.1499 208.153 49.323 208.546 50.401C208.922 51.4498 209.507 52.4111 210.267 53.226C211.027 54.0356 211.945 54.682 212.963 55.1259C214.008 55.5889 215.18 55.82 216.481 55.82C217.782 55.82 218.955 55.5889 219.999 55.1259C221.017 54.6822 221.935 54.0357 222.696 53.226C223.455 52.411 224.041 51.4497 224.416 50.401C224.81 49.323 225.006 48.1509 225.006 46.8829C225.006 45.6169 224.81 44.444 224.416 43.365C224.04 42.3165 223.455 41.3556 222.696 40.541C221.935 39.7312 221.017 39.0847 219.999 38.6409C218.955 38.1779 217.782 37.9469 216.481 37.9469C215.181 37.9469 214.008 38.1779 212.963 38.6399C211.945 39.0839 211.027 39.7303 210.267 40.54C209.508 41.3549 208.922 42.3162 208.547 43.365C208.153 44.444 207.956 45.6169 207.956 46.8829ZM252.193 40.875C251.337 39.847 250.413 39.1029 249.419 38.6399C248.427 38.1779 247.331 37.9469 246.133 37.9469C244.797 37.9469 243.616 38.1779 242.589 38.6399C241.562 39.1029 240.714 39.745 240.047 40.566C239.366 41.4117 238.852 42.3788 238.532 43.416C238.183 44.5382 238.009 45.7077 238.018 46.8829C238.018 48.1159 238.215 49.2719 238.608 50.3499C238.98 51.391 239.537 52.3564 240.252 53.2C240.95 54.0186 241.817 54.6758 242.794 55.1259C243.787 55.5889 244.9 55.82 246.133 55.82C248.769 55.82 250.806 54.8269 252.244 52.841L255.223 55.666C254.059 57.001 252.689 57.9759 251.114 58.5929C249.526 59.2117 247.837 59.5256 246.133 59.518C244.283 59.518 242.589 59.2089 241.048 58.5929C239.508 57.9769 238.198 57.1029 237.119 55.9729C236.041 54.8429 235.202 53.5089 234.603 51.9679C234.003 50.4279 233.703 48.7319 233.703 46.8829C233.703 45.0689 234.003 43.3909 234.603 41.8499C235.202 40.3099 236.049 38.974 237.145 37.844C238.241 36.714 239.55 35.833 241.074 35.2C242.597 34.566 244.284 34.25 246.133 34.25C247.913 34.25 249.599 34.558 251.191 35.174C252.783 35.79 254.179 36.7489 255.377 38.0499L252.193 40.875V40.875ZM259.401 20.075H263.406V45.445L274.346 34.865H280.046L268.44 45.805L281.228 58.9H275.321L263.406 46.2659V58.9H259.401V20.075V20.075Z" fill="#F4F4F4"/>
<path fill-rule="evenodd" clip-rule="evenodd" d="M21.405 1.736L1.735 21.407C0.623988 22.5184 -9.82461e-05 24.0255 1.16007e-08 25.597V53.42C1.16007e-08 54.992 0.624 56.499 1.736 57.61L21.406 77.28C22.5174 78.391 24.0245 79.0151 25.596 79.015H53.416C54.1943 79.0152 54.965 78.8621 55.6841 78.5644C56.4032 78.2667 57.0566 77.8302 57.607 77.28L77.277 57.61C78.388 56.4986 79.0121 54.9915 79.012 53.42V25.597C79.0121 24.0255 78.388 22.5184 77.277 21.407L57.607 1.736C56.4958 0.624621 54.9886 0.000166968 53.417 0H25.596C24.024 0 22.516 0.624 21.406 1.736H21.405Z" fill="#E40D0D"/>
<path fill-rule="evenodd" clip-rule="evenodd" d="M38.565 68.148C51.655 68.148 54.76 56.142 54.76 56.142L62.273 34.556C62.273 34.556 62.951 32.315 62.827 32.29C55.831 30.983 54.343 35.913 54.343 35.913C54.343 35.913 51.654 42.896 51.237 42.896C50.82 42.896 50.77 42.38 50.77 42.38V17.29C50.77 17.29 50.901 14.053 47.577 14.053C44.254 14.053 44.422 17.296 44.422 17.296L44.428 35.832C44.428 35.832 44.471 36.579 43.849 36.579C43.295 36.579 43.326 35.857 43.326 35.857V13.524C43.326 13.524 43.532 9.87695 40.17 9.87695C36.81 9.87695 36.99 13.549 36.99 13.549L36.959 35.583C36.959 35.583 37.002 36.261 36.449 36.261C35.932 36.261 35.95 35.589 35.95 35.589V17.115C35.95 17.115 36.137 13.355 32.714 13.355C29.353 13.355 29.534 17.184 29.534 17.184L29.502 36.691C29.502 36.691 29.564 37.257 29.035 37.257C28.475 37.257 28.488 36.691 28.488 36.691L28.463 24.896C28.463 24.896 28.493 21.634 25.668 21.634C22.662 21.634 22.718 24.896 22.718 24.896V50.353C22.736 50.347 21.958 68.148 38.565 68.148Z" fill="white"/>
<rect x="0.5" y="49.5" width="78" height="29" rx="3.5" fill="#2284F7" stroke="white"/>
<path d="M24.3889 70.6116C24.9814 70.6116 25.4791 70.5405 25.882 70.3983C26.2849 70.2561 26.6048 70.0665 26.8418 69.8295C27.0867 69.5925 27.2605 69.316 27.3632 69C27.4738 68.684 27.5291 68.3482 27.5291 67.9927C27.5291 67.6214 27.4699 67.2896 27.3514 66.9973C27.2329 66.6971 27.0472 66.4443 26.7944 66.2389C26.5416 66.0256 26.2138 65.8637 25.8109 65.7531C25.4159 65.6425 24.9379 65.5872 24.377 65.5872H21.1657V70.6116H24.3889ZM21.1657 58.4298V63.3831H23.7016C24.7918 63.3831 25.6134 63.1856 26.1664 62.7906C26.7273 62.3956 27.0077 61.7675 27.0077 60.9064C27.0077 60.0137 26.7549 59.3778 26.2493 58.9986C25.7437 58.6194 24.9537 58.4298 23.8793 58.4298H21.1657ZM23.8793 55.965C25.0011 55.965 25.961 56.0716 26.7589 56.2849C27.5568 56.4982 28.2085 56.8024 28.7141 57.1974C29.2276 57.5924 29.6029 58.0703 29.8399 58.6312C30.0769 59.1921 30.1954 59.8241 30.1954 60.5272C30.1954 60.9301 30.1361 61.3172 30.0176 61.6885C29.8991 62.0519 29.7135 62.3956 29.4607 62.7195C29.2158 63.0355 28.8998 63.3238 28.5127 63.5845C28.1335 63.8452 27.6792 64.0664 27.1499 64.2481C29.5041 64.7774 30.6812 66.0493 30.6812 68.0638C30.6812 68.7906 30.543 69.4621 30.2665 70.0783C29.99 70.6945 29.5871 71.2278 29.0578 71.6781C28.5285 72.1205 27.8767 72.4681 27.1025 72.7209C26.3283 72.9737 25.4435 73.1001 24.4481 73.1001H17.978V55.965H23.8793Z" fill="white"/>
<path d="M40.7861 65.6227C40.7861 65.2435 40.7308 64.888 40.6202 64.5562C40.5175 64.2165 40.3595 63.9203 40.1462 63.6675C39.9329 63.4147 39.6604 63.2172 39.3286 63.075C39.0047 62.9249 38.6255 62.8498 38.191 62.8498C37.3457 62.8498 36.6781 63.0908 36.1883 63.5727C35.7064 64.0546 35.3983 64.7379 35.264 65.6227H40.7861ZM35.2048 67.3884C35.2522 68.0125 35.3628 68.5536 35.5366 69.0118C35.7104 69.4621 35.9395 69.8374 36.2239 70.1376C36.5083 70.4299 36.844 70.6511 37.2311 70.8012C37.6261 70.9434 38.0606 71.0145 38.5346 71.0145C39.0086 71.0145 39.4155 70.9592 39.7552 70.8486C40.1028 70.738 40.403 70.6155 40.6558 70.4812C40.9165 70.3469 41.1416 70.2245 41.3312 70.1139C41.5287 70.0033 41.7183 69.948 41.9 69.948C42.1449 69.948 42.3266 70.0388 42.4451 70.2205L43.2865 71.287C42.9626 71.6662 42.5992 71.9862 42.1963 72.2469C41.7934 72.4997 41.3707 72.7051 40.9283 72.8631C40.4938 73.0132 40.0475 73.1198 39.5893 73.183C39.139 73.2462 38.7005 73.2778 38.2739 73.2778C37.4286 73.2778 36.6426 73.1396 35.9158 72.8631C35.189 72.5787 34.557 72.1639 34.0198 71.6188C33.4826 71.0658 33.0599 70.3864 32.7518 69.5806C32.4437 68.7669 32.2897 67.8268 32.2897 66.7603C32.2897 65.9308 32.424 65.1527 32.6926 64.4259C32.9612 63.6912 33.3443 63.0552 33.842 62.518C34.3476 61.9729 34.9599 61.5424 35.6788 61.2264C36.4056 60.9104 37.2232 60.7524 38.1317 60.7524C38.898 60.7524 39.6051 60.8748 40.2529 61.1197C40.9007 61.3646 41.4576 61.7241 41.9237 62.1981C42.3898 62.6642 42.7532 63.2409 43.0139 63.9282C43.2825 64.6076 43.4168 65.3857 43.4168 66.2626C43.4168 66.705 43.3694 67.0052 43.2746 67.1632C43.1798 67.3133 42.9981 67.3884 42.7295 67.3884H35.2048Z" fill="white"/>
<path d="M49.5503 73.2897C48.4917 73.2897 47.678 72.9934 47.1092 72.4009C46.5483 71.8005 46.2679 70.975 46.2679 69.9243V63.1342H45.0236C44.8656 63.1342 44.7313 63.0829 44.6207 62.9802C44.5101 62.8775 44.4548 62.7234 44.4548 62.518V61.3567L46.4101 61.0368L47.0263 57.7188C47.0658 57.5608 47.1408 57.4383 47.2514 57.3514C47.362 57.2645 47.5042 57.2211 47.678 57.2211H49.1948V61.0486H52.4417V63.1342H49.1948V69.7228C49.1948 70.102 49.2857 70.3983 49.4674 70.6116C49.657 70.8249 49.9137 70.9315 50.2376 70.9315C50.4193 70.9315 50.5694 70.9118 50.6879 70.8723C50.8143 70.8249 50.921 70.7775 51.0079 70.7301C51.1027 70.6827 51.1856 70.6392 51.2567 70.5997C51.3278 70.5523 51.3989 70.5286 51.47 70.5286C51.5569 70.5286 51.628 70.5523 51.6833 70.5997C51.7386 70.6392 51.7979 70.7024 51.8611 70.7893L52.738 72.2113C52.3114 72.5668 51.8216 72.8354 51.2686 73.0171C50.7156 73.1988 50.1428 73.2897 49.5503 73.2897Z" fill="white"/>
<path d="M60.7384 67.9098C59.8931 67.9493 59.1821 68.0243 58.6054 68.1349C58.0287 68.2376 57.5665 68.3719 57.2189 68.5378C56.8713 68.7037 56.6225 68.8973 56.4724 69.1185C56.3223 69.3397 56.2472 69.5806 56.2472 69.8413C56.2472 70.3548 56.3973 70.7222 56.6975 70.9434C57.0056 71.1646 57.4046 71.2752 57.8944 71.2752C58.4948 71.2752 59.0122 71.1685 59.4467 70.9552C59.8891 70.734 60.3197 70.4022 60.7384 69.9598V67.9098ZM54.0313 62.6365C55.4296 61.3567 57.1123 60.7168 59.0794 60.7168C59.7904 60.7168 60.4263 60.8353 60.9872 61.0723C61.5481 61.3014 62.0221 61.6253 62.4092 62.044C62.7963 62.4548 63.0886 62.9486 63.2861 63.5253C63.4915 64.102 63.5942 64.734 63.5942 65.4213V73.1001H62.267C61.9905 73.1001 61.7772 73.0606 61.6271 72.9816C61.477 72.8947 61.3585 72.7248 61.2716 72.472L61.0109 71.5951C60.7028 71.8716 60.4026 72.1165 60.1103 72.3298C59.818 72.5352 59.5139 72.709 59.1979 72.8512C58.8819 72.9934 58.5422 73.1001 58.1788 73.1712C57.8233 73.2502 57.4283 73.2897 56.9938 73.2897C56.4803 73.2897 56.0063 73.2225 55.5718 73.0882C55.1373 72.946 54.762 72.7367 54.446 72.4602C54.13 72.1837 53.8851 71.84 53.7113 71.4292C53.5375 71.0184 53.4506 70.5405 53.4506 69.9954C53.4506 69.6873 53.502 69.3831 53.6047 69.0829C53.7074 68.7748 53.8733 68.4825 54.1024 68.206C54.3394 67.9295 54.6435 67.6688 55.0148 67.4239C55.3861 67.179 55.8404 66.9657 56.3776 66.784C56.9227 66.6023 57.5547 66.4562 58.2736 66.3456C58.9925 66.2271 59.8141 66.156 60.7384 66.1323V65.4213C60.7384 64.6076 60.5646 64.0072 60.217 63.6201C59.8694 63.2251 59.3677 63.0276 58.712 63.0276C58.238 63.0276 57.843 63.0829 57.527 63.1935C57.2189 63.3041 56.9464 63.4305 56.7094 63.5727C56.4724 63.707 56.2551 63.8294 56.0576 63.94C55.868 64.0506 55.6547 64.1059 55.4177 64.1059C55.2123 64.1059 55.0385 64.0546 54.8963 63.9519C54.7541 63.8413 54.6396 63.7149 54.5527 63.5727L54.0313 62.6365Z" fill="white"/>
</svg>
