<svg width="258" height="183" viewBox="0 0 258 183" fill="none" xmlns="http://www.w3.org/2000/svg">
<path d="M258 120.614L257.943 134.799C257.886 147.104 245.497 159.384 220.751 168.772C170.943 187.667 89.9184 187.667 39.7807 168.772C14.5473 159.256 1.94322 146.782 2.00019 134.316C2.00019 129.589 2.02129 124.862 2.0635 120.135C2.00019 132.597 14.6106 145.079 39.8377 154.587C89.9754 173.478 171 173.478 220.815 154.587C245.561 145.199 257.949 132.915 258 120.614Z" fill="#0C9CBB"/>
<path d="M258 120.553C258 93.8947 200.692 72.2837 130 72.2837C59.3075 72.2837 2 93.8947 2 120.553C2 147.212 59.3075 168.823 130 168.823C200.692 168.823 258 147.212 258 120.553Z" fill="#FCE5BB"/>
<path d="M130 168.823C200.692 168.823 258 147.212 258 120.553C196.5 149.5 81.0058 161.368 2 120.553C2 147.212 59.3075 168.823 130 168.823Z" fill="#1AC2E7"/>
<path d="M101.585 115.069C101.585 105.718 83.8254 98.1382 61.9181 98.1382C40.0108 98.1382 22.2515 105.718 22.2515 115.069C22.2515 124.42 40.0108 132 61.9181 132C83.8254 132 101.585 124.42 101.585 115.069Z" fill="#E2CEA9"/>
<g clip-path="url(#clip0)">
<path d="M41.1395 120.825C41.1395 120.825 45.502 74.8914 24.9384 62.9332C23.9112 62.3331 22.6183 59.5459 27.2426 62.3805C31.867 65.2151 49.8726 75.4086 49.472 121.07C49.4561 122.89 43.757 124.931 41.1395 120.825Z" fill="#774C0E"/>
<path d="M24.9382 62.9332C45.494 74.8914 41.1393 120.825 41.1393 120.825C42.5829 123.092 44.9665 123.482 46.8146 123.072C46.9038 122.913 46.9541 122.736 46.9614 122.555C47.6991 75.1796 29.6498 64.7256 25.0136 61.8159C24.6567 61.5909 24.3354 61.4212 24.0419 61.2435C23.7127 61.587 24.3632 62.5976 24.9382 62.9332Z" fill="#986317"/>
<path d="M48.8293 122.152C48.8293 122.152 46.9375 124.489 43.1341 122.665C43.1341 122.665 46.4021 123.332 46.9811 120.75C46.9811 120.75 44.8673 120.75 43.9035 119.25C43.9035 119.25 46.5845 119.42 46.9692 117.703C46.9692 117.703 45.01 118.907 42.7217 116.787C42.7217 116.787 46.1284 116.941 46.6876 114.446C46.2139 114.39 45.7369 114.366 45.2599 114.375C44.3657 114.307 43.5136 113.969 42.8168 113.407C42.8168 113.407 46.7828 113.463 46.4259 111.481C46.4259 111.481 44.78 111.437 42.6542 109.428C42.6542 109.428 46.4893 110.66 46.533 107.782C45.2877 107.586 44.0966 107.136 43.035 106.459C43.035 106.459 45.8905 106.135 46.2395 104.592C46.2395 104.592 45.2995 105.46 43.2452 103.301C43.2452 103.301 45.2995 103.695 45.8429 101.271C45.8429 101.271 45.1409 102.12 42.5947 100.549C42.5947 100.549 44.5777 100.304 45.244 97.3551C45.244 97.3551 44.3517 98.7092 42.4678 96.7353C43.0167 96.6152 43.52 96.3426 43.9194 95.9492C44.3189 95.5558 44.598 95.0576 44.7245 94.5126C44.7245 94.5126 45.4463 96.3879 41.3217 93.7506C41.3217 93.7506 42.9675 94.2244 44.0979 91.6188C43.5198 91.6716 42.9383 91.5655 42.4167 91.3121C41.895 91.0587 41.4531 90.6678 41.1392 90.1817C41.1392 90.1817 43.1658 90.1817 42.9279 87.2761C42.9279 87.2761 41.9523 88.3775 39.9336 87.0708C39.9336 87.0708 42.6384 86.5418 41.3058 83.5808C40.8219 83.6629 40.3248 83.6146 39.866 83.4411C39.4071 83.2676 39.0032 82.975 38.6962 82.5938C38.6962 82.5938 41.5081 82.5701 40.5959 80.7738C40.5959 80.7738 36.6656 80.1185 38.5296 79.7513C39.8661 79.4868 40.5523 77.8248 40.5523 77.8248C40.5523 77.8248 39.9177 76.2969 38.72 75.7403C37.9625 75.3889 38.4424 75.156 38.8746 74.7256L35.4203 71.4291C35.8169 71.0343 34.3296 70.8251 35.7613 69.921C35.7613 69.9368 51.8474 90.6752 48.8293 122.152Z" fill="#774C0E"/>
<path d="M51.9781 26.8572C61.7821 50.6039 57.1855 115.938 57.1855 115.938C58.8869 119.096 61.8376 119.566 64.1577 118.907C64.2774 118.673 64.3476 118.418 64.3639 118.157C67.3305 50.4539 57.6217 30.813 51.9781 26.8572C51.5419 26.5453 52.3351 27.0704 51.9781 26.8572V26.8572Z" fill="#986317"/>
<path d="M66.712 117.501C66.712 117.501 64.2491 120.924 59.5732 118.476C59.5732 118.476 63.6106 119.29 64.4435 115.583C64.4435 115.583 61.814 115.689 60.6758 113.565C60.6758 113.565 64.0072 113.699 64.5664 111.224C64.5664 111.224 62.0718 113.028 59.3115 110.103C59.3115 110.103 63.5471 110.174 64.3562 106.585C63.7644 106.529 63.1692 106.515 62.5755 106.546C60.9534 106.581 59.5772 105.271 59.5772 105.271C59.5772 105.271 64.495 105.18 64.1539 102.361C64.1539 102.361 62.1075 102.361 59.5455 99.5975C59.5455 99.5975 64.269 101.177 64.4474 97.0748C64.4474 97.0748 62.5358 96.9405 60.1443 95.3377C60.1443 95.3377 63.7137 94.7494 64.2174 92.5347C64.2174 92.5347 63.0276 93.8098 60.5449 90.8134C60.5449 90.8134 63.0871 91.2871 63.8684 87.809C63.8684 87.809 62.9602 89.0526 59.8509 86.9128C59.8509 86.9128 62.3415 86.4825 63.2933 82.2424C63.2933 82.2424 62.1035 84.2164 59.839 81.4726C59.839 81.4726 63.9477 80.8646 64.5585 78.1366C64.5585 78.1366 64.1143 81.5042 59.0894 77.9155C59.0894 77.9155 60.5727 77.8642 62.0797 74.0979C61.3486 74.1939 60.6056 74.0593 59.9554 73.713C59.3051 73.3667 58.7803 72.8261 58.4548 72.1674C58.4548 72.1674 63.329 72.0016 63.1624 67.8641C63.1624 67.8641 61.3659 67.4694 58.9069 65.7046C58.9069 65.7046 63.3687 67.2838 61.8378 63.1306C61.161 63.119 60.496 62.9519 59.8948 62.6424C59.2935 62.3329 58.7722 61.8892 58.3715 61.3461C58.3715 61.3461 62.1749 59.8894 61.116 57.3587C61.116 57.3587 56.2101 56.1744 58.546 55.5664C59.0259 55.4362 59.4544 55.1636 59.7747 54.7848C60.095 54.4061 60.2917 53.9392 60.3387 53.4464C60.3387 53.4464 60.3783 48.7799 58.7523 48.5786C55.5795 48.1838 58.2605 46.9994 58.8197 46.3677L59.0339 39.3049C59.0339 39.3049 71.8281 72.4121 66.712 117.501Z" fill="#774C0E"/>
<path d="M85.856 122.752C86.0681 122.513 86.2059 122.218 86.2526 121.903C93.895 105.658 91.6503 80.8844 91.6503 72.9214H88.9375C88.9375 92.3767 86.7364 107.454 78.3801 118.157C72.5699 114.146 69.0719 107.102 65.9864 97.667L64.5586 98.1289C65.8674 102.132 69.06 115.65 75.8022 122.484C75.8861 122.584 75.9776 122.677 76.0758 122.764V122.764C76.3779 123.023 76.7125 123.242 77.0713 123.415C79.2724 124.497 82.7228 124.544 84.7851 123.522C85.1777 123.339 85.5307 123.081 85.8242 122.764L85.856 122.752Z" fill="#986317"/>
<path d="M79.3832 124.11L77.0869 123.411C77.0869 123.411 81.9572 122.969 83.2302 121.702C83.2302 121.702 81.0767 120.549 80.0574 119.534C80.0574 119.534 82.9526 118.571 84.42 117.091C84.42 117.091 82.79 116.696 82.79 114.682C82.79 114.682 84.5906 114.738 86.3079 112.255C86.3079 112.255 85.0467 112.195 84.7215 109.949C84.7215 109.949 86.7957 110.533 87.8943 108.164C87.8943 108.164 87.2795 108.595 86.3436 106.285C86.3436 106.285 89.0047 106.108 89.0047 103.316C89.0047 103.316 87.4183 103.316 87.4183 101.098C87.4183 101.098 90.0042 100.873 89.9962 98.5829C89.9962 98.5829 89.1356 99.029 88.4574 97.288C88.4574 97.288 90.8846 96.3878 90.8846 92.7518L88.8382 92.053C89.4145 91.6529 89.8803 91.1148 90.1929 90.4883C90.5055 89.8619 90.6547 89.1672 90.6268 88.4683C90.6268 85.9338 90.8767 72.9135 90.8767 72.9135H91.6699C91.6699 72.9135 94.5889 106.112 85.8557 122.752C85.8557 122.752 83.5991 124.829 79.3832 124.11Z" fill="#774C0E"/>
<path d="M98.2652 63.4228C98.2652 63.4228 93.1094 66.0363 89.6035 73.1109C92.3133 72.193 95.14 71.6613 97.9995 71.5318V69.7236L99.3519 71.4962C100.098 71.4962 100.867 71.5239 101.652 71.587L102.287 70.6672L102.513 71.67C105.806 72.0198 108.971 73.134 111.754 74.923C112.432 74.0979 113.209 73.1149 113.209 73.1149V75.9771L113.606 76.3048L115.01 74.9112V77.5997C117.179 79.7987 119.114 82.732 120.614 86.6128C120.618 86.6089 125.345 54.615 98.2652 63.4228Z" fill="#456206"/>
<path d="M98.2655 63.4228C98.2655 63.4228 95.0055 65.0769 91.9199 69.2973C94.4272 68.5269 97.0211 68.0707 99.6417 67.9392L100.994 67.9036C101.74 67.9036 102.509 67.9313 103.294 67.9944L104.155 68.0774C107.449 68.4268 110.615 69.5425 113.396 71.3344L114.851 72.3885C114.986 72.4951 115.121 72.6017 115.248 72.7122L116.652 74.0071C118.37 75.7778 119.805 77.8003 120.907 80.004C120.61 71.1567 117.271 57.2403 98.2655 63.4228Z" fill="#639518"/>
<path d="M79.0501 69.8065L80.3391 68.1208L81.9532 69.6012C84.4201 69.7631 87.3073 70.754 90.6784 72.9491C90.6784 72.9491 77.7175 55.444 67.9216 67.4496C66.4224 69.2854 63.559 73.6794 68.4252 83.6361C68.8352 81.7718 69.4428 79.9561 70.2377 78.2195L69.4762 76.1666L70.8604 76.9562C70.9516 76.7904 71.0388 76.6246 71.134 76.4587L70.8405 74.9704H72.0581C73.3907 73.0241 75.1635 71.2554 77.4756 70.3039L78.1935 68.1208L79.0501 69.8065Z" fill="#639518"/>
<path d="M70.2339 78.2195L69.4724 76.1666L70.8566 76.9562C70.9478 76.7904 71.035 76.6246 71.1302 76.4588L70.8367 74.9704H72.0543C73.3868 73.0241 75.1596 71.2554 77.4718 70.3039L78.1897 68.1207L79.0503 69.8065L80.3392 68.1207L81.9534 69.6012C84.4202 69.7631 87.3075 70.754 90.6786 72.9491C90.6786 72.9491 90.5913 72.8306 90.4247 72.6174C86.5182 69.3683 74.6996 60.9553 68.3619 72.0726C67.426 73.711 65.911 77.0904 68.584 82.9491C68.9928 81.3242 69.5463 79.7387 70.2379 78.2116L70.2339 78.2195Z" fill="#456206"/>
<path d="M89.12 94.4455L87.5336 94.9745L88.307 93.2137C88.2079 93.0479 88.1047 92.8781 88.0056 92.7005L86.443 93.0163L87.5654 91.8991C86.3313 89.5902 85.618 87.0411 85.4753 84.4296H84.0951L85.4832 83.0478C85.4832 82.7162 85.5308 82.3806 85.5705 82.0451L84.0951 80.1895L85.8045 80.687C86.4033 77.9234 87.8708 74.9704 90.6628 72.0016C90.6628 72.0016 67.1405 79.4078 82.1796 94.8995C82.1796 94.8995 85.6895 97.5485 91.6979 97.5722C90.7408 96.6139 89.8776 95.5669 89.12 94.4455V94.4455Z" fill="#598911"/>
<path d="M82.1915 94.8916C83.0831 95.5055 84.051 96.0018 85.0708 96.3681C84.6527 95.6157 84.2741 94.8422 83.9365 94.0507L82.2867 94.2481L83.4051 92.6689C83.3416 92.4833 83.2742 92.2741 83.2147 92.1004H81.6283L82.9569 91.2318C82.2183 88.7213 82.0397 86.0804 82.4334 83.4939L81.081 83.2176L82.7229 82.1437C82.8062 81.82 82.9054 81.5002 83.0124 81.1805L81.9456 79.0644L83.532 79.8974C84.6861 77.3036 86.7048 74.7177 90.064 72.3687C90.064 72.3687 89.826 72.3924 89.4096 72.4516C84.6702 74.3111 69.3298 81.6463 82.1915 94.8916Z" fill="#639518"/>
<path d="M107.478 92.8386L105.262 92.1675L107.276 90.8963C107.244 90.6791 107.217 90.4541 107.181 90.2251L105.262 89.25L106.951 88.9341C106.389 85.8658 105.255 82.9293 103.608 80.2764H100.919L102.109 78.2787C101.978 78.1287 101.847 77.9787 101.712 77.8287L99.491 78.2235L100.34 76.4824C97.8491 74.3229 94.5057 72.7201 90.0281 72.2503C89.6022 74.5718 89.5393 76.9448 89.8417 79.2855L90.6865 78.6696L90.0559 80.6435C90.1432 81.0975 90.2502 81.5634 90.3692 82.0293H91.7256L90.7262 83.2728C91.8115 86.5903 93.9091 89.4884 96.7267 91.5635L98.4717 89.8224L98.5709 92.7676C98.8842 92.9452 99.2094 93.1189 99.5426 93.2887L101.014 92.1675L101.216 94.0467C103.26 94.8516 105.389 95.4238 107.562 95.7522C107.591 94.7802 107.563 93.8074 107.478 92.8386V92.8386Z" fill="#639518"/>
<path d="M89.83 79.2855L90.6748 78.6696L90.0442 80.6436C90.1314 81.0976 90.2385 81.5634 90.3575 82.0293H91.7139L90.7263 83.2729C91.8117 86.5903 93.9092 89.4884 96.7269 91.5635L98.4719 89.8225L98.5711 92.7676C98.8844 92.9453 99.2096 93.119 99.5427 93.2887L99.7212 93.1506L99.63 93.0597L99.8085 93.0834L100.998 92.1675L101.117 93.2729L101.319 93.3006C101.77 90.2131 101.636 87.0689 100.923 84.0309L98.3767 83.1781L100.157 81.6661C100.082 81.4805 100.003 81.295 99.9235 81.1094L97.6866 80.7857L99.043 79.3921C97.4566 76.7154 95.0175 74.2598 91.2974 72.4279C91.0476 72.2582 90.8334 71.9621 90.6549 71.9976C90.4765 72.0332 90.1632 72.27 89.9966 72.2503C89.8615 72.7518 89.7843 73.2671 89.7666 73.786C89.5776 75.6156 89.5989 77.4607 89.83 79.2855V79.2855Z" fill="#598911"/>
<path d="M105.186 55.7204C106.779 54.9765 108.425 54.3535 110.112 53.857C105.618 53.1867 101.043 53.2801 96.5801 54.1333C79.3756 59.2459 90.1869 73.0083 90.1869 73.0083C90.8651 67.3272 94.1846 63.1385 97.9285 60.1381L97.5042 58.4523L98.7138 59.5301L98.9597 59.3485L98.9161 58.5313L99.7291 58.8076C101.187 57.8057 102.717 56.9111 104.306 56.131V55.0848L105.186 55.7204Z" fill="#598911"/>
<path d="M89.7546 72.3806C89.4968 67.0312 91.7732 62.5108 94.6605 58.9774L93.8951 57.418L95.303 58.2076L95.5052 57.9786L95.2871 57.189L96.1438 57.2838C97.3634 56.0053 98.6757 54.8178 100.07 53.7306L100.042 53.6082C98.8799 53.7163 97.7242 53.8863 96.58 54.1175C81.541 58.6024 87.9143 69.6684 89.7546 72.3806Z" fill="#639518"/>
<path d="M90.6748 71.9976L92.7371 74.9388L92.1343 77.7458L95.6204 78.0261L93.5462 80.1145L96.4413 81.4608V84.3862L98.6861 86.6207L101.593 90.6791L100.943 84.0427L98.3966 83.19L100.177 81.6779L99.9433 81.1213L97.7065 80.7975L99.0629 79.4039C99.0629 79.4039 97.5994 74.5085 90.6748 71.9976Z" fill="#8BAA1A"/>
<path d="M91.9155 69.2973C91.9155 69.2973 103.338 65.0532 113.391 71.3344C113.391 71.3344 117.357 74.2519 118.853 76.6206L117.568 71.9976L115.981 72.2503V68.5156L112.777 68.9854V67.5088L109.572 68.1208L103.282 64.9388L100.085 66.5179H96.5756L91.9155 69.2973Z" fill="#8BAA1A"/>
<path d="M89.7345 71.4686C89.7345 71.4686 89.1912 66.589 93.7639 60.1381L91.3169 60.7698L91.7135 61.5357L89.6036 62.9924L90.0359 64.1768L88.7866 65.7797L89.7345 71.4686Z" fill="#8BAA1A"/>
<path d="M88.0175 70.7817C88.0175 70.7817 77.0515 61.9739 70.2657 69.4512L69.8691 67.039H71.5309L72.8079 64.3979L74.7354 65.8033L75.6 64.9387L77.1864 65.8033H81.8068L83.6192 67.5878L88.0175 70.7817Z" fill="#8BAA1A"/>
<path d="M89.4726 72.7872C89.4726 72.7872 84.991 75.6455 83.5236 79.8935L81.9372 79.0604L83.004 81.1765L82.7145 82.1398L81.0726 83.2137L82.425 83.49C82.425 83.49 82.1236 87.2563 82.425 88.8039L81.0726 86.0996L81.6675 84.7652L79.5259 82.6294L81.378 80.7896V78.0261C81.378 78.0261 87.6244 73.1504 89.4726 72.7872Z" fill="#8BAA1A"/>
<path d="M70.4402 95.2548C70.4402 95.2548 67.1603 96.9129 64.9473 101.402C66.6662 100.819 68.4595 100.481 70.2736 100.399V99.2501L71.1302 100.375C71.6062 100.375 72.094 100.375 72.5897 100.434L72.9863 99.8502L73.1291 100.486C75.2186 100.707 77.2266 101.414 78.9908 102.551C79.4231 102.025 79.9149 101.402 79.9149 101.402V103.218L80.1727 103.427L81.0611 102.543V104.248C82.6356 105.889 83.851 107.837 84.6305 109.969C84.6305 109.969 87.6248 89.6646 70.4402 95.2548Z" fill="#456206"/>
<path d="M70.4401 95.2548C68.8431 96.1938 67.4686 97.4651 66.4106 98.9816C68.0024 98.4931 69.649 98.204 71.3126 98.121L72.1693 98.0973C72.6452 98.0973 73.129 98.0973 73.6287 98.1565L74.1761 98.2078C76.2656 98.429 78.2736 99.1363 80.0378 100.273L80.9658 100.944L81.2157 101.149L82.108 101.974C83.1993 103.096 84.1103 104.378 84.8089 105.776C84.6185 100.162 82.4927 91.3306 70.4401 95.2548Z" fill="#639518"/>
<path d="M58.2486 99.3053L59.0656 98.2354L60.0888 99.175C61.6752 99.2777 63.4876 99.9054 65.6412 101.299C65.6412 101.299 57.4157 90.1896 51.201 97.8091C50.2492 98.9934 48.4248 101.757 51.5183 108.074C51.7789 106.89 52.1658 105.737 52.6724 104.635L52.1846 103.332L53.065 103.834C53.1205 103.731 53.1761 103.624 53.2355 103.522L53.0491 102.574H53.8225C54.6548 101.275 55.8498 100.246 57.261 99.6133L57.7171 98.2275L58.2486 99.3053Z" fill="#639518"/>
<path d="M52.6564 104.643L52.1686 103.34L53.0491 103.841C53.1046 103.739 53.1601 103.632 53.2196 103.53L53.0332 102.582H53.8066C54.6388 101.283 55.8339 100.254 57.2451 99.6212L57.7012 98.2355L58.2485 99.3053L59.0655 98.2355L60.0887 99.1751C61.6751 99.2777 63.4876 99.9054 65.6411 101.299L65.4785 101.09C62.9997 99.029 55.5001 93.6875 51.4785 100.742C50.8837 101.785 49.9239 103.928 51.6174 107.643C51.8785 106.614 52.2315 105.61 52.6723 104.643H52.6564Z" fill="#456206"/>
<path d="M64.6455 114.943L63.6461 115.279L64.1378 114.161L63.9475 113.834L62.952 114.035L63.6659 113.324C62.8822 111.86 62.4301 110.243 62.3413 108.587H61.4727L62.3532 107.714C62.3532 107.501 62.3849 107.288 62.4087 107.075L61.4727 105.89L62.5554 106.206C62.952 104.446 63.8682 102.578 65.641 100.679C65.641 100.679 50.713 105.381 60.2551 115.208C60.2551 115.208 62.484 116.889 66.2993 116.905C65.6861 116.305 65.1323 115.648 64.6455 114.943V114.943Z" fill="#598911"/>
<path d="M60.2394 115.223C60.8057 115.612 61.4203 115.927 62.0677 116.159C61.8031 115.682 61.5635 115.192 61.3499 114.69L60.3029 114.817L61.0128 113.822C60.9692 113.703 60.9295 113.585 60.8898 113.463H59.8864L60.7272 112.91C60.2598 111.316 60.1461 109.64 60.3941 107.999L59.5374 107.821L60.5765 107.142C60.632 106.937 60.6955 106.747 60.7629 106.53L60.0847 105.188L61.0802 105.717C61.9962 103.777 63.4298 102.124 65.2247 100.94C65.2247 100.94 65.074 100.94 64.8281 100.995C61.8139 102.164 52.0774 106.818 60.2394 115.223Z" fill="#639518"/>
<path d="M76.2899 113.921L74.886 113.494L76.163 112.705C76.1471 112.568 76.1273 112.426 76.1035 112.278L74.886 111.658L75.9568 111.461C75.6018 109.513 74.882 107.649 73.835 105.965H72.1296L72.8911 104.698C72.8117 104.6 72.7245 104.505 72.6372 104.41L71.2293 104.667L71.7607 103.557C69.9137 102 67.6217 101.061 65.2089 100.873C64.9366 102.344 64.8951 103.849 65.086 105.334L65.6254 104.939L65.2288 106.198C65.2843 106.487 65.3517 106.783 65.4271 107.079H66.2877L65.6611 107.868C66.351 109.972 67.6817 111.81 69.4684 113.127L70.5749 112.026L70.6384 113.889C70.8367 114.003 71.035 114.114 71.2531 114.221L72.1891 113.51L72.32 114.694C73.6131 115.207 74.9611 115.57 76.3375 115.776C76.3603 115.157 76.3444 114.537 76.2899 113.921V113.921Z" fill="#639518"/>
<path d="M65.0862 105.318L65.6256 104.923L65.229 106.183C65.2845 106.471 65.3519 106.767 65.4273 107.063H66.2879L65.6613 107.853C66.3512 109.956 67.6819 111.794 69.4686 113.111L70.5751 112.01L70.6386 113.873C70.8369 113.988 71.0352 114.098 71.2533 114.205L71.3683 114.118L71.3128 114.063H71.4238L72.1893 113.478L72.2646 114.181H72.3915C72.6802 112.224 72.5968 110.229 72.1456 108.303L70.5275 107.758L71.6578 106.798C71.6102 106.684 71.5626 106.566 71.5111 106.447L70.0913 106.242L70.9519 105.357C69.7905 103.431 68.0801 101.892 66.038 100.936C65.8794 100.829 65.7406 100.64 65.6414 100.663C65.5423 100.687 65.3281 100.837 65.225 100.825C65.1351 101.143 65.0858 101.471 65.0783 101.8C64.9433 102.969 64.946 104.15 65.0862 105.318V105.318Z" fill="#598911"/>
<path d="M74.834 90.3791C75.8442 89.9065 76.889 89.5106 77.9592 89.1947C75.1062 88.7697 72.2015 88.8298 69.3688 89.3724C58.4544 92.6136 65.3156 101.335 65.3156 101.335C65.7439 97.7301 67.8498 95.0692 70.2255 93.1703L69.9558 92.1004L70.7252 92.7834L70.8799 92.6689L70.8521 92.1517L71.3717 92.3254C72.2994 91.6936 73.2724 91.1302 74.2827 90.6397V89.9764L74.834 90.3791Z" fill="#598911"/>
<path d="M65.0423 100.94C64.8797 97.5446 66.3273 94.6744 68.1596 92.432L67.6718 91.445L68.5641 91.9543L68.695 91.8082L68.5562 91.3069L69.0995 91.3661C69.8745 90.5564 70.7069 89.803 71.5901 89.1118L71.5703 89.0368C70.8326 89.1048 70.0991 89.2128 69.3732 89.3605C59.827 92.1951 63.8723 99.2185 65.0423 100.94Z" fill="#639518"/>
<path d="M65.6255 100.695L66.9343 102.562L66.5377 104.351L68.7467 104.528L67.43 105.839L69.2663 106.696V108.54L70.694 109.957L72.5342 112.531L72.1376 108.322L70.5195 107.778L71.6498 106.818L71.5031 106.467L70.0833 106.262L70.9439 105.377C70.9439 105.377 70.0158 102.29 65.6255 100.695Z" fill="#8BAA1A"/>
<path d="M66.4106 98.9816C66.4106 98.9816 73.6605 96.2891 80.0378 100.273C80.0378 100.273 82.5443 102.128 83.5041 103.632L82.691 100.695L81.6718 100.857V98.4881L79.6412 98.7882V97.8525L77.6066 98.2473L73.6168 96.2299L71.5863 97.2208H69.3613L66.4106 98.9816Z" fill="#8BAA1A"/>
<path d="M65.0423 100.359C65.0423 100.359 64.6972 97.2643 67.6003 93.1703L66.0496 93.5651L66.2995 94.0507L64.963 94.9745L65.2327 95.7364L64.4395 96.751L65.0423 100.359Z" fill="#8BAA1A"/>
<path d="M63.9397 99.9251C63.9397 99.9251 56.9794 94.327 52.6723 99.0645L52.4146 97.5327H53.4695L54.2627 95.8588L55.4842 96.7471L56.0355 96.2023L57.0349 96.7471H59.9658L61.1199 97.8841L63.9397 99.9251Z" fill="#8BAA1A"/>
<path d="M64.86 101.196C64.86 101.196 62.0163 103.012 61.0724 105.717L60.077 105.188L60.7551 106.53L60.5687 107.142L59.5297 107.821L60.3863 107.999C60.3863 107.999 60.1959 110.387 60.3863 111.37L59.5297 109.657L59.9263 108.808L58.5659 107.454L59.7557 106.269V104.513C59.7557 104.513 63.69 101.433 64.86 101.196Z" fill="#8BAA1A"/>
<path d="M61.0525 21.9025C61.0525 21.9025 56.4559 24.2239 53.3545 30.5129C55.7627 29.693 58.2759 29.2184 60.8185 29.1035V27.4967L62.0083 29.0759C62.6706 29.0759 63.3528 29.0996 64.0508 29.1549L64.6457 28.3376L64.8479 29.2259C67.7747 29.5356 70.5871 30.527 73.0575 32.1197C73.6643 31.3854 74.3544 30.5129 74.3544 30.5129V33.0554L74.7113 33.3475L75.9567 32.104V34.4964C78.1426 36.7991 79.8276 39.5261 80.9062 42.5067C80.9062 42.5067 85.1221 14.0699 61.0525 21.9025Z" fill="#456206"/>
<path d="M61.0524 21.9025C61.0524 21.9025 58.1532 23.3672 55.4048 27.1217C57.6326 26.4369 59.9374 26.0311 62.2659 25.9136L63.4557 25.882C64.1181 25.882 64.8002 25.9057 65.4982 25.9649L66.2637 26.04C69.1917 26.347 72.0057 27.3371 74.4772 28.9298L75.7701 29.8655L76.1271 30.1576L77.3724 31.3104C78.9018 32.8809 80.1781 34.6774 81.156 36.6362C80.9061 28.7917 77.9475 16.407 61.0524 21.9025Z" fill="#639518"/>
<path d="M43.9749 27.5717L45.1172 26.0755L46.5528 27.3901C48.746 27.5362 51.312 28.4166 54.3024 30.3669C54.3024 30.3669 42.801 14.8081 34.0758 25.4793C32.7393 27.1098 30.1931 31.0064 34.52 39.8655C34.8864 38.2093 35.4274 36.5961 36.1342 35.053L35.456 33.2291L36.6894 33.9239C36.7687 33.7779 36.8481 33.6318 36.9314 33.4857L36.6736 32.1592H37.7523C38.9421 30.4261 40.5285 28.8548 42.567 28.0139L43.2055 26.0715L43.9749 27.5717Z" fill="#639518"/>
<path d="M36.1384 35.053L35.4602 33.2291L36.6897 33.9239C36.769 33.7779 36.8483 33.6318 36.9316 33.4857L36.6738 32.1592H37.7526C38.9424 30.4261 40.5288 28.8548 42.5673 28.0139L43.2058 26.0715L43.9752 27.5678L45.1174 26.0715L46.5531 27.3862C48.7463 27.5323 51.3123 28.4126 54.3027 30.3629C54.3027 30.3629 54.2273 30.2563 54.0806 30.0708C50.6064 27.1848 40.1004 19.7114 34.4687 29.5812C33.6359 31.038 32.2914 34.0384 34.6631 39.2457C35.03 37.8051 35.5237 36.3995 36.1384 35.0451V35.053Z" fill="#456206"/>
<path d="M52.9224 49.4748L51.5224 49.9446L52.2125 48.3654C52.1212 48.2154 52.034 48.0654 51.9428 47.9075L50.5547 48.1917L51.5581 47.2126C50.4573 45.1614 49.8223 42.8946 49.698 40.5722H48.4686L49.706 39.3444C49.706 39.0484 49.7496 38.7523 49.7853 38.4522L48.4686 36.802L49.9717 37.2442C50.5071 34.7807 51.8119 32.1632 54.2906 29.522C54.2906 29.522 33.3819 36.1072 46.7553 49.8696C46.7553 49.8696 49.8765 52.2383 55.2187 52.2383C54.3669 51.3918 53.598 50.4664 52.9224 49.4748V49.4748Z" fill="#598911"/>
<path d="M46.7631 49.8696C47.557 50.4142 48.4181 50.8547 49.3251 51.1803C48.9515 50.5137 48.6152 49.827 48.3177 49.1234L46.8503 49.3011L47.8418 47.9075C47.7863 47.7416 47.7268 47.5758 47.6713 47.4061H46.2554L47.4452 46.6362C46.7864 44.4054 46.6266 42.0579 46.9772 39.759L45.7874 39.5102L47.243 38.5588C47.3223 38.2745 47.4095 37.9864 47.5047 37.7021L46.5568 35.8229L47.9529 36.5612C48.9563 34.2477 50.7648 31.95 53.7353 29.8615L53.1444 29.9366C48.9682 31.5789 35.3331 38.0969 46.7631 49.8696Z" fill="#639518"/>
<path d="M69.2463 48.0456L67.2633 47.4495L69.052 46.3204C69.0282 46.1269 69.0004 45.9256 68.9647 45.7203L67.2633 44.8557L68.7625 44.5754C68.2627 41.8487 67.2553 39.239 65.7919 36.8809H63.4124L64.4832 35.1044L64.1262 34.7096L62.1432 35.0728L62.8888 33.4936C60.6719 31.5749 57.7013 30.1537 53.7115 29.7352C53.3313 31.8012 53.2738 33.9132 53.541 35.9966L54.2945 35.4518L53.7353 37.2125C53.8107 37.6073 53.9059 38.0298 54.013 38.4443H55.2028L54.3302 39.5418C55.2988 42.4946 57.1709 45.0718 59.6843 46.9126L61.235 45.3729L61.3223 47.9904C61.5999 48.1483 61.8894 48.3022 62.1869 48.4523L63.4956 47.4574L63.6741 49.1274C65.4893 49.8423 67.3799 50.3509 69.3098 50.6434C69.3372 49.7769 69.316 48.9097 69.2463 48.0456Z" fill="#639518"/>
<path d="M53.5412 35.9966L54.2948 35.4518L53.7356 37.2125C53.8109 37.6073 53.9061 38.0298 54.0132 38.4443H55.203L54.3305 39.5418C55.299 42.4946 57.1711 45.0718 59.6845 46.9126L61.2352 45.3729L61.3225 47.9903C61.6001 48.1483 61.8896 48.3022 62.1871 48.4523L62.3457 48.3299L62.2664 48.2509L62.4211 48.2746L63.4959 47.4574L63.599 48.4404L63.7814 48.4641C64.1799 45.7199 64.0615 42.9259 63.4324 40.2248L61.1678 39.451L62.7542 38.1087C62.6868 37.9429 62.6194 37.7771 62.548 37.6152L60.565 37.327L61.7548 36.0874C60.3588 33.7186 58.1854 31.5354 54.8698 29.8931C54.6517 29.747 54.4732 29.4786 54.2987 29.4983C54.1242 29.5181 53.8664 29.7391 53.7197 29.7233C53.597 30.1676 53.5278 30.6248 53.5135 31.0854C53.3343 32.7181 53.3437 34.3659 53.5412 35.9966V35.9966Z" fill="#598911"/>
<path d="M67.204 15.0529C68.615 14.3936 70.0732 13.8393 71.5666 13.3948C67.5716 12.8011 63.5045 12.8852 59.5377 13.6435C44.2449 18.1875 53.8584 30.4024 53.8584 30.4024C54.4573 25.353 57.408 21.6222 60.7354 18.9534L60.3388 17.4532L61.4731 18.4244L61.6873 18.2626L61.6476 17.5361L62.3734 17.777C63.6736 16.8889 65.0376 16.0972 66.4544 15.4082L66.4306 14.4765L67.204 15.0529Z" fill="#598911"/>
<path d="M53.4854 29.8615C53.2593 25.124 55.282 21.0853 57.848 17.9467L57.1658 16.5531L58.4191 17.2677L58.5976 17.0624L58.4072 16.3597L59.1647 16.4465C60.2498 15.3096 61.4176 14.254 62.6587 13.2882L62.631 13.1816C61.5977 13.2778 60.5703 13.4293 59.5534 13.6356C46.184 17.6151 51.8475 27.4493 53.4854 29.8615Z" fill="#639518"/>
<path d="M54.3022 29.522L56.1385 32.1356L55.6031 34.6385L58.7005 34.8912L56.8563 36.727L59.4303 37.9114V40.5091L61.4133 42.483L63.9951 46.0914L63.4201 40.1932L61.1674 39.451L62.7538 38.1087L62.5475 37.6153L60.5645 37.3271L61.7543 36.0874C61.7543 36.0874 60.4575 31.7526 54.3022 29.522Z" fill="#8BAA1A"/>
<path d="M55.4048 27.1217C55.4048 27.1217 65.5617 23.3514 74.4971 28.9298C74.4971 28.9298 78.007 31.5276 79.3515 33.6318L78.2092 29.522L76.7815 29.7471V26.4229L73.9379 26.8414V25.5307L71.0863 26.0755L65.4982 23.2646L62.6626 24.6385H59.5413L55.4048 27.1217Z" fill="#8BAA1A"/>
<path d="M53.4696 29.0483C53.4696 29.0483 52.9858 24.7056 57.039 18.9811L54.8617 19.5456L55.2147 20.2286L53.3427 21.5275L53.7393 22.5934L52.6328 24.0147L53.4696 29.0483Z" fill="#8BAA1A"/>
<path d="M51.9546 28.4403C51.9546 28.4403 42.2062 20.6116 36.1739 27.2559L35.813 25.1082H37.2804L38.4186 22.7632L40.132 24.0107L40.8974 23.2646L42.2974 24.0305H46.4022L48.0163 25.6096L51.9546 28.4403Z" fill="#8BAA1A"/>
<path d="M53.2358 30.2247C53.2358 30.2247 49.2698 32.7632 47.9332 36.5414L46.5372 35.8031L47.4851 37.6823L47.2233 38.539L45.7678 39.4905L46.9576 39.7392C46.9576 39.7392 46.6919 43.087 46.9576 44.4767L45.7678 42.0764L46.2992 40.892L44.3916 38.9931L46.0375 37.3586V34.8912C46.0375 34.8912 51.5938 30.5445 53.2358 30.2247Z" fill="#8BAA1A"/>
<path d="M32.5567 52.8739C32.5567 52.8739 27.4009 55.4874 23.8989 62.5621C26.6083 61.6424 29.4352 61.1107 32.2949 60.9829V59.1906L33.6473 60.9632C34.3929 60.9632 35.1623 60.9869 35.9436 61.054L36.5822 60.1341L36.8082 61.1369C40.1013 61.4831 43.2659 62.5977 46.045 64.39C46.7232 63.5649 47.5005 62.5818 47.5005 62.5818V65.4441L47.8971 65.7678L49.2971 64.3742V67.0667C51.4665 69.2617 53.4019 72.1989 54.9011 76.0758C54.909 76.06 59.6404 44.0661 32.5567 52.8739Z" fill="#456206"/>
<path d="M32.557 52.8739C32.557 52.8739 29.297 54.5241 26.2114 58.7484C28.7196 57.9762 31.315 57.52 33.9372 57.3903L35.2896 57.3548C36.0352 57.3548 36.8046 57.3824 37.5859 57.4456L38.4505 57.5285C41.7407 57.8737 44.9034 58.9839 47.6833 60.7697L49.1388 61.8238C49.2737 61.9304 49.4085 62.037 49.5354 62.1515L50.9354 63.4464C52.6587 65.2199 54.098 67.2465 55.2028 69.4552C54.9014 60.6079 51.5581 46.6954 32.557 52.8739Z" fill="#639518"/>
<path d="M13.3457 59.2616L14.6306 57.5759L16.2607 59.0563C18.7315 59.2182 21.6187 60.2052 24.9858 62.4002C24.9858 62.4002 12.021 44.8991 2.22898 56.9008C0.72984 58.7405 -2.1336 63.1306 2.7287 73.0872C3.14127 71.2232 3.75011 69.4076 4.54512 67.6707V67.6707L3.77969 65.6217L5.16778 66.4113C5.25503 66.2455 5.34625 66.0797 5.43747 65.9139L5.14399 64.4255H6.34568C7.68222 62.4752 9.45502 60.7066 11.7632 59.7591L12.485 57.5759L13.3457 59.2616Z" fill="#639518"/>
<path d="M4.52921 67.6707L3.76378 65.6217L5.15187 66.4113C5.23912 66.2455 5.33034 66.0797 5.42156 65.9139L5.12808 64.4255H6.34563C7.68217 62.4752 9.45497 60.7066 11.7632 59.7591L12.485 57.5759L13.3456 59.2616L14.6306 57.5759L16.2606 59.0564C18.7314 59.2182 21.6187 60.2052 24.9858 62.4002L24.732 62.0726C20.8255 58.8234 9.00681 50.4065 2.6652 61.5278C1.73319 63.1661 0.218181 66.5456 2.88729 72.4003C3.30037 70.7761 3.85506 69.191 4.54508 67.6628L4.52921 67.6707Z" fill="#456206"/>
<path d="M23.3994 83.9006L21.813 84.4296L22.6062 82.6688C22.5031 82.503 22.4039 82.3293 22.3048 82.1556L20.7382 82.4714L21.8645 81.3502C20.6274 79.0437 19.9126 76.4955 19.7705 73.8847H18.3983L19.7864 72.5029C19.7864 72.1713 19.8379 71.8357 19.8776 71.4962L18.3983 69.6446L20.1076 70.1421C20.7104 67.3785 22.1739 64.4255 24.9699 61.4567C24.9699 61.4567 1.44365 68.8669 16.4827 84.3546C16.4827 84.3546 19.9926 86.9997 26.0011 87.0234C25.0356 86.0675 24.1644 85.0218 23.3994 83.9006V83.9006Z" fill="#598911"/>
<path d="M16.4826 84.3467C17.3769 84.9577 18.3458 85.4525 19.3659 85.8193C18.9502 85.0674 18.5755 84.2939 18.2435 83.5019L16.5937 83.7032L17.7081 82.124L17.5177 81.5595H15.9313L17.2599 80.687C16.5194 78.1781 16.3407 75.5381 16.7364 72.953L15.384 72.6727L17.022 71.5989C17.1092 71.2791 17.2084 70.9593 17.3155 70.6356L16.2447 68.5235L17.831 69.3525C18.9851 66.7588 21.0038 64.1729 24.3591 61.8239C24.3591 61.8239 24.1211 61.8515 23.7086 61.9107C18.9653 63.7662 3.62091 71.1015 16.4826 84.3467Z" fill="#639518"/>
<path d="M41.7777 82.2938L39.5647 81.6187L41.5794 80.3514C41.5477 80.1303 41.516 79.9053 41.4803 79.6763L39.5647 78.7051L41.2542 78.3893C40.6923 75.321 39.5583 72.3845 37.9109 69.7315H35.218L36.4078 67.7339C36.2809 67.5799 36.146 67.4299 36.0112 67.2799L33.7863 67.6747L34.6231 65.9218C32.1364 63.7662 28.7931 62.1634 24.3115 61.6936C23.886 64.0138 23.8231 66.3855 24.1251 68.7248L24.9858 68.1208L24.3552 70.0947C24.4424 70.5487 24.5455 71.0107 24.6685 71.4805H26.0209L25.0373 72.7122C26.1214 76.0293 28.2175 78.9273 31.0339 81.0028L32.7829 79.2657L32.8781 82.2069C33.1914 82.3885 33.5166 82.5583 33.8537 82.7281L35.2973 81.6187L35.4996 83.4979C37.5428 84.3047 39.6717 84.8769 41.8452 85.2034C41.8779 84.233 41.8554 83.2616 41.7777 82.2938V82.2938Z" fill="#639518"/>
<path d="M24.1253 68.7366L24.9859 68.1207L24.3553 70.0947C24.4425 70.5487 24.5456 71.0106 24.6686 71.4804H26.021L25.0374 72.7122C26.1215 76.0292 28.2176 78.9273 31.034 81.0028L32.783 79.2657L32.8782 82.2069C33.1915 82.3885 33.5167 82.5583 33.8538 82.728L34.0283 82.5938L33.9411 82.503L34.1156 82.5267L35.3054 81.6068L35.4244 82.7122L35.6266 82.7399C36.0737 79.6536 35.9392 76.5114 35.23 73.4741L32.6878 72.6135L34.4686 71.1054C34.3972 70.9159 34.3179 70.7343 34.2346 70.5487L31.9977 70.2447L33.3541 68.8511C31.7677 66.1744 29.3286 63.7188 25.6125 61.883C25.3626 61.7172 25.1445 61.4172 24.97 61.4527C24.7955 61.4883 24.4782 61.7291 24.3117 61.7093C24.1649 61.9699 24.1491 62.7003 24.0816 63.2451C23.8843 65.0712 23.899 66.9138 24.1253 68.7366V68.7366Z" fill="#598911"/>
<path d="M39.4814 45.1755C41.0781 44.431 42.7286 43.8068 44.419 43.3081C39.9237 42.6381 35.3466 42.7329 30.8831 43.5884C13.6787 48.697 24.4939 62.4397 24.4939 62.4397C25.1681 56.7587 28.4916 52.5699 32.2355 49.5735L31.8112 47.8877L33.001 48.9655L33.2469 48.7839L33.1993 47.9667L34.0163 48.2391C35.4792 47.2452 37.0128 46.3586 38.6049 45.5861L38.5811 44.5399L39.4814 45.1755Z" fill="#598911"/>
<path d="M24.046 61.8317C23.7922 56.4863 26.0687 51.962 28.9559 48.4286L28.1865 46.8691L29.5984 47.6587L29.8007 47.4258L29.5825 46.6362L30.4392 46.7349C31.6582 45.4558 32.9705 44.2682 34.3655 43.1818L34.3378 43.0634C33.1741 43.1717 32.017 43.3417 30.8715 43.5726C15.8325 48.0535 22.2098 59.1195 24.046 61.8317Z" fill="#639518"/>
<path d="M24.9858 61.4488L27.0442 64.39L26.4453 67.2088L29.9314 67.493L27.8533 69.5578L30.7524 70.904V73.8255L32.9971 76.06L35.8844 80.1145L35.2379 73.482L32.6878 72.6135L34.4685 71.1054L34.2345 70.5487L31.9977 70.2447L33.3541 68.8511C33.3541 68.8511 31.8906 63.9636 24.9858 61.4488Z" fill="#8BAA1A"/>
<path d="M26.2075 58.7524C26.2075 58.7524 37.6335 54.5084 47.6834 60.7855C47.6834 60.7855 51.6493 63.707 53.1445 66.0757L51.8635 61.4488L50.2573 61.7054V57.9667L47.0567 58.4405V56.964L43.8522 57.5759L37.5621 54.3939L34.3656 55.973H30.8557L26.2075 58.7524Z" fill="#8BAA1A"/>
<path d="M24.0303 60.9198C24.0303 60.9198 23.483 56.0323 28.0598 49.5893L25.6128 50.2288L26.0094 51.0184L23.9034 52.4752L24.3317 53.6596L23.0864 55.2387L24.0303 60.9198Z" fill="#8BAA1A"/>
<path d="M22.3125 60.2368C22.3125 60.2368 11.3426 51.425 4.55676 58.9063L4.16016 56.4902H5.82191L7.09895 53.853L9.01453 55.2427L9.88308 54.382L11.4695 55.2427H16.078L17.8944 57.0311L22.3125 60.2368Z" fill="#8BAA1A"/>
<path d="M23.7645 62.2423C23.7645 62.2423 19.2869 65.0966 17.8155 69.3486L16.2291 68.5195L17.3 70.6316L17.0065 71.5949L15.3685 72.6687L16.7209 72.9491C16.7209 72.9491 16.4195 76.7114 16.7209 78.2629L15.3685 75.5586L15.9634 74.2203L13.8218 72.0884L15.6699 70.2447V67.4812C15.6699 67.4812 21.9203 62.6055 23.7645 62.2423Z" fill="#8BAA1A"/>
</g>
<path fill-rule="evenodd" clip-rule="evenodd" d="M134.355 127.188L143.904 132.524C144.443 132.825 145.348 132.886 146.42 132.692L165.39 129.259C166.462 129.065 167.612 128.633 168.588 128.057L185.863 117.867C186.839 117.292 187.561 116.62 187.87 116L193.334 105.02C193.643 104.399 193.513 103.882 192.974 103.58L183.426 98.2444C182.887 97.9429 181.981 97.8825 180.91 98.0764L161.94 101.509C160.868 101.703 159.718 102.135 158.742 102.711L141.466 112.901C140.489 113.477 139.768 114.149 139.459 114.769L133.994 125.749C133.685 126.369 133.815 126.887 134.355 127.188Z" fill="#333333" fill-opacity="0.13"/>
<path fill-rule="evenodd" clip-rule="evenodd" d="M146.853 16.9311L132.033 40.3594C131.195 41.6829 130.725 43.0881 130.725 44.2659V65.1162C130.725 66.294 131.196 67.1479 132.033 67.49C132.033 67.49 139.163 71.7402 141.37 72.6418C144.103 73.7585 146.853 73.5451 146.853 73.5451C147.691 73.8872 148.826 73.6895 150.011 72.9954L170.973 60.7098C172.157 60.0158 173.293 58.8823 174.13 57.5586L188.951 34.1319C189.788 32.8083 190.259 31.403 190.259 30.2251L195.989 16.5516C195.989 16.2074 198.488 12.6215 198.41 12.3373C198.221 11.649 189.544 7.24322 188.951 7.00106L174.13 0.944686C173.293 0.6025 172.157 0.800186 170.973 1.49425L150.011 13.7798C148.826 14.4738 147.691 15.6074 146.853 16.9311Z" fill="#C10000"/>
<path fill-rule="evenodd" clip-rule="evenodd" d="M155.783 21.9543L140.962 45.3825C140.125 46.7061 139.655 48.1113 139.655 49.289V70.1393C139.655 71.3172 140.125 72.1711 140.963 72.5132L155.783 78.5682C156.62 78.9103 157.756 78.7126 158.94 78.0186L179.903 65.7329C181.087 65.0389 182.223 63.9054 183.06 62.5818L197.88 39.155C198.718 37.8314 199.188 36.4261 199.188 35.2483V14.398C199.188 13.2202 198.718 12.3663 197.881 12.0242L183.06 5.96782C182.223 5.62563 181.087 5.82332 179.903 6.51738L158.94 18.8029C157.756 19.497 156.62 20.6306 155.783 21.9543Z" fill="#E40D0D"/>
<path fill-rule="evenodd" clip-rule="evenodd" d="M169.859 63.2225C180.055 57.5657 182.475 47.4175 182.475 47.4175L188.326 28.3393C188.326 28.3393 188.855 26.4027 188.758 26.4382C183.308 28.503 182.15 32.7614 182.15 32.7614C182.15 32.7614 180.055 39.0453 179.73 39.2256C179.406 39.4058 179.367 39.0484 179.367 39.0484V20.6468C179.367 20.6468 179.469 18.2165 176.88 19.6529C174.291 21.0893 174.422 23.395 174.422 23.395L174.426 36.987C174.426 36.987 174.46 37.516 173.976 37.7849C173.544 38.0243 173.568 37.4814 173.568 37.4814V21.102C173.568 21.102 173.728 18.3382 171.11 19.7907C168.492 21.2432 168.633 23.8586 168.633 23.8586L168.609 40.0322C168.609 40.0322 168.643 40.511 168.211 40.7504C167.809 40.9737 167.823 40.4726 167.823 40.4726V26.9236C167.823 26.9236 167.969 24.0856 165.302 25.565C162.684 27.0176 162.825 29.747 162.825 29.747L162.8 44.0673C162.8 44.0673 162.849 44.4558 162.437 44.6844C162 44.9265 162.01 44.5057 162.01 44.5057L161.991 35.8658C161.991 35.8658 162.015 33.4602 159.814 34.6814C157.472 35.9807 157.516 38.3485 157.516 38.3485V57.0195C157.53 57.0069 156.924 70.3991 169.859 63.2225Z" fill="white"/>
<path d="M248.5 119.402C248.5 117.416 241.896 115.805 233.75 115.805C225.604 115.805 219 117.416 219 119.402C219 121.389 225.604 123 233.75 123C241.896 123 248.5 121.389 248.5 119.402Z" fill="#E2CEA9"/>
<g clip-path="url(#clip1)">
<path d="M251.41 64.211C251.377 64.1471 251.328 64.0935 251.266 64.0562C251.205 64.0189 251.135 63.9994 251.063 63.9999C250.079 63.8656 248.171 66.3983 245.279 71.809C242.028 78.3953 239.42 85.2765 237.49 92.3583C235.278 99.3278 234.09 106.579 233.961 113.886C233.953 115.53 234.069 117.172 234.308 118.798L235.022 118.587C234.804 117.055 234.707 115.509 234.733 113.963C234.733 111.776 234.945 109.454 235.234 106.998C235.504 105.079 235.87 103.045 236.294 100.935C236.853 98.2679 237.625 95.4474 238.473 92.4351C238.597 92.0457 238.693 91.6482 238.762 91.2455C238.968 90.5291 239.18 89.8896 239.398 89.3268C240.324 86.2952 241.23 83.4172 242.232 80.731C242.927 78.985 243.64 77.2965 244.353 75.7424C244.7 74.8982 245.047 74.0539 245.414 73.344C245.78 72.6341 245.838 72.3655 246.108 71.8666C248.865 66.5326 250.561 63.9232 251.41 64.1918V64.211Z" fill="#4743AF"/>
<path d="M252.818 74.2074V73.5935C252.818 72.9603 252.818 72.4614 252.818 71.905C252.213 73.4574 251.403 74.9222 250.408 76.2604C248.48 78.7931 246.552 81.2682 244.469 83.7242C242.877 85.5746 241.804 87.8101 241.357 90.2052C240.91 92.6003 241.106 95.0703 241.924 97.3661C243.197 101.088 244.411 104.753 245.78 108.418C245.992 109.185 246.205 109.895 246.339 110.586C246.325 110.553 246.318 110.517 246.318 110.48C246.318 110.444 246.325 110.408 246.339 110.375C246.764 109.051 247.188 107.574 247.612 106.019C246.609 103.199 245.684 100.455 244.778 97.7115C243.952 95.4072 243.753 92.9269 244.2 90.5213C244.647 88.1157 245.724 85.8702 247.323 84.012C249.251 81.7479 251.063 79.4263 252.837 77.1047C252.818 76.0302 252.818 75.1092 252.818 74.2074Z" fill="#AFF1D7"/>
<path d="M251.41 64.211C250.562 64 248.865 66.6094 246.108 71.8858C245.838 72.3847 245.684 72.8835 245.414 73.3632C245.144 73.8429 244.701 74.9174 244.354 75.7616C243.64 77.3157 242.927 79.0042 242.233 80.7502C241.23 83.4364 240.305 86.3144 239.399 89.346C239.193 89.896 238.981 90.5356 238.762 91.2647C238.694 91.6674 238.597 92.0649 238.473 92.4543C237.625 95.4666 236.854 98.2104 236.295 100.954C235.87 103.065 235.504 105.041 235.234 107.017C234.945 109.473 234.81 111.795 234.733 113.982C234.708 115.529 234.805 117.075 235.022 118.606C237.754 118.15 240.529 118.009 243.293 118.184C243.298 118.103 243.319 118.024 243.355 117.951C243.392 117.879 243.443 117.814 243.505 117.762C243.717 117.071 244.064 116.361 244.354 115.517C244.836 114.327 245.337 112.927 245.838 111.449C245.991 111.131 246.108 110.796 246.185 110.452C246.05 109.761 245.838 109.051 245.626 108.284C244.354 104.619 243.139 100.954 241.77 97.2318C240.952 94.936 240.756 92.466 241.203 90.0709C241.649 87.6758 242.723 85.4403 244.315 83.5899C246.474 81.2682 248.441 78.6972 250.35 76.1645C251.345 74.8262 252.155 73.3614 252.76 71.8091C252.548 67.0315 252.123 64.4221 251.41 64.211ZM250.986 70.4852C250.997 71.0851 250.878 71.6805 250.639 72.2312C250.407 72.7909 250.096 73.3144 249.713 73.7853C249.289 74.1307 249.019 74.265 248.653 74.2074C248.5 74.0934 248.38 73.941 248.305 73.7657C248.231 73.5904 248.204 73.3985 248.229 73.2097C248.165 72.5874 248.264 71.9593 248.518 71.3869C248.735 70.8432 249.048 70.3427 249.443 69.9095C249.868 69.4874 250.138 69.3531 250.427 69.4874C250.716 69.6217 250.928 69.9095 250.986 70.4852ZM238.28 106.557C238.647 105.578 239.071 105.079 239.707 105.003C240.343 104.926 240.825 105.367 241.327 106.269C241.884 107.291 242.2 108.426 242.252 109.588C242.356 110.746 242.232 111.913 241.886 113.023C241.539 114.02 241.115 114.443 240.478 114.5C239.842 114.558 239.341 114.155 238.782 113.311C238.287 112.248 237.999 111.102 237.933 109.934C237.79 108.796 237.909 107.642 238.28 106.557Z" fill="#9A85F1"/>
<path d="M250.639 72.2312C250.878 71.6805 250.997 71.0851 250.986 70.4851C250.986 69.9095 250.774 69.5642 250.427 69.4874C250.08 69.4107 249.868 69.4874 249.443 69.9095C249.048 70.3427 248.735 70.8432 248.518 71.3869C248.264 71.9593 248.165 72.5874 248.229 73.2097C248.204 73.3985 248.231 73.5903 248.305 73.7656C248.38 73.9409 248.5 74.0934 248.653 74.2074C249.019 74.2074 249.289 74.2074 249.713 73.7853C250.096 73.3144 250.407 72.7909 250.639 72.2312V72.2312Z" fill="#AFF1D7"/>
<path d="M239.687 105.003C239.051 105.003 238.627 105.578 238.26 106.557C237.889 107.642 237.77 108.796 237.913 109.934C237.979 111.102 238.267 112.248 238.762 113.311C239.321 114.155 239.822 114.577 240.458 114.5C241.095 114.423 241.519 114.02 241.866 113.023C242.212 111.913 242.336 110.746 242.232 109.588C242.189 108.407 241.872 107.251 241.307 106.211C240.805 105.367 240.208 105.003 239.687 105.003Z" fill="#AFF1D7"/>
<path d="M250.773 84.6068C251.352 83.9736 251.776 83.4172 252.335 82.6881C252.47 81.2107 252.547 79.8676 252.682 78.5437C252.682 77.9681 252.682 77.4884 252.682 76.9128C250.908 79.2344 249.077 81.556 247.168 83.8201C245.569 85.6784 244.492 87.9238 244.045 90.3294C243.598 92.735 243.798 95.2153 244.623 97.5196C245.606 100.263 246.455 103.007 247.457 105.828C247.881 104.216 248.363 102.451 248.865 100.685V100.455C248.67 99.7127 248.432 98.9824 248.151 98.2679C247.333 95.9638 247.145 93.4847 247.606 91.0844C248.067 88.6841 249.16 86.4487 250.773 84.6068V84.6068Z" fill="#9A85F1"/>
<path d="M252.335 82.784C251.776 83.4172 251.352 83.9736 250.773 84.7027C249.176 86.5502 248.099 88.7858 247.652 91.1821C247.205 93.5784 247.404 96.0497 248.228 98.3446C248.506 99.034 248.744 99.7387 248.942 100.455L249.366 98.7668C249.482 98.3948 249.579 98.0169 249.655 97.6347C249.8 97.1755 249.916 96.7077 250.002 96.2341C249.307 92.7854 249.999 89.203 251.93 86.2568C252.142 85.2016 252.219 84.2038 252.354 83.2253C252.388 83.0792 252.381 82.9266 252.335 82.784V82.784Z" fill="#AFF1D7"/>
<path d="M251.41 89.4035C251.564 88.3482 251.776 87.293 251.834 86.2377C249.903 89.1839 249.211 92.7662 249.906 96.2149C250.562 93.8357 250.986 91.5717 251.41 89.4035Z" fill="#9A85F1"/>
<path d="M222.085 73.1521C222.531 70.8404 223.124 68.559 223.859 66.3216C224.283 64.9977 224.784 64.2877 225.131 64.2877H225.266C225.209 64.2182 225.129 64.172 225.04 64.1578C224.951 64.1437 224.86 64.1626 224.784 64.211C224.437 64.211 224.071 64.5756 223.724 65.2663C222.565 67.7943 221.755 70.4662 221.314 73.2097C220.928 75.1092 220.523 77.2198 220.253 79.3495C219.585 83.9392 219.205 88.5658 219.116 93.2025C219.154 93.7903 219.154 94.38 219.116 94.9677C218.989 98.718 219.086 102.472 219.405 106.211C219.696 109.758 220.341 113.268 221.333 116.687C221.68 117.954 222.027 119.086 222.393 120.064L223.087 119.853C222.856 118.932 222.432 117.724 222.085 116.534C221.502 114.318 221.051 112.069 220.735 109.799V109.646C220.523 107.727 220.311 105.712 220.176 103.679C220.041 101.645 219.964 99.2464 219.964 96.7713C219.926 96.1323 219.926 95.4916 219.964 94.8526V93.6055C219.975 92.964 220.02 92.3235 220.099 91.6868C220.099 88.5209 220.388 85.5661 220.6 82.7456C220.572 82.6322 220.572 82.5137 220.6 82.4003C220.812 80.6351 220.967 78.9466 221.236 77.3349C221.236 76.4139 221.526 75.5697 221.661 74.8022C221.842 74.263 221.983 73.7116 222.085 73.1521Z" fill="#5B6D1B"/>
<path d="M223.859 66.3216C223.124 68.559 222.531 70.8404 222.085 73.1521C222.026 73.6954 221.929 74.2339 221.796 74.7638C221.661 75.5313 221.449 76.3755 221.371 77.2965C221.102 78.9082 220.928 80.5967 220.735 82.3619C220.707 82.4753 220.707 82.5938 220.735 82.7073V82.7073L227.387 118.856C227.957 118.61 228.552 118.423 229.161 118.299L223.859 66.3216Z" fill="#9FD133"/>
<path d="M225.266 64.3645C225.266 64.3645 225.266 64.3645 225.131 64.3645C224.765 64.3645 224.283 65.0744 223.858 66.3983L229.16 118.299C229.629 118.261 230.099 118.261 230.568 118.299L229.507 75.1092C229.372 74.5528 229.16 74.0539 229.083 73.6318C227.387 67.8373 226.191 64.6331 225.266 64.3645Z" fill="#E59D48"/>
<path d="M220.677 82.7073C220.465 85.5278 220.253 88.4634 220.176 91.6484C220.097 92.2852 220.052 92.9256 220.041 93.5671V94.8143C220.003 95.4533 220.003 96.0939 220.041 96.733L225.825 119.393C226.278 119.252 226.722 119.085 227.155 118.894C227.31 118.894 227.367 118.894 227.444 118.894L220.735 82.7073H220.677Z" fill="#E59D48"/>
<path d="M219.964 96.7713C219.964 99.2464 219.964 101.491 220.176 103.679C220.388 105.866 220.523 107.689 220.735 109.646V109.799L224.784 119.642C225.104 119.636 225.419 119.564 225.709 119.431L219.964 96.7713Z" fill="#9FD133"/>
<path d="M220.812 109.799C221.128 112.069 221.579 114.318 222.162 116.534C222.509 117.8 222.875 118.932 223.145 119.911C223.526 119.758 223.93 119.668 224.34 119.642C224.487 119.62 224.637 119.62 224.784 119.642L220.812 109.799Z" fill="#E59D48"/>
<path d="M231.629 88.5593C231.474 86.4487 231.262 84.3381 230.915 82.3619C230.737 80.872 230.479 79.3925 230.144 77.9297C229.855 76.9511 229.72 76.011 229.508 75.1092L230.568 118.222C230.838 118.222 231.127 118.222 231.417 118.222C231.396 118.128 231.396 118.029 231.417 117.935C231.417 117.244 231.571 116.457 231.706 115.632C231.918 113.944 231.995 112.102 232.13 110.068C232.13 107.19 232.265 103.87 232.13 100.071V98.1528C232.168 97.7315 232.168 97.3077 232.13 96.8864C232.053 94.0276 231.899 91.2263 231.629 88.5593Z" fill="#9FD133"/>
</g>
<defs>
<clipPath id="clip0">
<rect width="120.935" height="111.26" fill="white" transform="translate(0 13)"/>
</clipPath>
<clipPath id="clip1">
<rect width="33.8171" height="56.1219" fill="white" transform="translate(219 64)"/>
</clipPath>
</defs>
</svg>
