<svg xmlns="http://www.w3.org/2000/svg" xmlns:xlink="http://www.w3.org/1999/xlink" width="260" height="69" viewBox="0 0 260 69">
    <defs>
        <filter id="a" width="111.3%" height="2686.2%" x="-5.7%" y="-1293.1%" filterUnits="objectBoundingBox">
            <feGaussianBlur in="SourceGraphic" stdDeviation="2.105"/>
        </filter>
        <path id="b" d="M22.477 7.106c.594 1.396.923 2.93.923 4.54 0 6.433-5.239 11.648-11.7 11.648-.22 0-.439-.006-.655-.018l4.762-8.21a5.294 5.294 0 0 0 1.247-3.42c0-1.919-1.02-3.601-2.549-4.54h7.972zM1.88 5.314l4.922 8.488a5.356 5.356 0 0 0 4.899 3.175c.868 0 1.688-.206 2.414-.571l-3.939 6.79C4.434 22.452 0 17.565 0 11.646c0-2.334.69-4.51 1.88-6.332zM11.7 7.5c2.3 0 4.165 1.856 4.165 4.146S14 15.792 11.7 15.792s-4.165-1.856-4.165-4.145C7.535 9.357 9.4 7.5 11.7 7.5zM11.7 0c4.533 0 8.463 2.565 10.406 6.316H11.5v.005h-.022c-2.786.113-5.024 2.345-5.13 5.121l-3.966-6.84A11.7 11.7 0 0 1 11.7 0z"/>
        <filter id="d" width="111.3%" height="2686.2%" x="-5.7%" y="-1293.1%" filterUnits="objectBoundingBox">
            <feGaussianBlur in="SourceGraphic" stdDeviation="2.105"/>
        </filter>
    </defs>
    <g fill="none" fill-rule="evenodd">
        <g transform="translate(2)">
            <rect width="111.647" height="1" x=".655" y="64.941" fill="#000" fill-opacity=".25" filter="url(#a)" rx=".5"/>
            <rect width="113.284" height="2.441" y="62.5" fill="#A9ABAE" rx="1.221"/>
            <path fill="#E6E7E8" d="M0 59.082h113.284v4.883H0z"/>
            <rect width="3.929" height="1" x="104.116" y="60.547" fill="#C0C0C0" rx=".5"/>
            <path fill="#373435" d="M19.72 0c-4.652 0-8.424 3.763-8.424 8.418v50.664h90.2V8.418A8.414 8.414 0 0 0 93.073 0H19.72z"/>
            <path fill="#FFF" d="M14.733 3.744h83.98v52.734h-83.98z"/>
            <g fill="#C6C6C6" transform="translate(25.409 36.037)">
                <rect width="54.448" height="4.231" x="8.092" y=".348" rx="2.115"/>
                <ellipse cx="2.552" cy="2.538" rx="2.552" ry="2.538"/>
                <rect width="54.448" height="4.231" x="8.092" y=".348" rx="2.115"/>
                <ellipse cx="2.552" cy="2.538" rx="2.552" ry="2.538"/>
            </g>
            <g fill="#C6C6C6" transform="translate(25.409 44.499)">
                <rect width="54.448" height="4.231" x="8.092" y=".348" rx="2.115"/>
                <ellipse cx="2.552" cy="2.538" rx="2.552" ry="2.538"/>
                <rect width="54.448" height="4.231" x="8.092" y=".348" rx="2.115"/>
                <ellipse cx="2.552" cy="2.538" rx="2.552" ry="2.538"/>
            </g>
            <g transform="translate(45.262 7.02)">
                <mask id="c" fill="#fff">
                    <use xlink:href="#b"/>
                </mask>
                <use fill="#56AFEF" xlink:href="#b"/>
                <path fill="#DF412C" d="M1.763 3.512l4.684 8.992.615-2.62 1.72-2.176 2.974-.784 3.022-.172L25.875 6.6 14.361-1.417 6.431.021z" mask="url(#c)"/>
                <path fill="#FAD843" d="M13.456 6.719l1.796 1.835 1.155 1.836v1.542l-.863 2.372-5.056 9.482 2.68.147 5.817-1.954 4.102-5.059 1.373-5.083-.59-3.985-.738-1.054z" mask="url(#c)"/>
                <path fill="#58BA5A" d="M1.82 4.634l2.013 3.373 2.923 4.427 1.473 2.444 1.277.956 1.649.465 2.238-.05 1.283-.516-4.569 8.312-8.03-3.105-3.34-7.257.37-5.453z" mask="url(#c)"/>
            </g>
            <path fill="#000" d="M95.496 59.082L14.462 0v50.664c0 4.649 3.773 8.418 8.423 8.418h72.61z" opacity=".05"/>
            <ellipse cx="56.724" cy="1.872" fill="#7C7B7B" rx="1" ry="1"/>
        </g>
        <g transform="translate(145)">
            <rect width="111.647" height="1" x=".655" y="64.941" fill="#000" fill-opacity=".25" filter="url(#d)" rx=".5"/>
            <rect width="113.284" height="2.441" y="62.5" fill="#A9ABAE" rx="1.221"/>
            <path fill="#E6E7E8" d="M0 59.082h113.284v4.883H0z"/>
            <rect width="3.929" height="1" x="104.116" y="60.547" fill="#C0C0C0" rx=".5"/>
            <path fill="#373435" d="M19.72 0c-4.652 0-8.424 3.763-8.424 8.418v50.664h90.2V8.418A8.414 8.414 0 0 0 93.073 0H19.72z"/>
            <path fill="#FFF" d="M14.733 3.744h83.98v52.734h-83.98z"/>
            <g fill="#03BCFC">
                <path d="M56.875 9.267c5.546 0 10.041 4.533 10.041 10.125 0 .407-.023.808-.07 1.203l-6.056-.002h-8.17c0 2.654 1.83 4.805 4.085 4.805 1.512 0 2.832-.966 3.538-2.401h6.018c-1.44 3.812-5.1 6.52-9.386 6.52-4.717 0-8.675-3.28-9.752-7.703l3.455-6.369s-2.104 1.76-3.74 3.662c.15-5.46 4.586-9.84 10.037-9.84zm-.17 4.805c-1.85 0-3.413 1.448-3.915 3.433h7.83c-.502-1.985-2.065-3.433-3.915-3.433z"/>
                <path d="M51.695 14.53c5.5-5.524 11.68-8.276 13.8-6.146 1.24 1.244.819 3.88-.842 6.959 1.145-2.454 1.598-4.553.693-5.463-2.181-2.194-7.55.933-12.557 5.962-5.007 5.03-8.232 10.28-6.136 12.385.753.757 2.466.675 4.441.012-2.446 1.066-4.475 1.201-5.519.152-2.12-2.13.62-8.335 6.12-13.86z"/>
            </g>
            <g fill="#C6C6C6" transform="translate(26.386 36.037)">
                <rect width="54.448" height="4.231" x="8.092" y=".348" rx="2.115"/>
                <ellipse cx="2.552" cy="2.538" rx="2.552" ry="2.538"/>
                <rect width="54.448" height="4.231" x="8.092" y=".348" rx="2.115"/>
                <ellipse cx="2.552" cy="2.538" rx="2.552" ry="2.538"/>
            </g>
            <g fill="#C6C6C6" transform="translate(26.386 44.499)">
                <rect width="54.448" height="4.231" x="8.092" y=".348" rx="2.115"/>
                <ellipse cx="2.552" cy="2.538" rx="2.552" ry="2.538"/>
                <rect width="54.448" height="4.231" x="8.092" y=".348" rx="2.115"/>
                <ellipse cx="2.552" cy="2.538" rx="2.552" ry="2.538"/>
            </g>
            <path fill="#000" d="M95.496 59.082L14.462 0v50.664c0 4.649 3.773 8.418 8.423 8.418h72.61z" opacity=".05"/>
            <ellipse cx="56.724" cy="1.872" fill="#7C7B7B" rx="1" ry="1"/>
        </g>
        <path fill="#C6C6C6" fill-rule="nonzero" d="M123.534 22.5l-6.034 5 6.034 5v-4.167H142.5v-1.666h-18.966zM137 42l6-5-6-5v4.167h-18v1.666h18z"/>
    </g>
</svg>
