<?xml version="1.0" encoding="UTF-8"?>
<svg width="500px" height="167px" viewBox="0 0 500 167" version="1.1" xmlns="http://www.w3.org/2000/svg" xmlns:xlink="http://www.w3.org/1999/xlink">
    <!-- Generator: Sketch 59.1 (86144) - https://sketch.com -->
    <title>illustration</title>
    <desc>Created with Sketch.</desc>
    <defs>
        <filter x="-5.1%" y="-1170.9%" width="110.3%" height="2441.7%" filterUnits="objectBoundingBox" id="filter-1">
            <feGaussianBlur stdDeviation="4.5123913" in="SourceGraphic"></feGaussianBlur>
        </filter>
        <filter x="-5.7%" y="-1296.3%" width="111.3%" height="2692.6%" filterUnits="objectBoundingBox" id="filter-2">
            <feGaussianBlur stdDeviation="2.25619565" in="SourceGraphic"></feGaussianBlur>
        </filter>
        <filter x="-5.7%" y="-1296.3%" width="111.3%" height="2692.6%" filterUnits="objectBoundingBox" id="filter-3">
            <feGaussianBlur stdDeviation="2.25619565" in="SourceGraphic"></feGaussianBlur>
        </filter>
    </defs>
    <g id="Process-Boards" stroke="none" stroke-width="1" fill="none" fill-rule="evenodd">
        <g id="Sync-unlocked-view-Copy" transform="translate(-782.000000, -230.000000)">
            <g id="top-info" transform="translate(334.000000, 187.000000)">
                <g id="illustration" transform="translate(453.000000, 43.000000)">
                    <g id="arrow" transform="translate(151.917174, 64.677609)" fill="#E6E6E6">
                        <text id="…………….………….." font-family="HelveticaNeue-Medium, Helvetica Neue" font-size="18.0495652" font-weight="400">
                            <tspan x="0" y="18">…………….…………..</tspan>
                        </text>
                        <polygon id="Triangle" transform="translate(183.503913, 16.545435) rotate(-270.000000) translate(-183.503913, -16.545435) " points="183.503913 12.0330435 189.520435 21.0578261 177.487391 21.0578261"></polygon>
                    </g>
                    <g id="list" transform="translate(0.000000, 1.504130)">
                        <g id="MACBOOK">
                            <g>
                                <rect id="shadow" fill-opacity="0.25" fill="#000000" filter="url(#filter-1)" x="1.54760241" y="153.769275" width="263.866211" height="1.15615996" rx="0.578079981"></rect>
                                <rect id="base" fill="#A9ABAE" x="0" y="147.988475" width="267.735217" height="5.78079981" rx="2.8903999"></rect>
                                <rect id="shape" fill="#E6E7E8" x="0" y="139.895355" width="267.735217" height="11.5615996"></rect>
                                <rect id="light" fill="#C0C0C0" x="246.068784" y="143.363835" width="9.28561448" height="1.92693327" rx="0.963466634"></rect>
                                <path d="M44.7455416,0 C34.7771332,0 26.6961416,8.07487263 26.6961416,18.0560428 L26.6961416,139.895355 L239.878374,139.895355 L239.878374,18.0560428 C239.878374,8.08396571 231.797842,0 221.828974,0 L44.7455416,0 Z" id="screen" fill="#373435"></path>
                                <g id="display-2" transform="translate(34.589395, 8.606969)">
                                    <rect id="display" fill="#FFFFFF" x="0.23165974" y="0.256924436" width="198.480009" height="124.865276"></rect>
                                    <g id="Group" transform="translate(67.685870, 16.545435)" fill="#05BCFC">
                                        <rect id="Rectangle" x="30.0826087" y="3.00826087" width="79.033179" height="8.45591276" rx="4.22795638"></rect>
                                        <circle id="Oval" cx="8.27271739" cy="8.27271739" r="8.27271739"></circle>
                                    </g>
                                    <g id="Group-Copy" transform="translate(67.685870, 40.611522)" fill="#05BCFC">
                                        <rect id="Rectangle" x="30.0826087" y="3.00826087" width="79.033179" height="8.45591276" rx="4.22795638"></rect>
                                        <circle id="Oval" cx="8.27271739" cy="8.27271739" r="8.27271739"></circle>
                                    </g>
                                    <g id="Group-Copy-2" transform="translate(67.685870, 64.677609)" fill="#05BCFC">
                                        <rect id="Rectangle" x="30.0826087" y="3.00826087" width="79.033179" height="8.45591276" rx="4.22795638"></rect>
                                        <circle id="Oval" cx="8.27271739" cy="8.27271739" r="8.27271739"></circle>
                                    </g>
                                    <g id="Group-Copy-3" transform="translate(67.685870, 88.743696)" fill="#D8D8D8">
                                        <rect id="Rectangle" x="30.0826087" y="3.00826087" width="79.033179" height="8.45591276" rx="4.22795638"></rect>
                                        <circle id="Oval" cx="8.27271739" cy="8.27271739" r="8.27271739"></circle>
                                    </g>
                                    <path d="M30.0826087,35.6688209 C31.0211908,35.6688209 31.8995942,35.4281624 32.7178452,34.9468383 C33.5360963,34.4655141 34.1858741,33.8217527 34.6671983,33.0155348 C35.1485224,32.2093168 35.3891809,31.3369299 35.3891809,30.3983478 C35.3891809,29.4597657 35.1485224,28.5813624 34.6671983,27.7631113 C34.1858741,26.9448603 33.5360963,26.2950824 32.7178452,25.8137583 C31.8995942,25.3324341 31.0211908,25.0917757 30.0826087,25.0917757 C29.1440266,25.0917757 28.2716397,25.3324341 27.4654217,25.8137583 C26.6592038,26.2950824 26.0154424,26.9448603 25.5341183,27.7631113 C25.0527941,28.5813624 24.8121357,29.4597657 24.8121357,30.3983478 C24.8121357,31.3369299 25.0527941,32.2093168 25.5341183,33.0155348 C26.0154424,33.8217527 26.6592038,34.4655141 27.4654217,34.9468383 C28.2716397,35.4281624 29.1440266,35.6688209 30.0826087,35.6688209 Z M41.3094383,31.8784122 L44.4500626,34.333153 C44.5944599,34.4534841 44.6786903,34.6099121 44.7027565,34.8024417 C44.7268227,34.9949714 44.690724,35.1754652 44.5944591,35.3439287 L41.5621322,40.5422035 C41.4658673,40.7106669 41.3395217,40.8189632 41.1830913,40.8670957 C41.026661,40.9152281 40.8521836,40.9031951 40.6596539,40.8309965 L36.9414435,39.3509322 C35.9787952,40.0488522 35.1244576,40.542202 34.3784052,40.8309965 L33.8369183,44.7658017 C33.7887858,44.9583314 33.6985389,45.1147594 33.5661748,45.2350904 C33.4338106,45.3554215 33.2833991,45.4155861 33.1149357,45.4155861 L27.0502817,45.4155861 C26.8818183,45.4155861 26.7314067,45.3554215 26.5990426,45.2350904 C26.4666785,45.1147594 26.3884645,44.9583314 26.3643983,44.7658017 L25.7868122,40.8309965 C24.7760315,40.421871 23.9337268,39.9285211 23.259873,39.3509322 L19.5055635,40.8309965 C19.1205042,40.99946 18.8196811,40.9031966 18.6030852,40.5422035 L15.5707583,35.3439287 C15.4744934,35.1754652 15.4383947,34.9949714 15.4624609,34.8024417 C15.4865271,34.6099121 15.5707575,34.4534841 15.7151548,34.333153 L18.8918783,31.8784122 C18.8497624,31.5836011 18.8260725,31.1690288 18.8208081,30.6346852 L18.81968,30.3983478 C18.81968,29.7485602 18.8437458,29.2552104 18.8918783,28.9182835 L15.7151548,26.4635426 C15.5707575,26.3432116 15.4865271,26.1867836 15.4624609,25.9942539 C15.4383947,25.8017243 15.4744934,25.6212304 15.5707583,25.452767 L18.6030852,20.2544922 C18.8196811,19.8934991 19.1205042,19.7972357 19.5055635,19.9656991 L23.259873,21.4457635 C24.1262565,20.7959759 24.9685611,20.302626 25.7868122,19.9656991 L26.3643983,16.0308939 C26.3884645,15.8383643 26.4666785,15.6819363 26.5990426,15.5616052 C26.7314067,15.4412742 26.8818183,15.3811096 27.0502817,15.3811096 L33.1149357,15.3811096 C33.2833991,15.3811096 33.4338106,15.4412742 33.5661748,15.5616052 C33.6985389,15.6819363 33.7887858,15.8383643 33.8369183,16.0308939 L34.3784052,19.9656991 C35.3169873,20.3266922 36.1713248,20.8200421 36.9414435,21.4457635 L40.6596539,19.9656991 C40.8521836,19.8935005 41.026661,19.8814676 41.1830913,19.9296 C41.3395217,19.9777324 41.4658673,20.0860287 41.5621322,20.2544922 L44.5944591,25.452767 C44.690724,25.6212304 44.7268227,25.8017243 44.7027565,25.9942539 C44.6786903,26.1867836 44.5944599,26.3432116 44.4500626,26.4635426 L41.3094383,28.9182835 C41.3575707,29.2552104 41.3816365,29.7485602 41.3816365,30.3983478 L41.3771242,30.8563567 C41.3680994,31.2850339 41.3455376,31.625717 41.3094383,31.8784122 Z" id="" fill="#D8D8D8" fill-rule="nonzero"></path>
                                </g>
                                <path d="M34.1789639,0 L225.694762,139.895355 L225.694762,18.0560428 C225.694762,8.08396571 217.618346,0 207.645099,0 L34.1789639,0 Z" id="shine" fill="#000000" opacity="0.05" transform="translate(129.936863, 69.947678) rotate(-180.000000) translate(-129.936863, -69.947678) "></path>
                                <ellipse id="camera" fill="#7C7B7B" cx="134.061059" cy="4.43194652" rx="1" ry="1"></ellipse>
                            </g>
                        </g>
                    </g>
                    <g id="list" transform="translate(372.021594, 0.000000)">
                        <g id="MACBOOK">
                            <g>
                                <rect id="shadow" fill-opacity="0.25" fill="#000000" filter="url(#filter-2)" x="0.70134791" y="69.4441886" width="119.579819" height="1" rx="0.5"></rect>
                                <rect id="base" fill="#A9ABAE" x="0" y="66.8335048" width="121.333188" height="2.61068378" rx="1.30534189"></rect>
                                <rect id="shape" fill="#E6E7E8" x="0" y="63.1785475" width="121.333188" height="5.22136757"></rect>
                                <rect id="light" fill="#C0C0C0" x="111.514318" y="64.7449578" width="4.20808746" height="1" rx="0.5"></rect>
                                <path d="M21.1220503,0 C16.1383438,0 12.0982514,4.04821113 12.0982514,9.01837409 L12.0982514,63.1785475 L108.708926,63.1785475 L108.708926,9.01837409 C108.708926,4.03766361 104.665401,0 99.6851272,0 L21.1220503,0 Z" id="screen" fill="#373435"></path>
                                <g id="display-2" transform="translate(15.675344, 3.887018)">
                                    <rect id="display" fill="#FFFFFF" x="0.104984377" y="0.11603039" width="89.9478694" height="56.3907697"></rect>
                                    <g id="Group" transform="translate(30.674121, 7.472132)" fill="#05BCFC">
                                        <rect id="Rectangle" x="13.6329425" y="1.35856942" width="35.8165343" height="3.81879931" rx="1.90939966"></rect>
                                        <ellipse id="Oval" cx="3.74905919" cy="3.73606592" rx="3.74905919" ry="3.73606592"></ellipse>
                                    </g>
                                    <g id="Group-Copy" transform="translate(30.674121, 18.340687)" fill="#05BCFC">
                                        <rect id="Rectangle" x="13.6329425" y="1.35856942" width="35.8165343" height="3.81879931" rx="1.90939966"></rect>
                                        <ellipse id="Oval" cx="3.74905919" cy="3.73606592" rx="3.74905919" ry="3.73606592"></ellipse>
                                    </g>
                                    <g id="Group-Copy-2" transform="translate(30.674121, 29.209243)" fill="#05BCFC">
                                        <rect id="Rectangle" x="13.6329425" y="1.35856942" width="35.8165343" height="3.81879931" rx="1.90939966"></rect>
                                        <ellipse id="Oval" cx="3.74905919" cy="3.73606592" rx="3.74905919" ry="3.73606592"></ellipse>
                                    </g>
                                    <g id="Group-Copy-3" transform="translate(30.674121, 40.077798)" fill="#D8D8D8">
                                        <rect id="Rectangle" x="13.6329425" y="1.35856942" width="35.8165343" height="3.81879931" rx="1.90939966"></rect>
                                        <ellipse id="Oval" cx="3.74905919" cy="3.73606592" rx="3.74905919" ry="3.73606592"></ellipse>
                                    </g>
                                    <path d="M14.4779596,15.8788003 C14.9472507,15.8788003 15.3864524,15.7584711 15.7955779,15.517809 C16.2047034,15.277147 16.5295923,14.9552663 16.7702544,14.5521573 C17.0109165,14.1490483 17.1312457,13.7128549 17.1312457,13.2435638 C17.1312457,12.7742728 17.0109165,12.3350711 16.7702544,11.9259456 C16.5295923,11.51682 16.2047034,11.1919311 15.7955779,10.951269 C15.3864524,10.710607 14.9472507,10.5902777 14.4779596,10.5902777 C14.0086686,10.5902777 13.5724751,10.710607 13.1693661,10.951269 C12.7662572,11.1919311 12.4443765,11.51682 12.2037144,11.9259456 C11.9630523,12.3350711 11.8427231,12.7742728 11.8427231,13.2435638 C11.8427231,13.7128549 11.9630523,14.1490483 12.2037144,14.5521573 C12.4443765,14.9552663 12.7662572,15.277147 13.1693661,15.517809 C13.5724751,15.7584711 14.0086686,15.8788003 14.4779596,15.8788003 Z M20.0913744,13.983596 L21.6616866,15.2109664 C21.7338852,15.2711319 21.7760004,15.3493459 21.7880335,15.4456108 C21.8000666,15.5418756 21.7820172,15.6321225 21.7338848,15.7163542 L20.2177214,18.3154916 C20.1695889,18.3997234 20.1064161,18.4538715 20.0282009,18.4779377 C19.9499857,18.5020039 19.8627471,18.4959875 19.7664822,18.4598882 L17.907377,17.719856 C17.4260529,18.068816 16.9988841,18.3154909 16.6258579,18.4598882 L16.3551144,20.4272908 C16.3310482,20.5235556 16.2859247,20.6017696 16.2197427,20.6619351 C16.1535606,20.7221006 16.0783548,20.7521829 15.9941231,20.7521829 L12.9617961,20.7521829 C12.8775644,20.7521829 12.8023586,20.7221006 12.7361766,20.6619351 C12.6699945,20.6017696 12.6308875,20.5235556 12.6188544,20.4272908 L12.3300614,18.4598882 C11.824671,18.2553254 11.4035187,18.0086505 11.0665918,17.719856 L9.18943701,18.4598882 C8.99690735,18.5441199 8.84649581,18.4959882 8.73819788,18.3154916 L7.2220344,15.7163542 C7.17390198,15.6321225 7.1558526,15.5418756 7.1678857,15.4456108 C7.17991881,15.3493459 7.22203404,15.2711319 7.29423266,15.2109664 L8.8825944,13.983596 C8.86334143,13.8488252 8.85178977,13.6639991 8.84793922,13.4291139 L8.84649527,13.2435638 C8.84649527,12.91867 8.85852819,12.6719951 8.8825944,12.5035316 L7.29423266,11.2761612 C7.22203404,11.2159957 7.17991881,11.1377817 7.1678857,11.0415169 C7.1558526,10.945252 7.17390198,10.8550051 7.2220344,10.7707734 L8.73819788,8.17163599 C8.84649581,7.99113943 8.99690735,7.94300774 9.18943701,8.02723947 L11.0665918,8.76727164 C11.4997835,8.44237784 11.9209358,8.19570292 12.3300614,8.02723947 L12.6188544,6.05983686 C12.6308875,5.96357203 12.6699945,5.88535803 12.7361766,5.82519251 C12.8023586,5.76502699 12.8775644,5.73494468 12.9617961,5.73494468 L15.9941231,5.73494468 C16.0783548,5.73494468 16.1535606,5.76502699 16.2197427,5.82519251 C16.2859247,5.88535803 16.3310482,5.96357203 16.3551144,6.05983686 L16.6258579,8.02723947 C17.0951489,8.20773602 17.5223177,8.45441095 17.907377,8.76727164 L19.7664822,8.02723947 C19.8627471,7.99114016 19.9499857,7.98512369 20.0282009,8.0091899 C20.1064161,8.03325611 20.1695889,8.08740426 20.2177214,8.17163599 L21.7338848,10.7707734 C21.7820172,10.8550051 21.8000666,10.945252 21.7880335,11.0415169 C21.7760004,11.1377817 21.7338852,11.2159957 21.6616866,11.2761612 L20.0913744,12.5035316 C20.1106274,12.6383024 20.122179,12.8231285 20.1260296,13.0580137 L20.1274735,13.2435638 C20.1274735,13.5684576 20.1154406,13.8151325 20.0913744,13.983596 Z" id="" fill="#D8D8D8" fill-rule="nonzero"></path>
                                </g>
                                <path d="M15.4893432,0 L102.281147,63.1785475 L102.281147,9.01837409 C102.281147,4.03766361 98.240283,0 93.2588674,0 L15.4893432,0 Z" id="shine" fill="#000000" opacity="0.05" transform="translate(58.885245, 31.589274) rotate(-180.000000) translate(-58.885245, -31.589274) "></path>
                                <ellipse id="camera" fill="#7C7B7B" cx="60.7542627" cy="2.00152423" rx="1" ry="1"></ellipse>
                            </g>
                        </g>
                    </g>
                    <g id="list-copy-2" transform="translate(372.021594, 86.236812)">
                        <g id="MACBOOK">
                            <g>
                                <rect id="shadow" fill-opacity="0.25" fill="#000000" filter="url(#filter-3)" x="0.70134791" y="69.4441886" width="119.579819" height="1" rx="0.5"></rect>
                                <rect id="base" fill="#A9ABAE" x="0" y="66.8335048" width="121.333188" height="2.61068378" rx="1.30534189"></rect>
                                <rect id="shape" fill="#E6E7E8" x="0" y="63.1785475" width="121.333188" height="5.22136757"></rect>
                                <rect id="light" fill="#C0C0C0" x="111.514318" y="64.7449578" width="4.20808746" height="1" rx="0.5"></rect>
                                <path d="M21.1220503,0 C16.1383438,0 12.0982514,4.04821113 12.0982514,9.01837409 L12.0982514,63.1785475 L108.708926,63.1785475 L108.708926,9.01837409 C108.708926,4.03766361 104.665401,0 99.6851272,0 L21.1220503,0 Z" id="screen" fill="#373435"></path>
                                <g id="display-2" transform="translate(15.675344, 3.887018)">
                                    <rect id="display" fill="#FFFFFF" x="0.104984377" y="0.11603039" width="89.9478694" height="56.3907697"></rect>
                                    <g id="Group" transform="translate(30.674121, 7.472132)" fill="#05BCFC">
                                        <rect id="Rectangle" x="13.6329425" y="1.35856942" width="35.8165343" height="3.81879931" rx="1.90939966"></rect>
                                        <ellipse id="Oval" cx="3.74905919" cy="3.73606592" rx="3.74905919" ry="3.73606592"></ellipse>
                                    </g>
                                    <g id="Group-Copy" transform="translate(30.674121, 18.340687)" fill="#05BCFC">
                                        <rect id="Rectangle" x="13.6329425" y="1.35856942" width="35.8165343" height="3.81879931" rx="1.90939966"></rect>
                                        <ellipse id="Oval" cx="3.74905919" cy="3.73606592" rx="3.74905919" ry="3.73606592"></ellipse>
                                    </g>
                                    <g id="Group-Copy-2" transform="translate(30.674121, 29.209243)" fill="#05BCFC">
                                        <rect id="Rectangle" x="13.6329425" y="1.35856942" width="35.8165343" height="3.81879931" rx="1.90939966"></rect>
                                        <ellipse id="Oval" cx="3.74905919" cy="3.73606592" rx="3.74905919" ry="3.73606592"></ellipse>
                                    </g>
                                    <g id="Group-Copy-3" transform="translate(30.674121, 40.077798)" fill="#D8D8D8">
                                        <rect id="Rectangle" x="13.6329425" y="1.35856942" width="35.8165343" height="3.81879931" rx="1.90939966"></rect>
                                        <ellipse id="Oval" cx="3.74905919" cy="3.73606592" rx="3.74905919" ry="3.73606592"></ellipse>
                                    </g>
                                    <path d="M14.4779596,15.8788003 C14.9472507,15.8788003 15.3864524,15.7584711 15.7955779,15.517809 C16.2047034,15.277147 16.5295923,14.9552663 16.7702544,14.5521573 C17.0109165,14.1490483 17.1312457,13.7128549 17.1312457,13.2435638 C17.1312457,12.7742728 17.0109165,12.3350711 16.7702544,11.9259456 C16.5295923,11.51682 16.2047034,11.1919311 15.7955779,10.951269 C15.3864524,10.710607 14.9472507,10.5902777 14.4779596,10.5902777 C14.0086686,10.5902777 13.5724751,10.710607 13.1693661,10.951269 C12.7662572,11.1919311 12.4443765,11.51682 12.2037144,11.9259456 C11.9630523,12.3350711 11.8427231,12.7742728 11.8427231,13.2435638 C11.8427231,13.7128549 11.9630523,14.1490483 12.2037144,14.5521573 C12.4443765,14.9552663 12.7662572,15.277147 13.1693661,15.517809 C13.5724751,15.7584711 14.0086686,15.8788003 14.4779596,15.8788003 Z M20.0913744,13.983596 L21.6616866,15.2109664 C21.7338852,15.2711319 21.7760004,15.3493459 21.7880335,15.4456108 C21.8000666,15.5418756 21.7820172,15.6321225 21.7338848,15.7163542 L20.2177214,18.3154916 C20.1695889,18.3997234 20.1064161,18.4538715 20.0282009,18.4779377 C19.9499857,18.5020039 19.8627471,18.4959875 19.7664822,18.4598882 L17.907377,17.719856 C17.4260529,18.068816 16.9988841,18.3154909 16.6258579,18.4598882 L16.3551144,20.4272908 C16.3310482,20.5235556 16.2859247,20.6017696 16.2197427,20.6619351 C16.1535606,20.7221006 16.0783548,20.7521829 15.9941231,20.7521829 L12.9617961,20.7521829 C12.8775644,20.7521829 12.8023586,20.7221006 12.7361766,20.6619351 C12.6699945,20.6017696 12.6308875,20.5235556 12.6188544,20.4272908 L12.3300614,18.4598882 C11.824671,18.2553254 11.4035187,18.0086505 11.0665918,17.719856 L9.18943701,18.4598882 C8.99690735,18.5441199 8.84649581,18.4959882 8.73819788,18.3154916 L7.2220344,15.7163542 C7.17390198,15.6321225 7.1558526,15.5418756 7.1678857,15.4456108 C7.17991881,15.3493459 7.22203404,15.2711319 7.29423266,15.2109664 L8.8825944,13.983596 C8.86334143,13.8488252 8.85178977,13.6639991 8.84793922,13.4291139 L8.84649527,13.2435638 C8.84649527,12.91867 8.85852819,12.6719951 8.8825944,12.5035316 L7.29423266,11.2761612 C7.22203404,11.2159957 7.17991881,11.1377817 7.1678857,11.0415169 C7.1558526,10.945252 7.17390198,10.8550051 7.2220344,10.7707734 L8.73819788,8.17163599 C8.84649581,7.99113943 8.99690735,7.94300774 9.18943701,8.02723947 L11.0665918,8.76727164 C11.4997835,8.44237784 11.9209358,8.19570292 12.3300614,8.02723947 L12.6188544,6.05983686 C12.6308875,5.96357203 12.6699945,5.88535803 12.7361766,5.82519251 C12.8023586,5.76502699 12.8775644,5.73494468 12.9617961,5.73494468 L15.9941231,5.73494468 C16.0783548,5.73494468 16.1535606,5.76502699 16.2197427,5.82519251 C16.2859247,5.88535803 16.3310482,5.96357203 16.3551144,6.05983686 L16.6258579,8.02723947 C17.0951489,8.20773602 17.5223177,8.45441095 17.907377,8.76727164 L19.7664822,8.02723947 C19.8627471,7.99114016 19.9499857,7.98512369 20.0282009,8.0091899 C20.1064161,8.03325611 20.1695889,8.08740426 20.2177214,8.17163599 L21.7338848,10.7707734 C21.7820172,10.8550051 21.8000666,10.945252 21.7880335,11.0415169 C21.7760004,11.1377817 21.7338852,11.2159957 21.6616866,11.2761612 L20.0913744,12.5035316 C20.1106274,12.6383024 20.122179,12.8231285 20.1260296,13.0580137 L20.1274735,13.2435638 C20.1274735,13.5684576 20.1154406,13.8151325 20.0913744,13.983596 Z" id="" fill="#D8D8D8" fill-rule="nonzero"></path>
                                </g>
                                <path d="M15.4893432,0 L102.281147,63.1785475 L102.281147,9.01837409 C102.281147,4.03766361 98.240283,0 93.2588674,0 L15.4893432,0 Z" id="shine" fill="#000000" opacity="0.05" transform="translate(58.885245, 31.589274) rotate(-180.000000) translate(-58.885245, -31.589274) "></path>
                                <ellipse id="camera" fill="#7C7B7B" cx="60.7542627" cy="2.00152423" rx="1" ry="1"></ellipse>
                            </g>
                        </g>
                    </g>
                </g>
            </g>
        </g>
    </g>
</svg>