<?xml version="1.0" encoding="UTF-8"?>
<svg width="259px" height="74px" viewBox="0 0 259 74" version="1.1" xmlns="http://www.w3.org/2000/svg" xmlns:xlink="http://www.w3.org/1999/xlink">
    <!-- Generator: Sketch 58 (84663) - https://sketch.com -->
    <title>Group 8</title>
    <desc>Created with Sketch.</desc>
    <g id="Page-1" stroke="none" stroke-width="1" fill="none" fill-rule="evenodd">
        <g id="Welcome_new-Copy-9" transform="translate(-426.000000, -923.000000)">
            <g id="AdBlock-Premium" transform="translate(400.000000, 540.000000)">
                <g id="themes" transform="translate(0.000000, 300.000000)">
                    <g id="Group-8" transform="translate(27.000000, 84.000000)">
                        <g id="image" transform="translate(136.000000, 0.000000)">
                            <g id="Group-2">
                                <rect id="Rectangle" fill="#03BCFC" x="0" y="0" width="98.0664207" height="72" rx="3.9"></rect>
                                <path d="M1.90425453e-12,41.0581708 L98.0664207,41.0581708 L98.0664207,68.1 C98.0664207,70.2539105 96.3203312,72 94.1664207,72 L3.9,72 C1.74608948,72 1.90363013e-12,70.2539105 1.90425453e-12,68.1 L1.90425453e-12,41.0581708 L1.90425453e-12,41.0581708 Z" id="Rectangle" fill="#2284F7"></path>
                            </g>
                            <g id="Group-2-Copy" transform="translate(22.966790, 0.000000)">
                                <rect id="Rectangle" fill="#FFCA00" x="0" y="0" width="98.0664207" height="72" rx="3.9"></rect>
                                <path d="M1.90425453e-12,41.0581708 L98.0664207,41.0581708 L98.0664207,68.1 C98.0664207,70.2539105 96.3203312,72 94.1664207,72 L3.9,72 C1.74608948,72 1.90274195e-12,70.2539105 1.90425453e-12,68.1 L1.90425453e-12,41.0581708 L1.90425453e-12,41.0581708 Z" id="Rectangle" fill="#FF9C00"></path>
                            </g>
                            <g id="Group-2-Copy-2" transform="translate(54.933579, 0.000000)">
                                <rect id="Rectangle" fill="#FF363B" x="0" y="0" width="66" height="72" rx="3.9"></rect>
                                <path d="M0,41.0581708 L66,41.0581708 L66,68.1 C66,70.2539105 64.2539105,72 62.1,72 L3.9,72 C1.74608948,72 -6.24400457e-16,70.2539105 0,68.1 L0,41.0581708 L0,41.0581708 Z" id="Rectangle" fill="#E40D0D"></path>
                            </g>
                        </g>
                        <g id="Group">
                            <rect id="Rectangle" stroke="#979797" x="0" y="0" width="120" height="72" rx="3.9"></rect>
                            <path d="M39.764,40.628 C40.4440034,40.628 41.0479974,40.7399989 41.576,40.964 C42.1040026,41.1880011 42.5479982,41.499998 42.908,41.9 C43.2680018,42.300002 43.5399991,42.7839972 43.724,43.352 C43.9080009,43.9200028 44,44.5439966 44,45.224 L44,53 L43.052,53 C42.843999,53 42.6760006,52.9680003 42.548,52.904 C42.4199994,52.8399997 42.3360002,52.704001 42.296,52.496 L42.056,51.368 C41.7359984,51.6560014 41.424,51.9139989 41.12,52.142 C40.8159985,52.3700011 40.4960017,52.5619992 40.16,52.718 C39.8239983,52.8740008 39.4660019,52.9919996 39.086,53.072 C38.7059981,53.1520004 38.2840023,53.192 37.82,53.192 C37.3479976,53.192 36.9060021,53.1260007 36.494,52.994 C36.0819979,52.8619993 35.7240015,52.6640013 35.42,52.4 C35.1159985,52.1359987 34.8740009,51.802002 34.694,51.398 C34.5139991,50.993998 34.424,50.5160028 34.424,49.964 C34.424,49.4839976 34.5559987,49.0220022 34.82,48.578 C35.0840013,48.1339978 35.5099971,47.7400017 36.098,47.396 C36.6860029,47.0519983 37.4559952,46.7700011 38.408,46.55 C39.3600048,46.3299989 40.5239931,46.2040002 41.9,46.172 L41.9,45.224 C41.9,44.2799953 41.698002,43.5660024 41.294,43.082 C40.889998,42.5979976 40.292004,42.356 39.5,42.356 C38.9799974,42.356 38.5420018,42.4219993 38.186,42.554 C37.8299982,42.6860007 37.5220013,42.8339992 37.262,42.998 L36.8989999,43.2320001 C36.7870001,43.3059999 36.6840005,43.3759997 36.59,43.442 C36.4019991,43.5740007 36.2160009,43.64 36.032,43.64 C35.8879993,43.64 35.7620005,43.6020004 35.654,43.526 C35.5459995,43.4499996 35.4600003,43.3560006 35.396,43.244 L35.012,42.56 C35.6840034,41.9119968 36.4079961,41.4280016 37.184,41.108 C37.9600039,40.7879984 38.8199953,40.628 39.764,40.628 Z M26.36,35.804 L33.236,53 L31.436,53 C31.227999,53 31.0600006,52.9480005 30.932,52.844 C30.8039994,52.7399995 30.7080003,52.6080008 30.644,52.448 L29.036,48.296 L21.32,48.296 L19.712,52.448 C19.6559997,52.5920007 19.5600007,52.7199994 19.424,52.832 C19.2879993,52.9440006 19.12,53 18.92,53 L17.12,53 L23.996,35.804 L26.36,35.804 Z M41.9,47.528 C40.9159951,47.5600002 40.0800034,47.6379994 39.392,47.762 C38.7039966,47.8860006 38.1440022,48.047999 37.712,48.248 C37.2799978,48.448001 36.966001,48.6839986 36.77,48.956 C36.573999,49.2280014 36.476,49.5319983 36.476,49.868 C36.476,50.1880016 36.5279995,50.4639988 36.632,50.696 C36.7360005,50.9280012 36.8759991,51.1179993 37.052,51.266 C37.2280009,51.4140007 37.4359988,51.5219997 37.676,51.59 C37.9160012,51.6580003 38.1759986,51.692 38.456,51.692 C38.8320019,51.692 39.1759984,51.6540004 39.488,51.578 C39.8000016,51.5019996 40.0939986,51.3940007 40.37,51.254 C40.6460014,51.1139993 40.9099987,50.944001 41.162,50.744 C41.4140013,50.543999 41.6599988,50.3160013 41.9,50.06 L41.9,50.06 Z M25.172,38 L24.9986668,38.6213331 C24.9702224,38.7191107 24.9420001,38.8139995 24.914,38.906 L24.7895,39.2945001 C24.7485001,39.4154998 24.7080002,39.5279995 24.668,39.632 L21.968,46.616 L28.388,46.616 L25.688,39.62 C25.5119991,39.1879978 25.3400008,38.6480032 25.172,38 Z" id="Aa" fill="#999999" fill-rule="nonzero"></path>
                            <path d="M98.734,38.318 C99.9806729,38.318 101.087995,38.5233313 102.056,38.934 C103.024005,39.3446687 103.837997,39.916663 104.498,40.65 C105.158003,41.383337 105.656665,42.2706615 105.994,43.312 C106.331335,44.3533385 106.5,45.4973271 106.5,46.744 L106.5,61 L104.762,61 C104.380665,61 104.072668,60.9413339 103.838,60.824 C103.603332,60.7066661 103.449334,60.4573352 103.376,60.076 L102.936,58.008 C102.34933,58.5360026 101.777336,59.0089979 101.22,59.427 C100.662664,59.8450021 100.076003,60.1969986 99.46,60.483 C98.8439969,60.7690014 98.1876702,60.9853326 97.491,61.132 C96.7943298,61.2786674 96.0206709,61.352 95.17,61.352 C94.3046623,61.352 93.4943371,61.2310012 92.739,60.989 C91.9836629,60.7469988 91.3273361,60.3840024 90.77,59.9 C90.2126639,59.4159976 89.7690017,58.8036704 89.439,58.063 C89.1089984,57.3223296 88.944,56.4460051 88.944,55.434 C88.944,54.5539956 89.1859976,53.7070041 89.67,52.893 C90.1540024,52.0789959 90.9349946,51.3566698 92.013,50.726 C93.0910054,50.0953302 94.5026579,49.5783354 96.248,49.175 C97.9933421,48.7716647 100.127321,48.540667 102.65,48.482 L102.65,46.744 C102.65,45.0133247 102.27967,43.7043378 101.539,42.817 C100.79833,41.9296622 99.7020073,41.486 98.25,41.486 C97.2966619,41.486 96.4936699,41.6069988 95.841,41.849 C95.1883301,42.0910012 94.623669,42.3623318 94.147,42.663 C93.6703309,42.9636682 93.2596684,43.2349988 92.915,43.477 C92.5703316,43.7190012 92.229335,43.84 91.892,43.84 C91.6279987,43.84 91.397001,43.770334 91.199,43.631 C91.000999,43.491666 90.8433339,43.3193344 90.726,43.114 L90.022,41.86 C91.2540062,40.6719941 92.5813262,39.7846696 94.004,39.198 C95.4266738,38.6113304 97.0033247,38.318 98.734,38.318 Z M74.16,29.474 L86.766,61 L83.466,61 C83.0846648,61 82.7766678,60.9046676 82.542,60.714 C82.3073322,60.5233324 82.1313339,60.2813348 82.014,59.988 L79.066,52.376 L64.92,52.376 L61.972,59.988 C61.8693328,60.2520013 61.6933346,60.4866656 61.444,60.692 C61.1946654,60.8973344 60.8866685,61 60.52,61 L57.22,61 L69.826,29.474 L74.16,29.474 Z M102.65,50.968 C100.845991,51.026667 99.3133396,51.1696655 98.052,51.397 C96.7906604,51.6243345 95.764004,51.9213315 94.972,52.288 C94.179996,52.6546685 93.6043351,53.0873308 93.245,53.586 C92.8856649,54.0846692 92.706,54.6419969 92.706,55.258 C92.706,55.8446696 92.8013324,56.3506645 92.992,56.776 C93.1826676,57.2013355 93.4393317,57.5496653 93.762,57.821 C94.0846683,58.0923347 94.4659978,58.2903327 94.906,58.415 C95.3460022,58.5396673 95.8226641,58.602 96.336,58.602 C97.0253368,58.602 97.6559971,58.532334 98.228,58.393 C98.8000029,58.253666 99.3389975,58.055668 99.845,57.799 C100.351003,57.542332 100.834998,57.2306685 101.297,56.864 C101.759002,56.4973315 102.209998,56.0793357 102.65,55.61 L102.65,55.61 Z M71.982,33.5 C71.8206659,34.1013363 71.6630008,34.6549975 71.509,35.161 C71.3549992,35.6670025 71.2046674,36.1106648 71.058,36.492 L66.108,49.296 L77.878,49.296 L72.928,36.47 C72.6053317,35.677996 72.2900015,34.6880059 71.982,33.5 Z" id="Aa" fill="#999999" fill-rule="nonzero"></path>
                        </g>
                    </g>
                </g>
            </g>
        </g>
    </g>
</svg>