<svg width="305" height="321" viewBox="0 0 305 321" fill="none" xmlns="http://www.w3.org/2000/svg">
<path d="M298 1H7C3.68629 1 1 3.68629 1 7V314C1 317.314 3.68629 320 7 320H298C301.314 320 304 317.314 304 314V7C304 3.68629 301.314 1 298 1Z" fill="#FF9C00" stroke="#E6E6E6"/>
<path fill-rule="evenodd" clip-rule="evenodd" d="M17 54H289V297H17V54Z" fill="#FFAE00"/>
<path d="M34.0659 97H274.066" stroke="#FFD270" stroke-linecap="square"/>
<path d="M34.0659 240H274.066" stroke="#FFD270" stroke-linecap="square"/>
<path d="M62.327 20.6001H64.507L70.607 34.7601H67.727L66.407 31.5201H60.267L58.987 34.7601H56.167L62.327 20.6001V20.6001ZM65.527 29.3601L63.347 23.6001L61.127 29.3601H65.527ZM79.394 33.3201H79.354C79.0332 33.8832 78.5434 34.331 77.954 34.6001C77.367 34.8661 76.734 35.0001 76.054 35.0001C75.307 35.0001 74.644 34.8701 74.064 34.6101C73.4985 34.3606 72.9911 33.9962 72.574 33.5401C72.1546 33.0766 71.8347 32.5321 71.634 31.9401C71.4167 31.3028 71.3085 30.6334 71.314 29.9601C71.314 29.2531 71.427 28.5931 71.654 27.9801C71.8661 27.3913 72.1885 26.8482 72.604 26.3801C73.01 25.9261 73.5 25.5701 74.074 25.3101C74.647 25.0501 75.274 24.9201 75.954 24.9201C76.407 24.9201 76.807 24.9661 77.154 25.0601C77.5 25.1531 77.807 25.2731 78.074 25.4201C78.34 25.5661 78.567 25.7231 78.754 25.8901C78.94 26.0561 79.094 26.2201 79.214 26.3801H79.274V19.6401H81.674V34.7601H79.394V33.3201V33.3201ZM73.714 29.9601C73.714 30.3331 73.777 30.6931 73.904 31.0401C74.03 31.3861 74.217 31.6931 74.464 31.9601C74.71 32.2261 75.007 32.4401 75.354 32.6001C75.7 32.7601 76.094 32.8401 76.534 32.8401C76.974 32.8401 77.367 32.7601 77.714 32.6001C78.0501 32.4478 78.3526 32.2302 78.604 31.9601C78.8503 31.694 79.0408 31.3812 79.164 31.0401C79.29 30.6931 79.354 30.3331 79.354 29.9601C79.354 29.5861 79.29 29.2261 79.164 28.8801C79.0408 28.5391 78.8503 28.2262 78.604 27.9601C78.3526 27.69 78.0501 27.4725 77.714 27.3201C77.367 27.1601 76.974 27.0801 76.534 27.0801C76.094 27.0801 75.7 27.1601 75.354 27.3201C75.0179 27.4725 74.7154 27.69 74.464 27.9601C74.2176 28.2262 74.0272 28.5391 73.904 28.8801C73.777 29.2261 73.714 29.5861 73.714 29.9601ZM84.62 20.6001H88.94C89.527 20.6001 90.1 20.6601 90.66 20.7801C91.22 20.9001 91.72 21.0961 92.16 21.3701C92.6 21.6431 92.957 22.0001 93.23 22.4401C93.504 22.8801 93.64 23.4261 93.64 24.0801C93.64 24.9061 93.417 25.5901 92.97 26.1301C92.524 26.6701 91.92 27.0531 91.16 27.2801V27.3201C92.0326 27.393 92.8477 27.7845 93.45 28.4201C93.737 28.7261 93.96 29.0831 94.12 29.4901C94.28 29.8961 94.36 30.3331 94.36 30.8001C94.36 31.5861 94.197 32.2331 93.87 32.7401C93.5485 33.2419 93.109 33.6573 92.59 33.9501C92.064 34.2501 91.47 34.4601 90.81 34.5801C90.15 34.7001 89.494 34.7601 88.84 34.7601H84.62V20.6001V20.6001ZM86.3 26.6001H88.62C89.02 26.6001 89.41 26.5731 89.79 26.5201C90.17 26.4661 90.514 26.3561 90.82 26.1901C91.127 26.0231 91.374 25.7901 91.56 25.4901C91.747 25.1901 91.84 24.7931 91.84 24.3001C91.84 23.8601 91.754 23.5031 91.58 23.2301C91.4086 22.9587 91.1712 22.735 90.89 22.5801C90.585 22.4139 90.2534 22.3022 89.91 22.2501C89.543 22.1901 89.1718 22.16 88.8 22.1601H86.3V26.6001V26.6001ZM86.3 33.2001H89.14C89.554 33.2001 89.964 33.1561 90.37 33.0701C90.7571 32.991 91.1287 32.8491 91.47 32.6501C91.79 32.4632 92.0609 32.2027 92.26 31.8901C92.46 31.5761 92.56 31.1931 92.56 30.7401C92.56 30.2461 92.464 29.8331 92.27 29.5001C92.0852 29.1758 91.8244 28.9013 91.51 28.7001C91.197 28.5001 90.837 28.3601 90.43 28.2801C90.0182 28.1996 89.5996 28.1594 89.18 28.1601H86.3V33.2001V33.2001ZM96.907 19.6401H98.467V34.7601H96.907V19.6401ZM100.854 30.0801C100.854 29.3461 100.981 28.6801 101.234 28.0801C101.487 27.4801 101.834 26.9631 102.274 26.5301C102.714 26.0961 103.241 25.7601 103.854 25.5201C104.467 25.2801 105.134 25.1601 105.854 25.1601C106.574 25.1601 107.241 25.2801 107.854 25.5201C108.467 25.7601 108.994 26.0961 109.434 26.5301C109.874 26.9631 110.221 27.4801 110.474 28.0801C110.727 28.6801 110.854 29.3461 110.854 30.0801C110.854 30.8131 110.727 31.4801 110.474 32.0801C110.221 32.6801 109.874 33.1961 109.434 33.6301C108.994 34.0631 108.467 34.4001 107.854 34.6401C107.241 34.8801 106.574 35.0001 105.854 35.0001C105.134 35.0001 104.467 34.8801 103.854 34.6401C103.264 34.415 102.726 34.0713 102.274 33.6301C101.828 33.1877 101.474 32.6607 101.234 32.0801C100.981 31.4801 100.854 30.8131 100.854 30.0801V30.0801ZM102.534 30.0801C102.534 30.5731 102.611 31.0301 102.764 31.4501C102.917 31.8701 103.141 32.2361 103.434 32.5501C103.727 32.8631 104.077 33.1101 104.484 33.2901C104.891 33.4701 105.347 33.5601 105.854 33.5601C106.361 33.5601 106.817 33.4701 107.224 33.2901C107.631 33.1101 107.981 32.8631 108.274 32.5501C108.567 32.2361 108.791 31.8701 108.944 31.4501C109.097 31.0301 109.174 30.5731 109.174 30.0801C109.174 29.5861 109.097 29.1301 108.944 28.7101C108.798 28.3017 108.57 27.9275 108.274 27.6101C107.978 27.2948 107.621 27.043 107.224 26.8701C106.791 26.6849 106.325 26.5929 105.854 26.6001C105.347 26.6001 104.891 26.6901 104.484 26.8701C104.077 27.0501 103.727 27.2961 103.434 27.6101C103.141 27.9231 102.917 28.2901 102.764 28.7101C102.611 29.1301 102.534 29.5861 102.534 30.0801V30.0801ZM119.761 27.7401C119.428 27.3401 119.068 27.0501 118.681 26.8701C118.279 26.687 117.842 26.5948 117.401 26.6001C116.881 26.6001 116.421 26.6901 116.021 26.8701C115.621 27.0501 115.291 27.3001 115.031 27.6201C114.771 27.9401 114.574 28.3101 114.441 28.7301C114.308 29.1501 114.241 29.6001 114.241 30.0801C114.241 30.5601 114.318 31.0101 114.471 31.4301C114.624 31.8501 114.838 32.2201 115.111 32.5401C115.384 32.8601 115.714 33.1101 116.101 33.2901C116.488 33.4701 116.921 33.5601 117.401 33.5601C118.428 33.5601 119.221 33.1731 119.781 32.4001L120.941 33.5001C120.488 34.0201 119.954 34.4001 119.341 34.6401C118.728 34.8801 118.081 35.0001 117.401 35.0001C116.681 35.0001 116.021 34.8801 115.421 34.6401C114.821 34.4001 114.311 34.0601 113.891 33.6201C113.471 33.1801 113.144 32.6601 112.911 32.0601C112.678 31.4601 112.561 30.8001 112.561 30.0801C112.561 29.3731 112.678 28.7201 112.911 28.1201C113.144 27.5201 113.474 27.0001 113.901 26.5601C114.335 26.1153 114.856 25.7647 115.431 25.5301C116.057 25.2773 116.726 25.1515 117.401 25.1601C118.094 25.1601 118.751 25.2801 119.371 25.5201C119.994 25.7621 120.552 26.1455 121.001 26.6401L119.761 27.7401V27.7401ZM122.568 19.6401H124.128V29.5201L128.388 25.4001H130.608L126.088 29.6601L131.068 34.7601H128.768L124.128 29.8401V34.7601H122.568V19.6401Z" fill="white"/>
<path fill-rule="evenodd" clip-rule="evenodd" d="M25.2305 14.1481L18.1481 21.2314C17.9426 21.4369 17.7795 21.6809 17.6683 21.9494C17.5571 22.218 17.4999 22.5058 17.5 22.7965V32.8144C17.5 33.401 17.7335 33.964 18.1481 34.3786L25.2305 41.4619C25.646 41.8765 26.2081 42.11 26.7956 42.11H36.8135C37.4001 42.11 37.9631 41.8765 38.3786 41.4619L45.461 34.3786C45.8755 33.964 46.1091 33.401 46.1091 32.8144V22.7965C46.1091 22.209 45.8755 21.6469 45.461 21.2314L38.3786 14.1481C38.1731 13.9426 37.9291 13.7795 37.6606 13.6683C37.392 13.5571 37.1042 13.4999 36.8135 13.5H26.7956C26.209 13.5 25.646 13.7335 25.2305 14.1481Z" fill="white"/>
<path fill-rule="evenodd" clip-rule="evenodd" d="M31.4637 38.1761C36.2034 38.1761 37.3276 33.8284 37.3276 33.8284L40.0478 26.0119C40.0478 26.0119 40.294 25.2008 40.2487 25.1918C37.7151 24.7184 37.1765 26.5043 37.1765 26.5043C37.1765 26.5043 36.2034 29.0326 36.0522 29.0326C35.901 29.0326 35.8829 28.8452 35.8829 28.8452V19.7605C35.8829 19.7605 35.93 18.5883 34.727 18.5883C33.523 18.5883 33.5846 19.7623 33.5846 19.7623L33.5864 26.4745C33.5864 26.4745 33.6027 26.7442 33.3773 26.7442C33.1763 26.7442 33.1872 26.4835 33.1872 26.4835V18.3973C33.1872 18.3973 33.2623 17.0757 32.0448 17.0757C30.8282 17.0757 30.8934 18.4063 30.8934 18.4063L30.8826 26.3839C30.8826 26.3839 30.8979 26.6292 30.697 26.6292C30.5105 26.6292 30.5168 26.3867 30.5168 26.3867V19.6972C30.5168 19.6972 30.5847 18.3357 29.3455 18.3357C28.128 18.3357 28.1932 19.7225 28.1932 19.7225L28.1823 26.7849C28.1823 26.7849 28.2049 26.9904 28.013 26.9904C27.8103 26.9904 27.8148 26.7849 27.8148 26.7849L27.8057 22.5142C27.8057 22.5142 27.8166 21.3338 26.7937 21.3338C25.7057 21.3338 25.7256 22.5142 25.7256 22.5142V31.7319C25.7328 31.7301 25.4504 38.1752 31.4637 38.1752V38.1761Z" fill="#FFAE00"/>
<path d="M206.579 68H97.4211C93.8748 68 91 69.7909 91 72V80C91 82.2091 93.8748 84 97.4211 84H206.579C210.125 84 213 82.2091 213 80V72C213 69.7909 210.125 68 206.579 68Z" fill="white"/>
<path d="M132.5 162.5H37.5C35.2909 162.5 33.5 164.739 33.5 167.5C33.5 170.261 35.2909 172.5 37.5 172.5H132.5C134.709 172.5 136.5 170.261 136.5 167.5C136.5 164.739 134.709 162.5 132.5 162.5Z" fill="white"/>
<path d="M189.238 257.5H36.7615C34.9602 257.5 33.5 259.291 33.5 261.5C33.5 263.709 34.9602 265.5 36.7615 265.5H189.238C191.04 265.5 192.5 263.709 192.5 261.5C192.5 259.291 191.04 257.5 189.238 257.5Z" fill="white"/>
<path d="M224.5 274.5H37.5C35.2909 274.5 33.5 276.291 33.5 278.5C33.5 280.709 35.2909 282.5 37.5 282.5H224.5C226.709 282.5 228.5 280.709 228.5 278.5C228.5 276.291 226.709 274.5 224.5 274.5Z" fill="white"/>
<path d="M44.5 129.5H37.5C35.2909 129.5 33.5 131.291 33.5 133.5C33.5 135.709 35.2909 137.5 37.5 137.5H44.5C46.7091 137.5 48.5 135.709 48.5 133.5C48.5 131.291 46.7091 129.5 44.5 129.5Z" fill="white"/>
<path d="M224.5 129.5H192.5C190.291 129.5 188.5 131.291 188.5 133.5C188.5 135.709 190.291 137.5 192.5 137.5H224.5C226.709 137.5 228.5 135.709 228.5 133.5C228.5 131.291 226.709 129.5 224.5 129.5Z" fill="white"/>
<path d="M121.5 129.5H60.5C58.2909 129.5 56.5 131.291 56.5 133.5C56.5 135.709 58.2909 137.5 60.5 137.5H121.5C123.709 137.5 125.5 135.709 125.5 133.5C125.5 131.291 123.709 129.5 121.5 129.5Z" fill="white"/>
<path d="M109.804 114.5H38.1957C35.6023 114.5 33.5 116.291 33.5 118.5C33.5 120.709 35.6023 122.5 38.1957 122.5H109.804C112.398 122.5 114.5 120.709 114.5 118.5C114.5 116.291 112.398 114.5 109.804 114.5Z" fill="white"/>
<path d="M269.5 129.5H240.5C238.291 129.5 236.5 131.291 236.5 133.5C236.5 135.709 238.291 137.5 240.5 137.5H269.5C271.709 137.5 273.5 135.709 273.5 133.5C273.5 131.291 271.709 129.5 269.5 129.5Z" fill="white"/>
<path d="M33 189C33 186.791 34.7909 185 37 185H145C147.209 185 149 186.791 149 189V217C149 219.209 147.209 221 145 221H37C34.7909 221 33 219.209 33 217V189Z" fill="#FF9C00"/>
<path d="M157 189C157 186.791 158.791 185 161 185H269C271.209 185 273 186.791 273 189V217C273 219.209 271.209 221 269 221H161C158.791 221 157 219.209 157 217V189Z" fill="#FF9C00"/>
<path fill-rule="evenodd" clip-rule="evenodd" d="M286.297 28.7272C286.297 28.9545 286.277 29.1684 286.251 29.3823L287.661 30.4852C287.788 30.5855 287.822 30.766 287.741 30.913L286.404 33.2259C286.324 33.3729 286.15 33.4331 285.997 33.3729L284.332 32.7045C283.985 32.9652 283.61 33.1925 283.203 33.3596L282.949 35.131C282.928 35.2914 282.788 35.4117 282.621 35.4117H279.947C279.78 35.4117 279.64 35.2914 279.62 35.131L279.366 33.3596C278.958 33.1925 278.584 32.9719 278.236 32.7045L276.572 33.3729C276.424 33.4264 276.244 33.3729 276.164 33.2259L274.827 30.913C274.747 30.766 274.78 30.5855 274.907 30.4852L276.318 29.3823C276.291 29.1684 276.271 28.9478 276.271 28.7272C276.271 28.5066 276.291 28.286 276.318 28.0721L274.907 26.9692C274.78 26.8689 274.74 26.6884 274.827 26.5414L276.164 24.2286C276.244 24.0815 276.418 24.0213 276.572 24.0815L278.236 24.7499C278.584 24.4892 278.958 24.262 279.366 24.0949L279.62 22.3235C279.64 22.163 279.78 22.0427 279.947 22.0427H282.621C282.788 22.0427 282.928 22.163 282.949 22.3235L283.203 24.0949C283.61 24.262 283.985 24.4826 284.332 24.7499L285.997 24.0815C286.144 24.028 286.324 24.0815 286.404 24.2286L287.741 26.5414C287.822 26.6884 287.788 26.8689 287.661 26.9692L286.251 28.0721C286.277 28.286 286.297 28.4999 286.297 28.7272ZM278.945 28.7272C278.945 30.0173 279.994 31.0668 281.284 31.0668C282.574 31.0668 283.624 30.0173 283.624 28.7272C283.624 27.4371 282.574 26.3876 281.284 26.3876C279.994 26.3876 278.945 27.4371 278.945 28.7272Z" fill="#FFD780"/>
<path fill-rule="evenodd" clip-rule="evenodd" d="M259.224 21.8481H249.866C249.124 21.8481 248.529 22.4497 248.529 23.185V32.5433C248.529 33.2786 249.13 33.8802 249.866 33.8802H252.54L254.07 35.411C254.331 35.6717 254.752 35.6717 255.013 35.411L256.55 33.8802H259.224C259.959 33.8802 260.561 33.2786 260.561 32.5433V23.185C260.561 22.4497 259.959 21.8481 259.224 21.8481ZM255.213 31.2064V32.5433H253.876V31.2064H255.213ZM255.995 27.9778L256.597 27.3629C256.978 26.9818 257.219 26.4471 257.219 25.8588C257.219 24.3816 256.022 23.185 254.545 23.185C253.328 23.185 252.306 23.9939 251.978 25.1035C251.871 25.4778 252.138 25.8522 252.526 25.8522H252.727C252.987 25.8522 253.195 25.6717 253.281 25.4243C253.462 24.903 253.963 24.5219 254.545 24.5219C255.28 24.5219 255.882 25.1235 255.882 25.8588C255.882 26.2265 255.735 26.5607 255.494 26.8014L254.665 27.6436C254.257 28.058 253.977 28.5995 253.903 29.2078C253.856 29.5554 254.124 29.8629 254.471 29.8629H254.679C254.973 29.8629 255.207 29.6423 255.247 29.3548C255.334 28.7131 255.608 28.3722 255.995 27.9778Z" fill="#FFD780"/>
</svg>
