<svg xmlns="http://www.w3.org/2000/svg" width="282" height="80" viewBox="0 0 282 80">
    <g fill="none" fill-rule="evenodd">
        <path fill="#657B83" fill-rule="nonzero" d="M104.707 22.54h5.598L125.97 58.9h-7.395l-3.39-8.32H99.417l-3.287 8.32H88.89l15.818-36.361zm8.217 22.495l-5.598-14.792-5.7 14.792h11.298zm35.61 10.168h-.104c-.89 1.507-2.088 2.603-3.595 3.287-1.506.685-3.132 1.028-4.879 1.028-1.917 0-3.62-.334-5.11-1.002a11.45 11.45 0 0 1-3.826-2.748c-1.061-1.164-1.866-2.533-2.414-4.108-.548-1.575-.821-3.27-.821-5.085 0-1.814.29-3.51.873-5.084.582-1.575 1.395-2.945 2.44-4.109a11.245 11.245 0 0 1 3.774-2.747c1.472-.668 3.081-1.002 4.828-1.002 1.164 0 2.19.12 3.081.36.89.24 1.678.547 2.363.924a9.45 9.45 0 0 1 1.746 1.207c.48.428.873.847 1.18 1.258h.155V20.075h6.163V58.9h-5.855v-3.698zm-14.587-8.628c0 .959.163 1.883.488 2.774a6.96 6.96 0 0 0 1.438 2.362 7.163 7.163 0 0 0 2.286 1.644c.89.41 1.9.616 3.03.616s2.14-.206 3.03-.616a7.163 7.163 0 0 0 2.286-1.644 6.96 6.96 0 0 0 1.438-2.362c.325-.89.487-1.815.487-2.774 0-.958-.162-1.883-.487-2.773a6.96 6.96 0 0 0-1.438-2.362 7.163 7.163 0 0 0-2.286-1.644c-.89-.41-1.9-.616-3.03-.616s-2.14.205-3.03.616c-.89.41-1.652.959-2.286 1.644a6.96 6.96 0 0 0-1.438 2.362 8.018 8.018 0 0 0-.488 2.773zm28.008-24.035h11.094c1.506 0 2.978.154 4.416.462 1.438.308 2.722.813 3.852 1.515a8.429 8.429 0 0 1 2.748 2.748c.702 1.13 1.053 2.533 1.053 4.211 0 2.123-.574 3.878-1.72 5.264-1.148 1.387-2.697 2.371-4.649 2.953v.103a9.149 9.149 0 0 1 5.88 2.825 8.58 8.58 0 0 1 1.721 2.747 9.105 9.105 0 0 1 .617 3.364c0 2.02-.42 3.681-1.259 4.982a9.373 9.373 0 0 1-3.287 3.107c-1.352.77-2.876 1.31-4.57 1.618a28.229 28.229 0 0 1-5.06.462h-10.836V22.54zm4.314 15.407h5.958c1.027 0 2.028-.068 3.004-.205a7.743 7.743 0 0 0 2.645-.848 5.039 5.039 0 0 0 1.9-1.797c.48-.77.72-1.79.72-3.056 0-1.13-.223-2.046-.668-2.748a4.878 4.878 0 0 0-1.772-1.669c-.736-.41-1.575-.693-2.517-.847a17.621 17.621 0 0 0-2.85-.231h-6.42v11.401zm0 16.948h7.293c1.062 0 2.114-.111 3.159-.334a9.314 9.314 0 0 0 2.824-1.078 5.985 5.985 0 0 0 2.029-1.952c.514-.804.77-1.789.77-2.953 0-1.267-.248-2.328-.744-3.184a5.913 5.913 0 0 0-1.952-2.054c-.805-.514-1.729-.873-2.773-1.079a16.59 16.59 0 0 0-3.21-.308h-7.396v12.942zm27.238-34.82h4.006V58.9h-4.006V20.075zm10.135 26.808c0-1.883.325-3.595.976-5.135.65-1.541 1.54-2.868 2.67-3.98 1.13-1.113 2.483-1.978 4.058-2.594 1.575-.616 3.286-.925 5.135-.925 1.85 0 3.561.309 5.136.925 1.575.616 2.928 1.48 4.057 2.593 1.13 1.113 2.02 2.44 2.671 3.98.65 1.541.976 3.253.976 5.136 0 1.884-.325 3.596-.976 5.136-.65 1.541-1.54 2.868-2.67 3.98-1.13 1.113-2.483 1.978-4.058 2.594-1.575.616-3.287.925-5.136.925-1.849 0-3.56-.309-5.135-.925-1.575-.616-2.928-1.48-4.058-2.593s-2.02-2.44-2.67-3.98c-.65-1.541-.976-3.253-.976-5.137zm4.314 0c0 1.267.197 2.44.59 3.518a8.195 8.195 0 0 0 1.721 2.825 8.188 8.188 0 0 0 2.696 1.9c1.045.463 2.217.694 3.518.694 1.301 0 2.474-.231 3.518-.694a8.188 8.188 0 0 0 2.697-1.9 8.195 8.195 0 0 0 1.72-2.825c.394-1.078.59-2.25.59-3.518 0-1.266-.196-2.439-.59-3.518a8.195 8.195 0 0 0-1.72-2.824 8.188 8.188 0 0 0-2.697-1.9c-1.044-.463-2.217-.694-3.518-.694-1.3 0-2.473.231-3.518.693a8.188 8.188 0 0 0-2.696 1.9 8.195 8.195 0 0 0-1.72 2.825c-.394 1.079-.591 2.252-.591 3.518zm44.237-6.008c-.856-1.028-1.78-1.772-2.774-2.235-.992-.462-2.088-.693-3.286-.693-1.336 0-2.517.231-3.544.693-1.027.463-1.875 1.105-2.542 1.926a8.592 8.592 0 0 0-1.515 2.85 11.394 11.394 0 0 0-.514 3.467c0 1.233.197 2.389.59 3.467a9.202 9.202 0 0 0 1.644 2.85 7.421 7.421 0 0 0 2.542 1.926c.993.463 2.106.694 3.339.694 2.636 0 4.673-.993 6.111-2.979l2.979 2.825c-1.164 1.335-2.534 2.31-4.109 2.927a13.548 13.548 0 0 1-4.981.925c-1.85 0-3.544-.309-5.085-.925-1.54-.616-2.85-1.49-3.929-2.62-1.078-1.13-1.917-2.464-2.516-4.005-.6-1.54-.9-3.236-.9-5.085 0-1.814.3-3.492.9-5.033.599-1.54 1.446-2.876 2.542-4.006 1.096-1.13 2.405-2.011 3.929-2.644 1.523-.634 3.21-.95 5.059-.95 1.78 0 3.466.308 5.058.924 1.592.616 2.988 1.575 4.186 2.876l-3.184 2.825zm7.208-20.8h4.005v25.37l10.94-10.58h5.7l-11.606 10.94L281.228 58.9h-5.907l-11.915-12.634v12.634h-4.005V20.075z"/>
        <path fill="#E40D0D" d="M21.405 1.736L1.735 21.407A5.926 5.926 0 0 0 0 25.597V53.42c0 1.572.624 3.079 1.736 4.19l19.67 19.67a5.926 5.926 0 0 0 4.19 1.735h27.82a5.926 5.926 0 0 0 4.191-1.735l19.67-19.67a5.926 5.926 0 0 0 1.735-4.19V25.597a5.926 5.926 0 0 0-1.735-4.19L57.607 1.736A5.926 5.926 0 0 0 53.417 0H25.596c-1.572 0-3.08.624-4.19 1.736z"/>
        <path fill="#FFF" d="M38.565 68.148c13.09 0 16.195-12.006 16.195-12.006l7.513-21.586s.678-2.241.554-2.266c-6.996-1.307-8.484 3.623-8.484 3.623s-2.689 6.983-3.106 6.983c-.417 0-.467-.516-.467-.516V17.29s.131-3.237-3.193-3.237c-3.323 0-3.155 3.243-3.155 3.243l.006 18.536s.043.747-.579.747c-.554 0-.523-.722-.523-.722V13.524s.206-3.647-3.156-3.647c-3.36 0-3.18 3.672-3.18 3.672l-.031 22.034s.043.678-.51.678c-.517 0-.499-.672-.499-.672V17.115s.187-3.76-3.236-3.76c-3.361 0-3.18 3.829-3.18 3.829l-.032 19.507s.062.566-.467.566c-.56 0-.547-.566-.547-.566l-.025-11.795s.03-3.262-2.795-3.262c-3.006 0-2.95 3.262-2.95 3.262v25.457c.018-.006-.76 17.795 15.847 17.795z"/>
    </g>
</svg>
