<svg width="19" height="18" viewBox="0 0 19 18" fill="none" xmlns="http://www.w3.org/2000/svg">
<g clip-path="url(#clip0)">
<path fill-rule="evenodd" clip-rule="evenodd" d="M6.39313 0C5.9953 0 5.61375 0.158053 5.33243 0.439385L0.939292 4.8329C0.658017 5.1142 0.5 5.49573 0.5 5.89353V12.1074C0.5 12.5052 0.658035 12.8867 0.93934 13.168L5.33243 17.5611C5.61375 17.8424 5.99527 18.0005 6.3931 18.0005H12.6069C13.0047 18.0005 13.3863 17.8424 13.6676 17.5611L18.0606 13.168C18.342 12.8867 18.5 12.5052 18.5 12.1074V5.89353C18.5 5.49573 18.342 5.1142 18.0607 4.8329L13.6676 0.439385C13.3862 0.158053 13.0047 0 12.6069 0H6.39313Z" fill="#10B501"/>
<path fill-rule="evenodd" clip-rule="evenodd" d="M7.58713 7.45515L9.89546 5.14681C10.1371 4.90098 10.5288 4.90098 10.7746 5.14265C10.9246 5.29265 10.9871 5.50515 10.9455 5.71348L10.5496 7.62181H12.9038C13.7996 7.62181 14.4038 8.53848 14.0538 9.36348L12.6955 12.5343C12.5621 12.8385 12.2621 13.0385 11.9288 13.0385H8.17879C7.72046 13.0385 7.34546 12.6635 7.34546 12.2051V8.04265C7.34546 7.82181 7.43296 7.60931 7.58713 7.45515ZM6.51213 12.2052C6.51213 12.6635 6.13713 13.0385 5.67879 13.0385C5.22046 13.0385 4.84546 12.6635 4.84546 12.2052V8.87182C4.84546 8.41349 5.22046 8.03849 5.67879 8.03849C6.13713 8.03849 6.51213 8.41349 6.51213 8.87182V12.2052Z" fill="white"/>
</g>
<defs>
<clipPath id="clip0">
<rect width="18" height="18" fill="white" transform="translate(0.5)"/>
</clipPath>
</defs>
</svg>
