<svg width="304" height="258" viewBox="0 0 304 258" fill="none" xmlns="http://www.w3.org/2000/svg">
<g clip-path="url(#clip0)">
<path style="mix-blend-mode:multiply" opacity="0.5" d="M141.205 137.382L175.647 117.493L225.004 120.395L294.979 161.711C295.355 161.933 295.667 162.251 295.881 162.632C296.096 163.014 296.206 163.446 296.201 163.884C296.196 164.323 296.075 164.752 295.852 165.128C295.628 165.505 295.309 165.815 294.928 166.028L238.166 197.574C237.574 197.907 236.906 198.077 236.228 198.068C235.55 198.059 234.887 197.871 234.304 197.523L223.36 191.03V191.066L218.694 188.257L205.67 180.541H174.582L185.061 168.049L141.169 141.652C140.799 141.432 140.493 141.118 140.281 140.741C140.07 140.365 139.96 139.939 139.964 139.507C139.968 139.075 140.084 138.651 140.302 138.278C140.52 137.905 140.831 137.596 141.205 137.382Z" fill="url(#paint0_linear)"/>
<path style="mix-blend-mode:multiply" opacity="0.5" d="M25.7975 165.01L55.7521 149.051L97.7621 152.964L156.238 190.241C156.553 190.441 156.809 190.721 156.981 191.053C157.153 191.385 157.234 191.756 157.217 192.13C157.2 192.504 157.085 192.866 156.883 193.181C156.681 193.495 156.4 193.751 156.069 193.921L78.435 225.237C74.2872 227.383 97.3487 215.111 94.3012 213.159L94.3001 213.19L90.4028 210.658L79.5198 203.697L53.006 202.791L62.307 192.443L25.6425 168.65C25.3332 168.452 25.0812 168.175 24.9118 167.848C24.7424 167.52 24.6615 167.154 24.6772 166.786C24.6929 166.417 24.8046 166.059 25.0012 165.747C25.1978 165.436 25.4724 165.181 25.7975 165.01Z" fill="url(#paint1_linear)"/>
<path d="M146.721 167.561L165.886 178.673C170.552 181.379 178.26 181.081 182.275 178.035L205.655 159L179.97 144.117L147.817 158.048C142.573 160.384 142.055 164.855 146.721 167.561Z" fill="#C6C6C6"/>
<path d="M146.721 165.364L165.886 176.481C170.552 179.187 178.26 178.884 182.275 175.843L204.128 158.079L178.459 143.196L147.833 155.872C142.573 158.187 142.055 162.637 146.721 165.364Z" fill="#F8FBFF"/>
<path style="mix-blend-mode:multiply" d="M146.721 165.364L165.886 176.481C170.552 179.187 178.26 178.884 182.275 175.843L204.128 158.079L178.459 143.196L147.833 155.872C142.573 158.187 142.055 162.637 146.721 165.364Z" fill="url(#paint2_linear)"/>
<path d="M231.897 171.687L236.891 168.919V177.747L231.897 180.515V171.687Z" fill="#E6E6E6"/>
<path d="M231.897 171.687V180.515L113.861 112.06V103.227L231.897 171.687Z" fill="#F8FBFF"/>
<path d="M232.169 76.3312L237.162 73.5634L236.891 168.919L231.897 171.687L232.169 76.3312Z" fill="#121C23"/>
<path d="M114.128 7.87693L119.126 5.10913L237.162 73.5634L232.169 76.3312L114.128 7.87693Z" fill="#333333"/>
<path d="M232.169 76.3311L231.897 171.687L113.861 103.227L114.128 7.87683L232.169 76.3311Z" fill="#666666"/>
<path d="M228.251 78.4559L228.015 165.693L117.774 101.108L118.01 13.8704L228.251 78.4559Z" fill="#7DC9C6"/>
<path d="M228.251 78.4558L228.015 165.693L117.774 101.108L118.01 13.8704L228.251 78.4558Z" fill="#2284F7"/>
<g opacity="0.5">
<path opacity="0.5" d="M222.485 87.1736L122.905 28.9402L122.981 50.8251L222.409 108.15L222.485 87.1736Z" fill="white"/>
<path opacity="0.5" d="M222.409 133.442L122.829 76.8748L122.829 95.0491L222.409 152.222L222.409 133.442Z" fill="white"/>
<path opacity="0.5" d="M222.334 110.876L122.905 53.7784L123.057 73.9973L222.334 130.64L222.334 110.876Z" fill="white"/>
</g>
</g>
<g clip-path="url(#clip1)">
<path d="M71.2762 225.547L2.47183 186.036C1.96379 185.803 1.52654 185.441 1.20421 184.986C0.881872 184.531 0.685843 184 0.635895 183.446L0.635895 180.052C0.635895 178.866 1.53945 180.922 3.2312 179.947L42.2857 157.529C45.4193 155.722 50.1678 155.531 52.8592 157.089L121.673 196.6C122.577 197.126 123.23 194.908 123.471 195.644C123.548 195.873 123.471 198.98 123.471 199.219C123.471 200.433 122.625 201.714 120.885 202.718L81.8785 225.107C78.7449 226.914 73.9965 227.105 71.2762 225.547Z" fill="#333333"/>
<path d="M71.2762 222.239L2.4718 182.709C-0.248462 181.132 0.097578 178.427 3.23117 176.62L42.2857 154.202C45.4193 152.395 50.1677 152.204 52.8591 153.762L121.673 193.273C124.384 194.831 124.047 197.556 120.914 199.363L81.8785 221.78C78.7449 223.587 73.9965 223.778 71.2762 222.239Z" fill="#E6E6E6"/>
<path d="M71.2763 225.547C73.9965 227.105 78.745 226.914 81.8497 225.107V221.78C78.7161 223.587 73.9677 223.778 71.2763 222.22V225.547Z" fill="#666666"/>
<path d="M71.276 222.239L2.47165 182.709C1.91674 182.465 1.44763 182.061 1.12408 181.551C0.800541 181.04 0.637221 180.445 0.654935 179.841C0.648632 179.902 0.648632 179.963 0.654935 180.023V183.417C0.704883 183.971 0.900912 184.502 1.22325 184.957C1.54558 185.412 1.98283 185.774 2.49087 186.007L71.2952 225.518L71.276 222.239Z" fill="#666666"/>
<path d="M120.933 198.798L81.8786 221.216C78.745 223.023 73.9966 223.214 71.3051 221.656L2.47191 182.145C1.99376 181.923 1.57699 181.588 1.25725 181.17C0.937516 180.752 0.724343 180.264 0.635975 179.746C0.594334 180.366 0.746582 180.984 1.07184 181.514C1.39709 182.045 1.87943 182.462 2.45269 182.709L71.2763 222.239C73.9966 223.797 78.745 223.606 81.8498 221.799L120.904 199.382C122.74 198.32 123.605 196.953 123.471 195.692C123.311 196.366 123 196.997 122.561 197.535C122.121 198.073 121.565 198.505 120.933 198.798Z" fill="#E6E6E6"/>
<path opacity="0.3" d="M55.6179 208.416L31.1259 194.353C30.6357 194.076 30.6933 193.579 31.2605 193.254L40.4594 187.977C40.7517 187.816 41.0777 187.725 41.4115 187.712C41.7453 187.699 42.0775 187.763 42.3818 187.9L66.8642 201.963C67.364 202.24 67.2967 202.737 66.7296 203.062L57.5403 208.339C57.249 208.503 56.9227 208.595 56.5884 208.609C56.2541 208.622 55.9214 208.556 55.6179 208.416Z" fill="white"/>
<path d="M31.2605 193.837L40.4594 188.56C40.7509 188.398 41.0766 188.305 41.4104 188.29C41.7441 188.275 42.0768 188.338 42.3818 188.474L66.8642 202.536C66.9554 202.585 67.0343 202.654 67.0949 202.737C67.1415 202.674 67.1728 202.601 67.1864 202.524C67.1999 202.447 67.1953 202.368 67.173 202.293C67.1506 202.218 67.1111 202.149 67.0576 202.092C67.004 202.034 66.9378 201.99 66.8642 201.963L42.3722 187.9C42.0679 187.763 41.7357 187.699 41.4019 187.712C41.0681 187.725 40.7421 187.816 40.4498 187.977L31.2509 193.254C30.7991 193.512 30.6741 193.875 30.8952 194.162C30.9902 194.027 31.1152 193.916 31.2605 193.837Z" fill="#C6C6C6"/>
<path opacity="0.5" d="M48.3991 158.839L52.6189 161.267C52.9176 161.414 53.2466 161.491 53.5801 161.491C53.9136 161.491 54.2426 161.414 54.5413 161.267C54.659 161.229 54.7615 161.155 54.8342 161.055C54.9069 160.955 54.9461 160.835 54.9461 160.712C54.9461 160.589 54.9069 160.469 54.8342 160.37C54.7615 160.27 54.659 160.196 54.5413 160.158L50.3312 157.73C50.0331 157.58 49.7038 157.502 49.3699 157.502C49.036 157.502 48.7068 157.58 48.4087 157.73C48.2907 157.767 48.1875 157.84 48.114 157.939C48.0404 158.038 48.0002 158.158 47.9991 158.281C47.9981 158.404 48.0362 158.524 48.108 158.624C48.1799 158.724 48.2818 158.8 48.3991 158.839ZM55.6275 162.968L57.6269 164.116C57.9247 164.266 58.2541 164.344 58.5881 164.344C58.9221 164.344 59.2514 164.266 59.5493 164.116C60.078 163.81 60.078 163.313 59.5493 162.997L57.55 161.85C57.2512 161.703 56.9222 161.626 56.5887 161.626C56.2552 161.626 55.9263 161.703 55.6275 161.85C55.5062 161.886 55.3997 161.959 55.324 162.06C55.2482 162.161 55.2073 162.283 55.2073 162.409C55.2073 162.535 55.2482 162.657 55.324 162.758C55.3997 162.859 55.5062 162.933 55.6275 162.968ZM60.6355 165.836L62.6348 166.984C62.9329 167.133 63.2622 167.211 63.5961 167.211C63.9299 167.211 64.2592 167.133 64.5573 166.984C64.6749 166.945 64.7775 166.871 64.8502 166.772C64.9229 166.672 64.962 166.552 64.962 166.429C64.962 166.306 64.9229 166.186 64.8502 166.087C64.7775 165.987 64.6749 165.913 64.5573 165.875L62.5579 164.727C62.2601 164.577 61.9307 164.499 61.5967 164.499C61.2627 164.499 60.9334 164.577 60.6355 164.727C60.5178 164.766 60.4153 164.84 60.3426 164.939C60.2699 165.039 60.2308 165.159 60.2308 165.282C60.2308 165.405 60.2699 165.525 60.3426 165.624C60.4153 165.724 60.5178 165.798 60.6355 165.836ZM65.6339 168.704L67.6332 169.861C67.9319 170.008 68.2609 170.085 68.5944 170.085C68.9279 170.085 69.2569 170.008 69.5556 169.861C69.6733 169.823 69.7758 169.749 69.8485 169.649C69.9212 169.55 69.9604 169.43 69.9604 169.307C69.9604 169.184 69.9212 169.064 69.8485 168.964C69.7758 168.864 69.6733 168.79 69.5556 168.752L67.5563 167.595C67.2582 167.446 66.929 167.368 66.5951 167.368C66.2612 167.368 65.932 167.446 65.6339 167.595C65.5162 167.633 65.4137 167.708 65.341 167.807C65.2683 167.907 65.2291 168.027 65.2291 168.15C65.2291 168.273 65.2683 168.393 65.341 168.492C65.4137 168.592 65.5162 168.666 65.6339 168.704ZM70.6418 171.572L72.6412 172.719C72.9399 172.867 73.2689 172.944 73.6024 172.944C73.9359 172.944 74.2649 172.867 74.5636 172.719C74.6801 172.679 74.781 172.603 74.8524 172.503C74.9238 172.403 74.9622 172.283 74.9622 172.16C74.9622 172.037 74.9238 171.918 74.8524 171.817C74.781 171.717 74.6801 171.642 74.5636 171.601L72.5643 170.454C72.2655 170.306 71.9366 170.23 71.6031 170.23C71.2696 170.23 70.9406 170.306 70.6418 170.454C70.5205 170.489 70.414 170.563 70.3383 170.664C70.2625 170.765 70.2216 170.887 70.2216 171.013C70.2216 171.139 70.2625 171.261 70.3383 171.362C70.414 171.463 70.5205 171.537 70.6418 171.572ZM75.6498 174.44L77.6492 175.587C77.9473 175.737 78.2765 175.815 78.6104 175.815C78.9443 175.815 79.2735 175.737 79.5716 175.587C79.6893 175.549 79.7918 175.475 79.8645 175.375C79.9372 175.276 79.9763 175.156 79.9763 175.033C79.9763 174.91 79.9372 174.79 79.8645 174.69C79.7918 174.591 79.6893 174.517 79.5716 174.478L77.5723 173.331C77.2744 173.181 76.9451 173.103 76.611 173.103C76.277 173.103 75.9477 173.181 75.6498 173.331C75.1115 173.675 75.1115 174.172 75.6114 174.488L75.6498 174.44ZM80.6482 177.308L82.6475 178.455C82.9454 178.606 83.2747 178.684 83.6087 178.684C83.9428 178.684 84.2721 178.606 84.57 178.455C85.0986 178.149 85.0986 177.652 84.57 177.337L82.5706 176.19C82.2725 176.04 81.9433 175.962 81.6094 175.962C81.2755 175.962 80.9463 176.04 80.6482 176.19C80.4927 176.19 80.3435 176.251 80.2336 176.36C80.1236 176.47 80.0618 176.618 80.0618 176.773C80.0618 176.927 80.1236 177.076 80.2336 177.185C80.3435 177.294 80.4927 177.356 80.6482 177.356V177.308ZM85.6562 180.176L87.6555 181.323C87.9542 181.471 88.2832 181.547 88.6167 181.547C88.9502 181.547 89.2792 181.471 89.5779 181.323C89.6956 181.285 89.7981 181.211 89.8708 181.111C89.9435 181.012 89.9827 180.892 89.9827 180.769C89.9827 180.646 89.9435 180.526 89.8708 180.426C89.7981 180.327 89.6956 180.252 89.5779 180.214L87.5786 179.067C87.2807 178.917 86.9514 178.838 86.6174 178.838C86.2833 178.838 85.954 178.917 85.6562 179.067C85.5006 179.067 85.3515 179.129 85.2415 179.238C85.1316 179.347 85.0698 179.496 85.0698 179.65C85.0698 179.805 85.1316 179.953 85.2415 180.063C85.3515 180.172 85.5006 180.233 85.6562 180.233V180.176ZM90.6641 183.044L92.6635 184.201C92.9616 184.35 93.2908 184.428 93.6247 184.428C93.9586 184.428 94.2878 184.35 94.5859 184.201C94.7036 184.163 94.8061 184.088 94.8788 183.989C94.9515 183.889 94.9907 183.769 94.9907 183.646C94.9907 183.523 94.9515 183.403 94.8788 183.304C94.8061 183.204 94.7036 183.13 94.5859 183.092L92.5962 181.992C92.2974 181.845 91.9685 181.768 91.635 181.768C91.3015 181.768 90.9725 181.845 90.6737 181.992C90.5557 182.029 90.4526 182.103 90.379 182.202C90.3054 182.301 90.2652 182.42 90.2642 182.543C90.2631 182.666 90.3012 182.787 90.3731 182.887C90.4449 182.987 90.5468 183.062 90.6641 183.101V183.044ZM95.6625 185.912L97.6618 187.059C97.9606 187.206 98.2896 187.283 98.6231 187.283C98.9566 187.283 99.2855 187.206 99.5843 187.059C99.7008 187.018 99.8017 186.943 99.8731 186.843C99.9445 186.742 99.9828 186.623 99.9828 186.5C99.9828 186.377 99.9445 186.257 99.8731 186.157C99.8017 186.057 99.7008 185.981 99.5843 185.941L97.5849 184.793C97.2868 184.644 96.9576 184.566 96.6237 184.566C96.2898 184.566 95.9606 184.644 95.6625 184.793C95.5842 184.793 95.5067 184.809 95.4344 184.839C95.3621 184.868 95.2964 184.912 95.2411 184.967C95.1858 185.022 95.1419 185.087 95.1119 185.159C95.082 185.231 95.0665 185.308 95.0665 185.386C95.0665 185.464 95.082 185.541 95.1119 185.613C95.1419 185.685 95.1858 185.75 95.2411 185.805C95.2964 185.86 95.3621 185.904 95.4344 185.934C95.5067 185.963 95.5842 185.979 95.6625 185.979V185.912ZM100.67 188.78L102.67 189.927C102.968 190.077 103.297 190.154 103.631 190.154C103.965 190.154 104.294 190.077 104.592 189.927C104.71 189.889 104.812 189.815 104.885 189.715C104.958 189.616 104.997 189.496 104.997 189.373C104.997 189.249 104.958 189.13 104.885 189.03C104.812 188.93 104.71 188.856 104.592 188.818L102.593 187.671C102.295 187.521 101.966 187.442 101.632 187.442C101.298 187.442 100.968 187.521 100.67 187.671C100.132 188.044 100.132 188.541 100.67 188.856V188.78ZM105.678 191.648L107.678 192.795C107.975 192.947 108.305 193.026 108.639 193.026C108.973 193.026 109.303 192.947 109.6 192.795C110.139 192.489 110.129 191.992 109.6 191.676L107.601 190.529C107.302 190.382 106.973 190.305 106.64 190.305C106.306 190.305 105.977 190.382 105.678 190.529C105.131 190.921 105.14 191.418 105.678 191.724V191.648ZM110.783 194.583L112.782 195.73C113.081 195.877 113.41 195.954 113.743 195.954C114.077 195.954 114.406 195.877 114.704 195.73C114.821 195.689 114.922 195.613 114.993 195.513C115.065 195.413 115.103 195.293 115.103 195.171C115.103 195.048 115.065 194.928 114.993 194.828C114.922 194.728 114.821 194.652 114.704 194.611L112.715 193.56C112.416 193.412 112.087 193.336 111.753 193.336C111.42 193.336 111.091 193.412 110.792 193.56C110.678 193.599 110.578 193.673 110.507 193.77C110.436 193.868 110.398 193.985 110.397 194.106C110.396 194.227 110.432 194.344 110.501 194.443C110.57 194.543 110.669 194.618 110.783 194.659V194.583ZM43.891 161.582L45.6212 162.538C45.9639 162.711 46.3426 162.8 46.7266 162.8C47.1106 162.8 47.4892 162.711 47.832 162.538L49.543 161.582C49.6776 161.538 49.7948 161.453 49.8779 161.339C49.961 161.225 50.0057 161.087 50.0057 160.947C50.0057 160.806 49.961 160.668 49.8779 160.554C49.7948 160.44 49.6776 160.355 49.543 160.311L47.8128 159.355C47.4694 159.185 47.091 159.096 46.7073 159.096C46.3237 159.096 45.9453 159.185 45.6019 159.355L43.8813 160.311C43.2854 160.665 43.295 161.229 43.891 161.582ZM52.8303 165.406L54.5509 164.45C55.1565 164.106 55.1565 163.494 54.5509 163.188L52.8207 162.232C52.4804 162.058 52.103 161.967 51.7201 161.967C51.3372 161.967 50.9599 162.058 50.6195 162.232L48.8989 163.188C48.7677 163.234 48.6541 163.32 48.5738 163.433C48.4934 163.546 48.4503 163.681 48.4503 163.819C48.4503 163.958 48.4934 164.093 48.5738 164.206C48.6541 164.319 48.7677 164.404 48.8989 164.45L50.6291 165.406C50.9676 165.587 51.3445 165.686 51.7288 165.694C52.1131 165.703 52.4939 165.62 52.84 165.454L52.8303 165.406ZM53.8973 167.318L55.6275 168.274C55.9696 168.449 56.3485 168.54 56.7329 168.54C57.1173 168.54 57.4963 168.449 57.8383 168.274L59.5589 167.318C59.6901 167.272 59.8037 167.187 59.8841 167.074C59.9644 166.961 60.0076 166.826 60.0076 166.687C60.0076 166.549 59.9644 166.414 59.8841 166.301C59.8037 166.188 59.6901 166.102 59.5589 166.056L57.8287 165.1C57.4877 164.928 57.1106 164.838 56.7281 164.838C56.3456 164.838 55.9686 164.928 55.6275 165.1L53.9069 166.056C53.7723 166.1 53.6551 166.185 53.572 166.3C53.4889 166.414 53.4442 166.551 53.4442 166.692C53.4442 166.833 53.4889 166.97 53.572 167.084C53.6551 167.199 53.7723 167.284 53.9069 167.328L53.8973 167.318ZM58.9053 170.186L60.6355 171.142C60.9772 171.312 61.354 171.4 61.7361 171.4C62.1182 171.4 62.495 171.312 62.8367 171.142L64.5573 170.186C64.6919 170.142 64.8091 170.057 64.8922 169.943C64.9753 169.829 65.02 169.691 65.02 169.55C65.02 169.409 64.9753 169.272 64.8922 169.158C64.8091 169.044 64.6919 168.959 64.5573 168.915L62.8271 167.959C62.4843 167.786 62.1057 167.697 61.7217 167.697C61.3377 167.697 60.959 167.786 60.6163 167.959L58.8957 168.915C58.7541 168.955 58.6299 169.041 58.5422 169.159C58.4546 169.277 58.4083 169.421 58.4104 169.567C58.4126 169.714 58.4632 169.856 58.5543 169.971C58.6455 170.086 58.7721 170.169 58.9149 170.205L58.9053 170.186ZM69.5556 171.802L67.8254 170.846C67.4844 170.674 67.1073 170.584 66.7248 170.584C66.3424 170.584 65.9653 170.674 65.6242 170.846L63.9036 171.802C63.2981 172.146 63.2981 172.758 63.9036 173.064L65.6339 174.02C65.9749 174.192 66.352 174.281 66.7345 174.281C67.1169 174.281 67.494 174.192 67.8351 174.02L69.5556 173.064C69.6809 173.015 69.7887 172.93 69.865 172.82C69.9412 172.71 69.9826 172.579 69.9836 172.445C69.9846 172.312 69.9453 172.181 69.8708 172.069C69.7962 171.958 69.6898 171.871 69.5653 171.821L69.5556 171.802ZM74.5636 174.67L72.8334 173.714C72.4917 173.544 72.1149 173.455 71.7328 173.455C71.3507 173.455 70.9739 173.544 70.6322 173.714L68.9116 174.67C68.777 174.714 68.6598 174.799 68.5767 174.913C68.4936 175.027 68.4489 175.164 68.4489 175.305C68.4489 175.446 68.4936 175.584 68.5767 175.698C68.6598 175.812 68.777 175.897 68.9116 175.941L70.6418 176.897C70.9846 177.069 71.3632 177.159 71.7472 177.159C72.1313 177.159 72.5099 177.069 72.8526 176.897L74.5732 175.941C74.7012 175.893 74.8114 175.807 74.8893 175.696C74.9671 175.584 75.0087 175.451 75.0087 175.315C75.0087 175.179 74.9671 175.046 74.8893 174.934C74.8114 174.822 74.7012 174.737 74.5732 174.689L74.5636 174.67ZM79.5716 177.538L77.8414 176.582C77.4993 176.407 77.1204 176.316 76.736 176.316C76.3516 176.316 75.9726 176.407 75.6306 176.582L73.91 177.538C73.7788 177.584 73.6652 177.669 73.5848 177.782C73.5045 177.895 73.4613 178.03 73.4613 178.168C73.4613 178.307 73.5045 178.442 73.5848 178.555C73.6652 178.668 73.7788 178.753 73.91 178.799L75.6402 179.755C75.9813 179.928 76.3583 180.017 76.7408 180.017C77.1233 180.017 77.5003 179.928 77.8414 179.755L79.562 178.799C80.1964 178.484 80.1868 177.92 79.5812 177.566L79.5716 177.538ZM84.57 180.405L82.8398 179.449C82.4987 179.277 82.1216 179.188 81.7392 179.188C81.3567 179.188 80.9796 179.277 80.6386 179.449L78.918 180.405C78.3124 180.75 78.3124 181.361 78.918 181.667L80.6482 182.623C80.9885 182.798 81.3659 182.889 81.7488 182.889C82.1317 182.889 82.509 182.798 82.8494 182.623L84.57 181.667C84.6895 181.616 84.7914 181.531 84.8633 181.423C84.9353 181.315 84.9741 181.188 84.9751 181.059C84.9761 180.929 84.9393 180.802 84.8691 180.693C84.7989 180.584 84.6983 180.497 84.5796 180.444L84.57 180.405ZM89.5779 183.273L87.8477 182.317C87.5067 182.145 87.1296 182.056 86.7471 182.056C86.3647 182.056 85.9876 182.145 85.6465 182.317L83.9259 183.273C83.7913 183.317 83.6741 183.403 83.591 183.517C83.5079 183.631 83.4632 183.768 83.4632 183.909C83.4632 184.05 83.5079 184.187 83.591 184.302C83.6741 184.416 83.7913 184.501 83.9259 184.545L85.6562 185.501C85.9995 185.671 86.3779 185.759 86.7616 185.759C87.1452 185.759 87.5236 185.671 87.867 185.501L89.5876 184.545C90.2027 184.229 90.1931 183.665 89.5876 183.312L89.5779 183.273ZM94.5859 186.141L92.8557 185.185C92.513 185.013 92.1343 184.923 91.7503 184.923C91.3663 184.923 90.9877 185.013 90.6449 185.185L88.9243 186.141C88.3187 186.485 88.3187 187.097 88.9243 187.403L90.6545 188.359C90.9956 188.531 91.3727 188.621 91.7551 188.621C92.1376 188.621 92.5147 188.531 92.8557 188.359L94.5763 187.403C94.6936 187.351 94.7935 187.267 94.8643 187.161C94.9351 187.054 94.9737 186.93 94.9757 186.802C94.9778 186.675 94.943 186.549 94.8757 186.44C94.8083 186.332 94.7111 186.245 94.5955 186.189L94.5859 186.141ZM93.9419 190.271L95.6721 191.227C96.0132 191.399 96.3902 191.489 96.7727 191.489C97.1552 191.489 97.5323 191.399 97.8733 191.227L99.5939 190.271C99.7285 190.227 99.8457 190.142 99.9288 190.028C100.012 189.914 100.057 189.776 100.057 189.635C100.057 189.494 100.012 189.357 99.9288 189.243C99.8457 189.129 99.7285 189.044 99.5939 189L97.8637 188.044C97.522 187.874 97.1452 187.785 96.7631 187.785C96.381 187.785 96.0042 187.874 95.6625 188.044L93.9419 189C93.7855 189.027 93.6441 189.109 93.5425 189.231C93.441 189.352 93.3859 189.505 93.3871 189.663C93.3882 189.821 93.4455 189.974 93.5488 190.094C93.6521 190.214 93.7948 190.293 93.9515 190.319L93.9419 190.271ZM104.592 191.887L102.862 190.931C102.52 190.756 102.141 190.665 101.757 190.665C101.372 190.665 100.993 190.756 100.651 190.931L98.9403 191.887C98.8091 191.933 98.6955 192.018 98.6151 192.131C98.5348 192.244 98.4916 192.379 98.4916 192.518C98.4916 192.656 98.5348 192.791 98.6151 192.904C98.6955 193.017 98.8091 193.103 98.9403 193.149L100.67 194.105C101.013 194.277 101.392 194.367 101.776 194.367C102.16 194.367 102.539 194.277 102.881 194.105L104.602 193.149C105.217 192.852 105.207 192.288 104.602 191.935L104.592 191.887ZM111.917 196.093L107.966 193.827C107.625 193.655 107.248 193.566 106.866 193.566C106.483 193.566 106.106 193.655 105.765 193.827L104.044 194.783C103.913 194.829 103.8 194.915 103.719 195.028C103.639 195.141 103.596 195.276 103.596 195.414C103.596 195.553 103.639 195.688 103.719 195.801C103.8 195.914 103.913 195.999 104.044 196.045L107.995 198.32C108.337 198.49 108.714 198.579 109.096 198.579C109.478 198.579 109.854 198.49 110.196 198.32L111.917 197.364C112.036 197.313 112.138 197.228 112.21 197.12C112.282 197.012 112.321 196.885 112.322 196.756C112.323 196.626 112.286 196.499 112.216 196.39C112.146 196.281 112.045 196.194 111.926 196.141L111.917 196.093ZM39.2675 164.24L43.2181 166.515C43.5598 166.685 43.9366 166.774 44.3187 166.774C44.7008 166.774 45.0776 166.685 45.4193 166.515L47.1399 165.559C47.2745 165.515 47.3917 165.43 47.4748 165.316C47.5579 165.202 47.6027 165.064 47.6027 164.923C47.6027 164.782 47.5579 164.645 47.4748 164.531C47.3917 164.417 47.2745 164.332 47.1399 164.288L43.1797 162.012C42.8423 161.845 42.4705 161.758 42.0935 161.758C41.7165 161.758 41.3446 161.845 41.0073 162.012L39.2867 162.968C38.6523 163.322 38.6523 163.924 39.2675 164.24ZM46.4959 168.389L48.2261 169.345C48.5671 169.517 48.9442 169.607 49.3267 169.607C49.7091 169.607 50.0862 169.517 50.4273 169.345L52.1479 168.389C52.7534 168.045 52.7534 167.433 52.1479 167.127L50.4177 166.171C50.0766 165.999 49.6995 165.909 49.3171 165.909C48.9346 165.909 48.5575 165.999 48.2165 166.171L46.4959 167.127C46.3647 167.173 46.2511 167.259 46.1707 167.371C46.0904 167.484 46.0472 167.619 46.0472 167.758C46.0472 167.896 46.0904 168.031 46.1707 168.144C46.2511 168.257 46.3647 168.343 46.4959 168.389ZM53.2244 172.213C53.5672 172.385 53.9458 172.475 54.3299 172.475C54.7139 172.475 55.0925 172.385 55.4353 172.213L57.1559 171.257C57.7614 170.903 57.7518 170.301 57.1559 169.985L55.4256 169.029C55.0822 168.859 54.7039 168.771 54.3202 168.771C53.9366 168.771 53.5582 168.859 53.2148 169.029L51.5039 169.985C51.3692 170.029 51.252 170.114 51.1689 170.229C51.0858 170.343 51.0411 170.48 51.0411 170.621C51.0411 170.762 51.0858 170.899 51.1689 171.013C51.252 171.128 51.3692 171.213 51.5039 171.257L53.2244 172.213ZM58.2324 175.081C58.5735 175.253 58.9506 175.343 59.333 175.343C59.7155 175.343 60.0926 175.253 60.4336 175.081L62.1542 174.125C62.2854 174.079 62.399 173.993 62.4794 173.88C62.5597 173.767 62.6029 173.632 62.6029 173.494C62.6029 173.355 62.5597 173.22 62.4794 173.107C62.399 172.994 62.2854 172.909 62.1542 172.863L60.4144 171.907C60.074 171.732 59.6967 171.641 59.3138 171.641C58.9309 171.641 58.5536 171.732 58.2132 171.907L56.4926 172.863C56.3614 172.909 56.2478 172.994 56.1674 173.107C56.0871 173.22 56.0439 173.355 56.0439 173.494C56.0439 173.632 56.0871 173.767 56.1674 173.88C56.2478 173.993 56.3614 174.079 56.4926 174.125L58.2324 175.081ZM63.2212 174.708L61.5006 175.664C60.895 176.008 60.895 176.572 61.5006 176.926L63.2308 177.882C63.5712 178.056 63.9485 178.147 64.3314 178.147C64.7143 178.147 65.0916 178.056 65.432 177.882L67.1526 176.926C67.2838 176.88 67.3974 176.794 67.4777 176.681C67.5581 176.568 67.6012 176.433 67.6012 176.295C67.6012 176.156 67.5581 176.021 67.4777 175.908C67.3974 175.795 67.2838 175.71 67.1526 175.664L65.4224 174.708C65.0776 174.543 64.6985 174.461 64.316 174.47C63.9336 174.478 63.5584 174.576 63.2212 174.756V174.708ZM68.3253 177.518L66.4028 178.627C66.2806 178.666 66.174 178.743 66.0983 178.846C66.0227 178.949 65.9819 179.073 65.9819 179.201C65.9819 179.329 66.0227 179.453 66.0983 179.556C66.174 179.659 66.2806 179.736 66.4028 179.775L68.3253 180.893C68.6353 181.048 68.9777 181.129 69.325 181.129C69.6722 181.129 70.0146 181.048 70.3246 180.893L72.2471 179.784C72.795 179.469 72.7854 178.962 72.2471 178.646L70.3246 177.528C70.011 177.381 69.6673 177.307 69.3204 177.314C68.9736 177.321 68.633 177.407 68.3253 177.566V177.518ZM73.3333 180.386L71.4108 181.495C71.2886 181.534 71.182 181.611 71.1063 181.714C71.0306 181.817 70.9899 181.941 70.9899 182.069C70.9899 182.196 71.0306 182.321 71.1063 182.424C71.182 182.527 71.2886 182.604 71.4108 182.642L73.3333 183.761C73.6416 183.916 73.9824 183.997 74.3281 183.997C74.6738 183.997 75.0146 183.916 75.323 183.761L77.2454 182.652C77.3677 182.613 77.4743 182.537 77.5499 182.433C77.6256 182.33 77.6664 182.206 77.6664 182.078C77.6664 181.951 77.6256 181.826 77.5499 181.723C77.4743 181.62 77.3677 181.544 77.2454 181.505L75.323 180.386C75.0101 180.24 74.6669 180.169 74.3212 180.179C73.9755 180.189 73.6371 180.279 73.3333 180.444V180.386ZM78.3412 183.254L76.4188 184.363C76.3 184.404 76.1971 184.481 76.1242 184.583C76.0514 184.685 76.0122 184.807 76.0122 184.932C76.0122 185.057 76.0514 185.179 76.1242 185.281C76.1971 185.383 76.3 185.46 76.4188 185.501L78.3412 186.619C78.6502 186.773 78.9908 186.852 79.3361 186.852C79.6814 186.852 80.022 186.773 80.331 186.619L82.2534 185.501C82.8013 185.195 82.8013 184.679 82.2534 184.363L80.331 183.245C80.0166 183.101 79.6726 183.033 79.3269 183.046C78.9812 183.06 78.6435 183.154 78.3412 183.321V183.254ZM83.3396 186.122L81.4172 187.231C81.2949 187.27 81.1883 187.347 81.1127 187.45C81.037 187.553 80.9962 187.677 80.9962 187.805C80.9962 187.932 81.037 188.057 81.1127 188.16C81.1883 188.263 81.2949 188.339 81.4172 188.378L83.3396 189.497C83.6497 189.652 83.992 189.733 84.3393 189.733C84.6865 189.733 85.0289 189.652 85.339 189.497L87.2614 188.388C87.8093 188.072 87.7997 187.566 87.2614 187.241L85.339 186.132C85.0194 185.979 84.6676 185.904 84.313 185.914C83.9585 185.924 83.6115 186.018 83.3012 186.189L83.3396 186.122ZM88.3476 188.99L86.4251 190.099C85.8772 190.415 85.8772 190.921 86.4251 191.246L88.3476 192.355C88.6559 192.511 88.9968 192.592 89.3425 192.592C89.6881 192.592 90.029 192.511 90.3373 192.355L92.2598 191.246C92.382 191.207 92.4886 191.131 92.5643 191.028C92.6399 190.925 92.6807 190.8 92.6807 190.673C92.6807 190.545 92.6399 190.421 92.5643 190.318C92.4886 190.215 92.382 190.138 92.2598 190.099L90.3373 188.981C90.0222 188.838 89.6778 188.772 89.3321 188.787C88.9864 188.802 88.6491 188.898 88.3476 189.067V188.99ZM95.3645 195.233L97.287 194.124C97.8349 193.808 97.8349 193.302 97.287 192.986L95.3645 191.868C95.0555 191.714 94.7149 191.635 94.3697 191.635C94.0244 191.635 93.6838 191.714 93.3748 191.868L91.4523 192.977C91.3301 193.015 91.2235 193.092 91.1478 193.195C91.0722 193.298 91.0314 193.423 91.0314 193.55C91.0314 193.678 91.0722 193.802 91.1478 193.905C91.2235 194.008 91.3301 194.085 91.4523 194.124L93.3748 195.242C93.6778 195.408 94.0159 195.501 94.3616 195.512C94.7073 195.524 95.0509 195.454 95.3645 195.309V195.233ZM100.372 198.101L102.295 196.992C102.417 196.953 102.524 196.876 102.599 196.773C102.675 196.67 102.716 196.546 102.716 196.418C102.716 196.29 102.675 196.166 102.599 196.063C102.524 195.96 102.417 195.883 102.295 195.844L100.372 194.726C100.062 194.571 99.7201 194.49 99.3728 194.49C99.0256 194.49 98.6832 194.571 98.3732 194.726L96.4507 195.835C96.3285 195.874 96.2219 195.95 96.1462 196.053C96.0705 196.157 96.0298 196.281 96.0298 196.409C96.0298 196.536 96.0705 196.66 96.1462 196.764C96.2219 196.867 96.3285 196.943 96.4507 196.982L98.3732 198.101C98.6764 198.27 99.0153 198.365 99.3625 198.38C99.7098 198.395 100.056 198.329 100.372 198.187V198.101ZM107.399 198.779L105.477 197.661C105.168 197.505 104.827 197.424 104.482 197.424C104.136 197.424 103.795 197.505 103.487 197.661L101.564 198.77C101.017 199.085 101.017 199.592 101.564 199.917L103.487 201.026C103.795 201.184 104.136 201.266 104.482 201.266C104.828 201.266 105.169 201.184 105.477 201.026L107.399 199.917C107.493 199.865 107.571 199.788 107.626 199.696C107.681 199.604 107.709 199.498 107.709 199.391C107.709 199.284 107.681 199.179 107.626 199.086C107.571 198.994 107.493 198.918 107.399 198.865V198.779ZM34.5286 166.84L40.7958 170.444C41.1059 170.6 41.4483 170.681 41.7955 170.681C42.1427 170.681 42.4851 170.6 42.7952 170.444L44.7176 169.335C45.2655 169.029 45.2559 168.513 44.7176 168.198L38.4408 164.594C38.1325 164.438 37.7916 164.357 37.4459 164.357C37.1003 164.357 36.7594 164.438 36.4511 164.594L34.5286 165.703C33.9711 166.008 33.9711 166.525 34.5286 166.84ZM43.891 172.203L45.8134 173.322C46.1218 173.477 46.4626 173.558 46.8083 173.558C47.154 173.558 47.4948 173.477 47.8031 173.322L49.7256 172.213C50.2735 171.897 50.2735 171.391 49.7256 171.066L47.8031 169.957C47.4955 169.799 47.1544 169.717 46.8083 169.717C46.4622 169.717 46.1211 169.799 45.8134 169.957L43.891 171.066C43.7722 171.107 43.6693 171.184 43.5964 171.285C43.5236 171.387 43.4844 171.509 43.4844 171.634C43.4844 171.759 43.5236 171.881 43.5964 171.983C43.6693 172.085 43.7722 172.162 43.891 172.203ZM48.8893 175.071L50.8118 176.18C51.1201 176.335 51.461 176.416 51.8066 176.416C52.1523 176.416 52.4931 176.335 52.8015 176.18L54.724 175.071C54.8462 175.032 54.9528 174.956 55.0285 174.853C55.1041 174.749 55.1449 174.625 55.1449 174.498C55.1449 174.37 55.1041 174.246 55.0285 174.142C54.9528 174.039 54.8462 173.963 54.724 173.924L52.8015 172.805C52.4931 172.65 52.1523 172.569 51.8066 172.569C51.461 172.569 51.1201 172.65 50.8118 172.805L48.8893 173.914C48.3126 174.249 48.3126 174.756 48.8605 175.081L48.8893 175.071ZM53.8973 177.939L55.8198 179.058C56.1298 179.213 56.4722 179.294 56.8194 179.294C57.1667 179.294 57.5091 179.213 57.8191 179.058L59.7416 177.949C60.2894 177.633 60.2798 177.126 59.7416 176.811L57.8191 175.692C57.5084 175.539 57.1663 175.459 56.8194 175.459C56.4726 175.459 56.1305 175.539 55.8198 175.692L53.8973 176.801C53.774 176.837 53.6653 176.911 53.587 177.012C53.5087 177.113 53.4647 177.237 53.4615 177.365C53.4583 177.492 53.496 177.618 53.5692 177.723C53.6423 177.828 53.7471 177.907 53.8685 177.949L53.8973 177.939ZM62.8367 181.935L64.7591 180.826C64.8814 180.787 64.988 180.711 65.0636 180.608C65.1393 180.504 65.1801 180.38 65.1801 180.253C65.1801 180.125 65.1393 180.001 65.0636 179.897C64.988 179.794 64.8814 179.718 64.7591 179.679L62.8367 178.56C62.5283 178.405 62.1875 178.324 61.8418 178.324C61.4961 178.324 61.1553 178.405 60.847 178.56L58.9245 179.669C58.8023 179.708 58.6957 179.785 58.62 179.888C58.5443 179.991 58.5036 180.115 58.5036 180.243C58.5036 180.371 58.5443 180.495 58.62 180.598C58.6957 180.701 58.8023 180.778 58.9245 180.817L60.847 181.925C61.1494 182.081 61.4845 182.164 61.8251 182.168C62.1657 182.171 62.5024 182.095 62.8078 181.945L62.8367 181.935ZM67.8447 184.803L69.7671 183.694C70.315 183.388 70.315 182.872 69.7671 182.556L67.8447 181.438C67.5363 181.283 67.1955 181.202 66.8498 181.202C66.5041 181.202 66.1633 181.283 65.8549 181.438L63.9325 182.547C63.8137 182.588 63.7108 182.665 63.6379 182.767C63.5651 182.869 63.5259 182.991 63.5259 183.116C63.5259 183.241 63.5651 183.363 63.6379 183.465C63.7108 183.567 63.8137 183.643 63.9325 183.684L65.8549 184.803C66.1588 184.955 66.494 185.035 66.8343 185.037C67.1745 185.039 67.5105 184.962 67.8158 184.813L67.8447 184.803ZM72.8526 187.671L74.7751 186.562C75.323 186.246 75.3134 185.74 74.7751 185.415L72.8526 184.306C72.5433 184.148 72.2006 184.066 71.853 184.066C71.5053 184.066 71.1627 184.148 70.8533 184.306L68.9309 185.415C68.8086 185.454 68.702 185.53 68.6264 185.633C68.5507 185.736 68.5099 185.861 68.5099 185.988C68.5099 186.116 68.5507 186.24 68.6264 186.343C68.702 186.447 68.8086 186.523 68.9309 186.562L70.8533 187.68C71.1589 187.833 71.4956 187.913 71.8374 187.915C72.1792 187.916 72.5168 187.839 72.8238 187.69L72.8526 187.671ZM77.851 190.539L79.7735 189.43C79.8957 189.391 80.0023 189.314 80.078 189.211C80.1536 189.108 80.1944 188.984 80.1944 188.856C80.1944 188.729 80.1536 188.604 80.078 188.501C80.0023 188.398 79.8957 188.322 79.7735 188.283L77.851 187.164C77.5427 187.009 77.2018 186.928 76.8561 186.928C76.5105 186.928 76.1696 187.009 75.8613 187.164L73.9388 188.273C73.3909 188.589 73.3909 189.095 73.9388 189.42L75.8613 190.529C76.1629 190.686 76.497 190.771 76.8372 190.778C77.1774 190.784 77.5146 190.712 77.8222 190.567L77.851 190.539ZM82.859 193.407L84.7814 192.298C85.3293 191.982 85.3293 191.476 84.7814 191.16L82.859 190.042C82.5506 189.886 82.2098 189.805 81.8641 189.805C81.5184 189.805 81.1776 189.886 80.8693 190.042L78.9468 191.151C78.8246 191.19 78.718 191.266 78.6423 191.369C78.5667 191.472 78.5259 191.597 78.5259 191.724C78.5259 191.852 78.5667 191.976 78.6423 192.079C78.718 192.182 78.8246 192.259 78.9468 192.298L80.8693 193.416C81.1724 193.57 81.5072 193.652 81.8474 193.655C82.1877 193.658 82.5241 193.583 82.8302 193.435L82.859 193.407ZM87.867 196.275L89.7894 195.166C89.9116 195.127 90.0183 195.05 90.0939 194.947C90.1696 194.844 90.2103 194.72 90.2103 194.592C90.2103 194.465 90.1696 194.34 90.0939 194.237C90.0183 194.134 89.9116 194.057 89.7894 194.019L87.867 192.9C87.5569 192.745 87.2145 192.664 86.8673 192.664C86.5201 192.664 86.1777 192.745 85.8676 192.9L83.9452 194.009C83.823 194.048 83.7163 194.124 83.6407 194.228C83.565 194.331 83.5242 194.455 83.5242 194.583C83.5242 194.71 83.565 194.835 83.6407 194.938C83.7163 195.041 83.823 195.117 83.9452 195.156L85.8676 196.265C86.1695 196.426 86.505 196.513 86.8472 196.522C87.1894 196.53 87.5287 196.459 87.8381 196.313L87.867 196.275ZM88.9339 198.024L90.8564 199.143C91.1647 199.298 91.5056 199.379 91.8512 199.379C92.1969 199.379 92.5378 199.298 92.8461 199.143L94.7686 198.034C95.3165 197.728 95.3165 197.212 94.7686 196.896L92.8461 195.778C92.5378 195.622 92.1969 195.541 91.8512 195.541C91.5056 195.541 91.1647 195.622 90.8564 195.778L88.9339 196.886C88.3476 197.24 88.3476 197.747 88.9051 198.062L88.9339 198.024ZM102.795 201.485L97.8541 198.617C97.5464 198.459 97.2053 198.377 96.8592 198.377C96.5131 198.377 96.172 198.459 95.8644 198.617L93.9419 199.726C93.8197 199.765 93.7131 199.841 93.6374 199.944C93.5617 200.047 93.521 200.172 93.521 200.299C93.521 200.427 93.5617 200.551 93.6374 200.654C93.7131 200.757 93.8197 200.834 93.9419 200.873L98.8826 203.741C99.1926 203.896 99.535 203.977 99.8823 203.977C100.23 203.977 100.572 203.896 100.882 203.741L102.804 202.632C103.323 202.355 103.314 201.848 102.766 201.523L102.795 201.485ZM29.9051 169.66L38.8157 174.775C39.1647 174.949 39.5498 175.039 39.9403 175.039C40.3308 175.039 40.7159 174.949 41.065 174.775L42.7375 173.819C42.8732 173.772 42.9909 173.684 43.0741 173.567C43.1574 173.451 43.2021 173.312 43.2021 173.169C43.2021 173.026 43.1574 172.886 43.0741 172.77C42.9909 172.653 42.8732 172.566 42.7375 172.519L33.8366 167.414C33.4884 167.237 33.1029 167.144 32.7119 167.144C32.3209 167.144 31.9354 167.237 31.5873 167.414L29.9148 168.37C29.7775 168.413 29.6576 168.499 29.5722 168.614C29.4867 168.729 29.4401 168.868 29.4391 169.012C29.438 169.155 29.4825 169.295 29.5662 169.411C29.6499 169.528 29.7686 169.615 29.9051 169.66ZM42.1319 176.677L43.8141 177.633C44.1622 177.81 44.5477 177.902 44.9387 177.902C45.3297 177.902 45.7152 177.81 46.0633 177.633L47.7455 176.677C48.3606 176.323 48.3606 175.721 47.7455 175.387L46.0633 174.431C45.7132 174.254 45.3263 174.162 44.9339 174.162C44.5414 174.162 44.1545 174.254 43.8044 174.431L42.1319 175.387C42.0017 175.435 41.8895 175.522 41.8102 175.635C41.731 175.749 41.6886 175.884 41.6886 176.022C41.6886 176.161 41.731 176.296 41.8102 176.409C41.8895 176.523 42.0017 176.61 42.1319 176.658V176.677ZM47.1399 179.545L48.822 180.501C49.1702 180.678 49.5556 180.77 49.9467 180.77C50.3377 180.77 50.7231 180.678 51.0713 180.501L52.7438 179.545C53.3686 179.191 53.359 178.589 52.7438 178.255L51.0617 177.299C50.7135 177.121 50.3281 177.029 49.9371 177.029C49.546 177.029 49.1606 177.121 48.8124 177.299L47.1399 178.255C46.5055 178.599 46.5151 179.22 47.1399 179.536V179.545ZM52.1383 182.413L53.8204 183.369C54.1711 183.543 54.5578 183.634 54.9498 183.634C55.3419 183.634 55.7285 183.543 56.0793 183.369L57.7518 182.413C58.367 182.059 58.367 181.457 57.7518 181.122L56.0697 180.166C55.7215 179.989 55.3361 179.897 54.945 179.897C54.554 179.897 54.1686 179.989 53.8204 180.166L52.1479 181.122C52.0141 181.168 51.8978 181.254 51.8151 181.368C51.7324 181.482 51.6875 181.619 51.6864 181.76C51.6853 181.9 51.7283 182.038 51.8092 182.153C51.8902 182.268 52.0051 182.356 52.1383 182.403V182.413ZM57.1462 185.281L58.8284 186.237C59.1765 186.414 59.562 186.506 59.953 186.506C60.344 186.506 60.7295 186.414 61.0777 186.237L62.7502 185.281C62.8871 185.237 63.0063 185.15 63.0909 185.034C63.1755 184.918 63.221 184.779 63.221 184.636C63.221 184.492 63.1755 184.353 63.0909 184.237C63.0063 184.121 62.8871 184.035 62.7502 183.99L61.068 183.034C60.718 182.858 60.331 182.766 59.9386 182.766C59.5462 182.766 59.1592 182.858 58.8092 183.034L57.1366 183.99C57.0001 184.036 56.8814 184.123 56.7977 184.24C56.714 184.356 56.6695 184.496 56.6706 184.639C56.6716 184.782 56.7182 184.922 56.8037 185.037C56.8891 185.152 57.009 185.238 57.1462 185.281ZM62.1542 188.149L63.8364 189.105C64.1854 189.279 64.5705 189.37 64.961 189.37C65.3515 189.37 65.7366 189.279 66.0856 189.105L67.7582 188.149C68.383 187.786 68.3733 187.193 67.7582 186.849L66.076 185.893C65.727 185.719 65.3419 185.628 64.9514 185.628C64.5609 185.628 64.1758 185.719 63.8267 185.893L62.1542 186.868C61.5198 187.222 61.5294 187.824 62.1542 188.158V188.149ZM67.1526 191.017L68.8347 191.973C69.1848 192.149 69.5717 192.241 69.9642 192.241C70.3566 192.241 70.7435 192.149 71.0936 191.973L72.7661 191.017C73.3813 190.663 73.3813 190.061 72.7661 189.726L71.084 188.77C70.7358 188.593 70.3504 188.501 69.9594 188.501C69.5683 188.501 69.1829 188.593 68.8347 188.77L67.1526 189.726C67.012 189.768 66.8889 189.854 66.8013 189.971C66.7137 190.088 66.6664 190.23 66.6664 190.376C66.6664 190.522 66.7137 190.664 66.8013 190.781C66.8889 190.898 67.012 190.984 67.1526 191.026V191.017ZM72.1606 193.885L73.8427 194.841C74.1909 195.018 74.5763 195.11 74.9673 195.11C75.3584 195.11 75.7438 195.018 76.092 194.841L77.7645 193.885C77.9014 193.84 78.0207 193.754 78.1052 193.638C78.1898 193.522 78.2353 193.383 78.2353 193.239C78.2353 193.096 78.1898 192.957 78.1052 192.841C78.0207 192.725 77.9014 192.639 77.7645 192.594L76.0728 191.638C75.7237 191.464 75.3386 191.373 74.9481 191.373C74.5576 191.373 74.1725 191.464 73.8235 191.638L72.151 192.594C71.5358 192.967 71.5358 193.56 72.1606 193.904V193.885ZM77.1685 196.753L78.8507 197.709C79.1997 197.883 79.5848 197.973 79.9753 197.973C80.3658 197.973 80.7509 197.883 81.0999 197.709L82.7725 196.753C83.3973 196.399 83.3877 195.797 82.7725 195.462L81.0903 194.506C80.7422 194.329 80.3567 194.237 79.9657 194.237C79.5747 194.237 79.1892 194.329 78.8411 194.506L77.1685 195.462C76.5726 195.835 76.5726 196.428 77.1685 196.772V196.753ZM82.1669 199.621L83.8491 200.577C84.1991 200.753 84.5861 200.845 84.9785 200.845C85.3709 200.845 85.7579 200.753 86.1079 200.577L87.7805 199.621C87.9174 199.576 88.0366 199.49 88.1212 199.374C88.2057 199.258 88.2513 199.119 88.2513 198.975C88.2513 198.832 88.2057 198.693 88.1212 198.577C88.0366 198.461 87.9174 198.374 87.7805 198.33L86.0983 197.374C85.7502 197.197 85.3647 197.105 84.9737 197.105C84.5827 197.105 84.1972 197.197 83.8491 197.374L82.1669 198.33C82.0182 198.366 81.8859 198.45 81.7913 198.57C81.6967 198.69 81.6453 198.837 81.6453 198.99C81.6453 199.142 81.6967 199.29 81.7913 199.409C81.8859 199.529 82.0182 199.613 82.1669 199.649V199.621ZM87.1749 202.489L88.857 203.444C89.2061 203.619 89.5912 203.709 89.9817 203.709C90.3721 203.709 90.7572 203.619 91.1063 203.444L92.7788 202.489C92.9145 202.442 93.0322 202.354 93.1154 202.237C93.1987 202.121 93.2434 201.981 93.2434 201.838C93.2434 201.696 93.1987 201.556 93.1154 201.44C93.0322 201.323 92.9145 201.235 92.7788 201.188L91.0871 200.232C90.738 200.058 90.3529 199.968 89.9624 199.968C89.572 199.968 89.1869 200.058 88.8378 200.232L87.146 201.208C87.0032 201.25 86.8779 201.337 86.7889 201.456C86.6998 201.575 86.6517 201.719 86.6517 201.867C86.6517 202.015 86.6998 202.16 86.7889 202.278C86.8779 202.397 87.0032 202.484 87.146 202.527L87.1749 202.489ZM97.8925 204.142L96.2104 203.186C95.8603 203.01 95.4734 202.918 95.081 202.918C94.6885 202.918 94.3016 203.01 93.9515 203.186L92.279 204.142C91.6638 204.496 91.6638 205.098 92.279 205.433L93.9611 206.389C94.3086 206.568 94.6943 206.662 95.0858 206.662C95.4772 206.662 95.8629 206.568 96.2104 206.389L97.8925 205.433C98.0167 205.381 98.1227 205.294 98.1973 205.183C98.2718 205.071 98.3116 204.941 98.3116 204.807C98.3116 204.673 98.2718 204.542 98.1973 204.431C98.1227 204.319 98.0167 204.232 97.8925 204.181V204.142ZM33.0964 172.299L29.1938 170.052C28.8438 169.876 28.4568 169.784 28.0644 169.784C27.672 169.784 27.285 169.876 26.935 170.052L25.2624 171.008C25.1255 171.053 25.0063 171.139 24.9217 171.255C24.8371 171.371 24.7916 171.51 24.7916 171.653C24.7916 171.797 24.8371 171.936 24.9217 172.052C25.0063 172.168 25.1255 172.254 25.2624 172.299L29.165 174.545C29.5142 174.725 29.9014 174.818 30.2944 174.818C30.6874 174.818 31.0747 174.725 31.4239 174.545L33.0964 173.589C33.2333 173.545 33.3526 173.459 33.4371 173.343C33.5217 173.227 33.5672 173.087 33.5672 172.944C33.5672 172.801 33.5217 172.661 33.4371 172.545C33.3526 172.43 33.2333 172.343 33.0964 172.299ZM38.1044 175.167L36.4126 174.211C36.0636 174.037 35.6785 173.946 35.288 173.946C34.8975 173.946 34.5124 174.037 34.1634 174.211L32.4908 175.167C32.3539 175.211 32.2347 175.297 32.1501 175.413C32.0655 175.529 32.02 175.669 32.02 175.812C32.02 175.955 32.0655 176.095 32.1501 176.211C32.2347 176.327 32.3539 176.413 32.4908 176.457L34.173 177.413C34.522 177.587 34.9071 177.678 35.2976 177.678C35.6881 177.678 36.0732 177.587 36.4222 177.413L38.0948 176.457C38.2284 176.411 38.3447 176.326 38.428 176.212C38.5113 176.099 38.5576 175.963 38.5608 175.822C38.5639 175.681 38.5237 175.543 38.4455 175.426C38.3674 175.309 38.255 175.218 38.1236 175.167H38.1044ZM43.1028 178.035L41.4206 177.079C41.0725 176.902 40.687 176.809 40.296 176.809C39.9049 176.809 39.5195 176.902 39.1713 177.079L37.4988 178.035C37.3619 178.079 37.2427 178.165 37.1581 178.281C37.0735 178.397 37.028 178.537 37.028 178.68C37.028 178.823 37.0735 178.963 37.1581 179.079C37.2427 179.194 37.3619 179.281 37.4988 179.325L39.1906 180.281C39.5387 180.458 39.9242 180.551 40.3152 180.551C40.7062 180.551 41.0917 180.458 41.4398 180.281L43.1124 179.325C43.2455 179.278 43.3605 179.19 43.4414 179.075C43.5224 178.959 43.5653 178.822 43.5642 178.681C43.5632 178.541 43.5182 178.404 43.4355 178.29C43.3529 178.176 43.2366 178.09 43.1028 178.044V178.035ZM78.1394 198.11L46.419 179.947C46.0699 179.773 45.6848 179.682 45.2943 179.682C44.9039 179.682 44.5188 179.773 44.1697 179.947L42.4876 180.903C42.3519 180.95 42.2342 181.037 42.1509 181.154C42.0677 181.27 42.023 181.41 42.023 181.553C42.023 181.696 42.0677 181.835 42.1509 181.951C42.2342 182.068 42.3519 182.156 42.4876 182.203L74.208 200.366C74.5561 200.543 74.9416 200.636 75.3326 200.636C75.7236 200.636 76.1091 200.543 76.4572 200.366L78.1394 199.41C78.7642 199.095 78.7642 198.521 78.1394 198.158V198.11ZM83.1377 200.978L81.4556 200.022C81.1074 199.845 80.722 199.753 80.331 199.753C79.9399 199.753 79.5545 199.845 79.2063 200.022L77.5338 200.978C76.909 201.332 76.9186 201.934 77.5338 202.269L79.216 203.225C79.5641 203.402 79.9496 203.494 80.3406 203.494C80.7316 203.494 81.1171 203.402 81.4652 203.225L83.1377 202.269C83.7722 201.972 83.7625 201.389 83.1377 201.035V200.978ZM88.1457 203.846L86.4636 202.89C86.1154 202.713 85.73 202.621 85.339 202.621C84.9479 202.621 84.5625 202.713 84.2143 202.89L82.5418 203.846C82.4049 203.89 82.2856 203.977 82.2011 204.093C82.1165 204.209 82.0709 204.348 82.0709 204.491C82.0709 204.634 82.1165 204.774 82.2011 204.89C82.2856 205.006 82.4049 205.092 82.5418 205.137L84.2335 206.093C84.5826 206.267 84.9677 206.357 85.3582 206.357C85.7487 206.357 86.1338 206.267 86.4828 206.093L88.1553 205.137C88.2688 205.075 88.3627 204.984 88.4265 204.872C88.4903 204.761 88.5215 204.633 88.5165 204.505C88.5115 204.377 88.4705 204.253 88.3982 204.146C88.3259 204.04 88.2251 203.956 88.1073 203.903L88.1457 203.846ZM93.2594 206.781L91.5677 205.825C91.2195 205.648 90.8341 205.556 90.4431 205.556C90.052 205.556 89.6666 205.648 89.3184 205.825L87.6459 206.781C87.509 206.825 87.3897 206.912 87.3052 207.027C87.2206 207.143 87.175 207.283 87.175 207.426C87.175 207.569 87.2206 207.709 87.3052 207.825C87.3897 207.941 87.509 208.027 87.6459 208.071L89.328 209.027C89.6762 209.204 90.0616 209.297 90.4527 209.297C90.8437 209.297 91.2291 209.204 91.5773 209.027L93.2498 208.071C93.8746 207.775 93.8746 207.201 93.2594 206.838V206.781Z" fill="#C6C6C6"/>
<path d="M48.3991 158.38L52.6189 160.798C52.9167 160.949 53.2461 161.027 53.5801 161.027C53.9141 161.027 54.2434 160.949 54.5413 160.798C55.07 160.493 55.07 159.995 54.5413 159.68L50.3312 157.233C50.0331 157.083 49.7038 157.005 49.3699 157.005C49.036 157.005 48.7068 157.083 48.4087 157.233C48.2808 157.265 48.1671 157.338 48.0855 157.441C48.004 157.544 47.9591 157.671 47.958 157.803C47.9569 157.934 47.9996 158.062 48.0795 158.166C48.1593 158.271 48.2717 158.346 48.3991 158.38ZM55.6275 162.529L57.6268 163.676C57.9256 163.823 58.2546 163.9 58.5881 163.9C58.9216 163.9 59.2505 163.823 59.5493 163.676C59.667 163.638 59.7695 163.564 59.8422 163.464C59.9149 163.364 59.954 163.245 59.954 163.121C59.954 162.998 59.9149 162.878 59.8422 162.779C59.7695 162.679 59.667 162.605 59.5493 162.567L57.5499 161.42C57.2512 161.272 56.9222 161.196 56.5887 161.196C56.2552 161.196 55.9262 161.272 55.6275 161.42C55.5142 161.462 55.4167 161.538 55.3479 161.637C55.279 161.736 55.2421 161.854 55.2421 161.974C55.2421 162.095 55.279 162.212 55.3479 162.311C55.4167 162.41 55.5142 162.486 55.6275 162.529ZM60.6355 165.397L62.6348 166.544C62.9322 166.696 63.2617 166.775 63.596 166.775C63.9303 166.775 64.2598 166.696 64.5573 166.544C65.0956 166.238 65.0859 165.741 64.5573 165.425L62.5579 164.278C62.2592 164.131 61.9302 164.054 61.5967 164.054C61.2632 164.054 60.9342 164.131 60.6355 164.278C60.5141 164.314 60.4077 164.388 60.3319 164.488C60.2562 164.589 60.2153 164.712 60.2153 164.837C60.2153 164.963 60.2562 165.086 60.3319 165.187C60.4077 165.287 60.5141 165.361 60.6355 165.397ZM65.6338 168.265L67.6332 169.412C67.9319 169.559 68.2609 169.636 68.5944 169.636C68.9279 169.636 69.2569 169.559 69.5556 169.412C69.6733 169.374 69.7758 169.299 69.8485 169.2C69.9212 169.1 69.9604 168.98 69.9604 168.857C69.9604 168.734 69.9212 168.614 69.8485 168.515C69.7758 168.415 69.6733 168.341 69.5556 168.303L67.5563 167.156C67.2582 167.006 66.929 166.928 66.5951 166.928C66.2612 166.928 65.9319 167.006 65.6338 167.156C65.5125 167.191 65.406 167.265 65.3303 167.366C65.2546 167.467 65.2136 167.589 65.2136 167.715C65.2136 167.841 65.2546 167.963 65.3303 168.064C65.406 168.165 65.5125 168.239 65.6338 168.274V168.265ZM70.6418 171.133L72.6412 172.28C72.9399 172.427 73.2689 172.504 73.6024 172.504C73.9359 172.504 74.2649 172.427 74.5636 172.28C74.6813 172.242 74.7838 172.167 74.8565 172.068C74.9292 171.968 74.9683 171.848 74.9683 171.725C74.9683 171.602 74.9292 171.482 74.8565 171.383C74.7838 171.283 74.6813 171.209 74.5636 171.171L72.5643 170.024C72.2664 169.873 71.9371 169.795 71.603 169.795C71.269 169.795 70.9397 169.873 70.6418 170.024C70.1035 170.339 70.1035 170.836 70.6418 171.152V171.133ZM75.6498 174L77.6491 175.148C77.9466 175.299 78.2761 175.379 78.6104 175.379C78.9447 175.379 79.2742 175.299 79.5716 175.148C79.6881 175.107 79.789 175.031 79.8604 174.931C79.9318 174.831 79.9701 174.711 79.9701 174.588C79.9701 174.466 79.9318 174.346 79.8604 174.246C79.789 174.145 79.6881 174.07 79.5716 174.029L77.5722 172.882C77.2735 172.735 76.9445 172.658 76.611 172.658C76.2775 172.658 75.9485 172.735 75.6498 172.882C75.5188 172.907 75.4001 172.975 75.3133 173.075C75.2265 173.176 75.1767 173.303 75.1723 173.435C75.1678 173.568 75.2088 173.698 75.2887 173.804C75.3685 173.91 75.4823 173.986 75.6113 174.02L75.6498 174ZM80.6482 176.868L82.6475 178.016C82.9463 178.163 83.2752 178.24 83.6087 178.24C83.9422 178.24 84.2712 178.163 84.57 178.016C84.6876 177.977 84.7901 177.903 84.8628 177.804C84.9355 177.704 84.9747 177.584 84.9747 177.461C84.9747 177.338 84.9355 177.218 84.8628 177.119C84.7901 177.019 84.6876 176.945 84.57 176.907L82.5706 175.759C82.2725 175.61 81.9433 175.532 81.6094 175.532C81.2755 175.532 80.9463 175.61 80.6482 175.759C80.5245 175.795 80.4159 175.87 80.3387 175.973C80.2615 176.075 80.2197 176.2 80.2197 176.328C80.2197 176.456 80.2615 176.581 80.3387 176.684C80.4159 176.786 80.5245 176.861 80.6482 176.897V176.868ZM85.6561 179.736L87.6555 180.884C87.9534 181.034 88.2827 181.112 88.6167 181.112C88.9507 181.112 89.2801 181.034 89.5779 180.884C90.1066 180.578 90.1066 180.08 89.5779 179.765L87.5786 178.618C87.2798 178.47 86.9509 178.394 86.6174 178.394C86.2839 178.394 85.9549 178.47 85.6561 178.618C85.5212 178.642 85.3992 178.713 85.3114 178.818C85.2236 178.923 85.1755 179.055 85.1755 179.191C85.1755 179.328 85.2236 179.46 85.3114 179.565C85.3992 179.67 85.5212 179.74 85.6561 179.765V179.736ZM90.6641 182.604L92.6635 183.751C92.9616 183.901 93.2908 183.979 93.6247 183.979C93.9586 183.979 94.2878 183.901 94.5859 183.751C94.7036 183.713 94.8061 183.639 94.8788 183.54C94.9515 183.44 94.9906 183.32 94.9906 183.197C94.9906 183.074 94.9515 182.954 94.8788 182.854C94.8061 182.755 94.7036 182.681 94.5859 182.643L92.5866 181.495C92.2878 181.348 91.9588 181.271 91.6253 181.271C91.2918 181.271 90.9629 181.348 90.6641 181.495C90.5292 181.52 90.4072 181.591 90.3194 181.696C90.2316 181.8 90.1835 181.933 90.1835 182.069C90.1835 182.205 90.2316 182.337 90.3194 182.442C90.4072 182.547 90.5292 182.618 90.6641 182.643V182.604ZM95.6625 185.472L97.6618 186.619C97.9606 186.767 98.2896 186.843 98.623 186.843C98.9565 186.843 99.2855 186.767 99.5843 186.619C99.7019 186.581 99.8044 186.507 99.8771 186.407C99.9498 186.308 99.989 186.188 99.989 186.065C99.989 185.942 99.9498 185.822 99.8771 185.722C99.8044 185.623 99.7019 185.549 99.5843 185.51L97.5849 184.363C97.2875 184.211 96.958 184.132 96.6237 184.132C96.2894 184.132 95.9599 184.211 95.6625 184.363C95.1242 184.707 95.1242 185.205 95.6625 185.52V185.472ZM100.67 188.34L102.67 189.487C102.968 189.637 103.297 189.715 103.631 189.715C103.965 189.715 104.294 189.637 104.592 189.487C104.709 189.447 104.81 189.371 104.881 189.271C104.952 189.171 104.991 189.051 104.991 188.928C104.991 188.805 104.952 188.686 104.881 188.585C104.81 188.485 104.709 188.409 104.592 188.369L102.593 187.222C102.294 187.074 101.965 186.998 101.632 186.998C101.298 186.998 100.969 187.074 100.67 187.222C100.515 187.222 100.366 187.283 100.256 187.392C100.146 187.502 100.084 187.65 100.084 187.805C100.084 187.959 100.146 188.108 100.256 188.217C100.366 188.326 100.515 188.388 100.67 188.388V188.34ZM105.678 191.208L107.678 192.355C107.976 192.505 108.305 192.583 108.639 192.583C108.973 192.583 109.302 192.505 109.6 192.355C109.718 192.317 109.82 192.243 109.893 192.143C109.966 192.044 110.005 191.924 110.005 191.801C110.005 191.678 109.966 191.558 109.893 191.458C109.82 191.359 109.718 191.284 109.6 191.246L107.601 190.099C107.302 189.952 106.973 189.875 106.64 189.875C106.306 189.875 105.977 189.952 105.678 190.099C105.131 190.453 105.14 190.96 105.678 191.265V191.208ZM110.783 194.143L112.782 195.29C113.081 195.438 113.41 195.514 113.743 195.514C114.077 195.514 114.406 195.438 114.704 195.29C114.822 195.252 114.925 195.178 114.997 195.078C115.07 194.979 115.109 194.859 115.109 194.736C115.109 194.613 115.07 194.493 114.997 194.393C114.925 194.293 114.822 194.219 114.704 194.181L112.705 193.034C112.407 192.884 112.078 192.805 111.744 192.805C111.41 192.805 111.08 192.884 110.783 193.034C110.215 193.388 110.215 193.885 110.783 194.2V194.143ZM43.891 161.114L45.6212 162.07C45.9639 162.242 46.3425 162.332 46.7266 162.332C47.1106 162.332 47.4892 162.242 47.832 162.07L49.543 161.114C50.1581 160.77 50.1485 160.206 49.543 159.852L47.8127 158.896C47.4707 158.722 47.0918 158.631 46.7073 158.631C46.3229 158.631 45.944 158.722 45.6019 158.896L43.8813 159.852C43.7505 159.899 43.6375 159.985 43.558 160.099C43.4785 160.213 43.4364 160.348 43.4374 160.486C43.4385 160.625 43.4827 160.759 43.5639 160.872C43.6451 160.984 43.7594 161.069 43.891 161.114ZM52.8303 164.938L54.5509 163.982C54.6855 163.938 54.8028 163.853 54.8859 163.739C54.9689 163.624 55.0137 163.487 55.0137 163.346C55.0137 163.205 54.9689 163.068 54.8859 162.954C54.8028 162.84 54.6855 162.754 54.5509 162.71L52.8207 161.754C52.4797 161.582 52.1026 161.493 51.7201 161.493C51.3377 161.493 50.9606 161.582 50.6195 161.754L48.8989 162.71C48.7643 162.754 48.6471 162.84 48.564 162.954C48.4809 163.068 48.4362 163.205 48.4362 163.346C48.4362 163.487 48.4809 163.624 48.564 163.739C48.6471 163.853 48.7643 163.938 48.8989 163.982L50.6291 164.938C50.9669 165.121 51.344 165.221 51.7287 165.23C52.1134 165.238 52.4945 165.154 52.8399 164.986L52.8303 164.938ZM53.8973 166.85L55.6275 167.806C55.9702 167.978 56.3489 168.068 56.7329 168.068C57.1169 168.068 57.4956 167.978 57.8383 167.806L59.5589 166.85C59.6935 166.806 59.8107 166.721 59.8938 166.606C59.9769 166.492 60.0217 166.355 60.0217 166.214C60.0217 166.073 59.9769 165.936 59.8938 165.822C59.8107 165.707 59.6935 165.622 59.5589 165.578L57.8287 164.622C57.4883 164.448 57.111 164.357 56.7281 164.357C56.3452 164.357 55.9679 164.448 55.6275 164.622L53.9069 165.578C53.7687 165.62 53.6476 165.705 53.5615 165.82C53.4754 165.935 53.4289 166.075 53.4289 166.219C53.4289 166.362 53.4754 166.502 53.5615 166.618C53.6476 166.733 53.7687 166.818 53.9069 166.859L53.8973 166.85ZM58.9053 169.718L60.6355 170.674C60.9758 170.848 61.3532 170.939 61.7361 170.939C62.119 170.939 62.4963 170.848 62.8367 170.674L64.5573 169.718C64.6885 169.672 64.8021 169.586 64.8824 169.473C64.9628 169.36 65.0059 169.225 65.0059 169.087C65.0059 168.948 64.9628 168.813 64.8824 168.7C64.8021 168.587 64.6885 168.502 64.5573 168.456L62.8271 167.5C62.4843 167.328 62.1057 167.238 61.7217 167.238C61.3376 167.238 60.959 167.328 60.6162 167.5L58.8957 168.456C58.3093 168.819 58.3093 169.383 58.9149 169.737L58.9053 169.718ZM69.5556 171.333L67.8254 170.377C67.4844 170.205 67.1073 170.115 66.7248 170.115C66.3424 170.115 65.9653 170.205 65.6242 170.377L63.9036 171.333C63.769 171.377 63.6518 171.462 63.5687 171.577C63.4856 171.691 63.4409 171.828 63.4409 171.969C63.4409 172.11 63.4856 172.247 63.5687 172.361C63.6518 172.476 63.769 172.561 63.9036 172.605L65.6338 173.561C65.9756 173.731 66.3524 173.819 66.7344 173.819C67.1165 173.819 67.4933 173.731 67.835 173.561L69.5556 172.605C69.684 172.558 69.7949 172.473 69.8736 172.362C69.9522 172.25 69.9949 172.118 69.996 171.982C69.997 171.846 69.9564 171.713 69.8794 171.6C69.8024 171.488 69.6929 171.401 69.5652 171.352L69.5556 171.333ZM74.5636 174.201L72.8334 173.245C72.493 173.071 72.1157 172.98 71.7328 172.98C71.3499 172.98 70.9726 173.071 70.6322 173.245L68.9116 174.201C68.7804 174.247 68.6668 174.333 68.5864 174.446C68.5061 174.559 68.463 174.694 68.463 174.832C68.463 174.971 68.5061 175.106 68.5864 175.219C68.6668 175.332 68.7804 175.417 68.9116 175.463L70.6418 176.419C70.9846 176.591 71.3632 176.681 71.7472 176.681C72.1312 176.681 72.5099 176.591 72.8526 176.419L74.5732 175.463C75.1884 175.148 75.1884 174.584 74.5732 174.23L74.5636 174.201ZM79.5716 177.069L77.8414 176.113C77.4986 175.941 77.12 175.851 76.736 175.851C76.352 175.851 75.9733 175.941 75.6306 176.113L73.91 177.069C73.7754 177.113 73.6581 177.198 73.5751 177.312C73.492 177.427 73.4472 177.564 73.4472 177.705C73.4472 177.846 73.492 177.983 73.5751 178.097C73.6581 178.211 73.7754 178.297 73.91 178.341L75.6402 179.297C75.9812 179.469 76.3583 179.558 76.7408 179.558C77.1233 179.558 77.5003 179.469 77.8414 179.297L79.562 178.341C79.6877 178.293 79.7961 178.209 79.8733 178.099C79.9504 177.99 79.9928 177.859 79.9948 177.726C79.9969 177.592 79.9586 177.461 79.8849 177.349C79.8111 177.237 79.7054 177.149 79.5812 177.098L79.5716 177.069ZM84.57 179.937L82.8397 178.981C82.4994 178.807 82.122 178.716 81.7391 178.716C81.3563 178.716 80.9789 178.807 80.6385 178.981L78.918 179.937C78.7867 179.983 78.6731 180.069 78.5928 180.182C78.5124 180.295 78.4693 180.43 78.4693 180.568C78.4693 180.706 78.5124 180.841 78.5928 180.954C78.6731 181.067 78.7867 181.153 78.918 181.199L80.6482 182.155C80.9892 182.327 81.3663 182.417 81.7488 182.417C82.1312 182.417 82.5083 182.327 82.8494 182.155L84.57 181.199C84.6895 181.147 84.7914 181.062 84.8633 180.954C84.9352 180.846 84.9741 180.72 84.9751 180.59C84.9761 180.461 84.9393 180.334 84.8691 180.224C84.7989 180.115 84.6983 180.029 84.5796 179.975L84.57 179.937ZM89.5779 182.805L87.8477 181.849C87.5067 181.677 87.1296 181.587 86.7471 181.587C86.3647 181.587 85.9876 181.677 85.6465 181.849L83.9259 182.805C83.3107 183.149 83.3204 183.713 83.9259 184.067L85.6561 185.023C85.9982 185.197 86.3771 185.288 86.7615 185.288C87.146 185.288 87.5249 185.197 87.867 185.023L89.5875 184.067C89.7039 184.013 89.8025 183.928 89.8715 183.82C89.9406 183.712 89.9772 183.587 89.9772 183.46C89.9772 183.332 89.9406 183.207 89.8715 183.1C89.8025 182.992 89.7039 182.907 89.5875 182.853L89.5779 182.805ZM94.5859 185.673L92.8557 184.717C92.513 184.545 92.1343 184.455 91.7503 184.455C91.3663 184.455 90.9876 184.545 90.6449 184.717L88.9243 185.673C88.7897 185.717 88.6725 185.802 88.5894 185.916C88.5063 186.03 88.4615 186.168 88.4615 186.309C88.4615 186.45 88.5063 186.587 88.5894 186.701C88.6725 186.815 88.7897 186.9 88.9243 186.944L90.6545 187.9C90.9962 188.07 91.373 188.159 91.7551 188.159C92.1372 188.159 92.514 188.07 92.8557 187.9L94.5763 186.944C94.6963 186.894 94.7989 186.81 94.8717 186.702C94.9445 186.595 94.9843 186.468 94.9863 186.339C94.9884 186.209 94.9525 186.082 94.8831 185.972C94.8138 185.862 94.7138 185.775 94.5955 185.721L94.5859 185.673ZM93.9419 189.803L95.6721 190.759C96.0131 190.931 96.3902 191.021 96.7727 191.021C97.1552 191.021 97.5322 190.931 97.8733 190.759L99.5939 189.803C100.199 189.459 100.199 188.895 99.5939 188.541L97.8637 187.585C97.5233 187.411 97.146 187.32 96.7631 187.32C96.3802 187.32 96.0028 187.411 95.6625 187.585L93.9419 188.541C93.791 188.574 93.6561 188.657 93.5596 188.777C93.4632 188.897 93.4112 189.046 93.4123 189.2C93.4134 189.353 93.4676 189.502 93.5658 189.62C93.664 189.739 93.8002 189.82 93.9515 189.851L93.9419 189.803ZM104.592 191.418L102.862 190.462C102.519 190.29 102.141 190.2 101.757 190.2C101.373 190.2 100.994 190.29 100.651 190.462L98.9402 191.418C98.8056 191.462 98.6884 191.548 98.6053 191.662C98.5222 191.776 98.4775 191.913 98.4775 192.054C98.4775 192.195 98.5222 192.332 98.6053 192.447C98.6884 192.561 98.8056 192.646 98.9402 192.69L100.67 193.646C101.013 193.818 101.392 193.908 101.776 193.908C102.16 193.908 102.539 193.818 102.881 193.646L104.602 192.69C105.217 192.384 105.207 191.82 104.602 191.466L104.592 191.418ZM111.917 195.634L107.966 193.359C107.625 193.187 107.248 193.097 106.866 193.097C106.483 193.097 106.106 193.187 105.765 193.359L104.044 194.315C103.91 194.359 103.793 194.444 103.709 194.558C103.626 194.672 103.582 194.81 103.582 194.951C103.582 195.092 103.626 195.229 103.709 195.343C103.793 195.457 103.91 195.542 104.044 195.586L107.995 197.852C108.335 198.027 108.713 198.118 109.096 198.118C109.478 198.118 109.856 198.027 110.196 197.852L111.917 196.896C112.034 196.843 112.133 196.758 112.203 196.651C112.273 196.544 112.31 196.42 112.311 196.292C112.312 196.165 112.277 196.039 112.208 195.931C112.14 195.823 112.042 195.737 111.926 195.682L111.917 195.634ZM39.2675 163.781L43.2181 166.047C43.5585 166.221 43.9358 166.312 44.3187 166.312C44.7016 166.312 45.0789 166.221 45.4193 166.047L47.1399 165.091C47.2711 165.045 47.3847 164.959 47.4651 164.846C47.5454 164.733 47.5886 164.598 47.5886 164.46C47.5886 164.321 47.5454 164.186 47.4651 164.073C47.3847 163.96 47.2711 163.875 47.1399 163.829L43.1796 161.554C42.8386 161.381 42.4615 161.292 42.079 161.292C41.6966 161.292 41.3195 161.381 40.9784 161.554L39.2579 162.51C39.1236 162.555 39.007 162.641 38.9247 162.755C38.8425 162.87 38.7988 163.008 38.7999 163.149C38.8009 163.29 38.8467 163.427 38.9307 163.54C39.0146 163.654 39.1325 163.738 39.2675 163.781ZM46.4959 167.93L48.2261 168.886C48.5671 169.058 48.9442 169.148 49.3267 169.148C49.7091 169.148 50.0862 169.058 50.4273 168.886L52.1479 167.93C52.2825 167.886 52.3997 167.801 52.4828 167.687C52.5659 167.573 52.6106 167.435 52.6106 167.294C52.6106 167.153 52.5659 167.016 52.4828 166.902C52.3997 166.788 52.2825 166.703 52.1479 166.659L50.4177 165.703C50.0766 165.53 49.6995 165.441 49.3171 165.441C48.9346 165.441 48.5575 165.53 48.2165 165.703L46.4959 166.659C46.3613 166.703 46.244 166.788 46.1609 166.902C46.0779 167.016 46.0331 167.153 46.0331 167.294C46.0331 167.435 46.0779 167.573 46.1609 167.687C46.244 167.801 46.3613 167.886 46.4959 167.93ZM53.2244 171.754C53.5672 171.926 53.9458 172.016 54.3298 172.016C54.7139 172.016 55.0925 171.926 55.4353 171.754L57.1558 170.798C57.7614 170.454 57.7518 169.842 57.1558 169.536L55.4256 168.58C55.0836 168.406 54.7047 168.315 54.3202 168.315C53.9358 168.315 53.5569 168.406 53.2148 168.58L51.5038 169.536C51.3726 169.582 51.259 169.668 51.1787 169.781C51.0983 169.894 51.0552 170.029 51.0552 170.167C51.0552 170.305 51.0983 170.44 51.1787 170.553C51.259 170.666 51.3726 170.752 51.5038 170.798L53.2244 171.754ZM58.2324 174.622C58.5728 174.796 58.9501 174.887 59.333 174.887C59.7159 174.887 60.0932 174.796 60.4336 174.622L62.1542 173.666C62.2854 173.62 62.399 173.534 62.4794 173.421C62.5597 173.308 62.6029 173.173 62.6029 173.035C62.6029 172.897 62.5597 172.762 62.4794 172.649C62.399 172.536 62.2854 172.45 62.1542 172.404L60.4144 171.448C60.0733 171.276 59.6963 171.186 59.3138 171.186C58.9313 171.186 58.5542 171.276 58.2132 171.448L56.4926 172.404C56.358 172.448 56.2408 172.533 56.1577 172.647C56.0746 172.761 56.0298 172.899 56.0298 173.04C56.0298 173.181 56.0746 173.318 56.1577 173.432C56.2408 173.546 56.358 173.631 56.4926 173.675L58.2324 174.622ZM63.2212 174.249L61.5006 175.205C61.3694 175.251 61.2558 175.337 61.1754 175.45C61.0951 175.563 61.0519 175.698 61.0519 175.836C61.0519 175.974 61.0951 176.109 61.1754 176.222C61.2558 176.335 61.3694 176.421 61.5006 176.467L63.2308 177.423C63.5718 177.595 63.9489 177.685 64.3314 177.685C64.7138 177.685 65.0909 177.595 65.432 177.423L67.1526 176.467C67.2872 176.423 67.4044 176.338 67.4875 176.224C67.5706 176.109 67.6153 175.972 67.6153 175.831C67.6153 175.69 67.5706 175.553 67.4875 175.439C67.4044 175.325 67.2872 175.239 67.1526 175.195L65.4224 174.239C65.0774 174.074 64.6977 173.993 64.3148 174.003C63.9319 174.013 63.5569 174.113 63.2212 174.297V174.249ZM68.3253 177.06L66.4028 178.169C66.2806 178.207 66.174 178.284 66.0983 178.387C66.0227 178.49 65.9819 178.614 65.9819 178.742C65.9819 178.87 66.0227 178.994 66.0983 179.097C66.174 179.2 66.2806 179.277 66.4028 179.316L68.3253 180.425C68.6346 180.582 68.9773 180.665 69.3249 180.665C69.6726 180.665 70.0152 180.582 70.3246 180.425L72.2471 179.316C72.3693 179.277 72.4759 179.2 72.5516 179.097C72.6272 178.994 72.668 178.87 72.668 178.742C72.668 178.614 72.6272 178.49 72.5516 178.387C72.4759 178.284 72.3693 178.207 72.2471 178.169L70.3246 177.05C70.0101 176.903 69.6653 176.832 69.3181 176.842C68.9708 176.852 68.6308 176.943 68.3253 177.107V177.06ZM73.3332 179.928L71.4108 181.036C70.8629 181.352 70.8629 181.859 71.4108 182.174L73.3332 183.293C73.6416 183.448 73.9824 183.529 74.3281 183.529C74.6738 183.529 75.0146 183.448 75.323 183.293L77.2454 182.184C77.3642 182.143 77.4671 182.066 77.54 181.964C77.6128 181.862 77.652 181.74 77.652 181.615C77.652 181.49 77.6128 181.368 77.54 181.266C77.4671 181.164 77.3642 181.087 77.2454 181.046L75.323 179.928C75.0101 179.781 74.6669 179.71 74.3212 179.72C73.9755 179.73 73.637 179.821 73.3332 179.985V179.928ZM78.3412 182.795L76.4188 183.904C76.2965 183.943 76.1899 184.02 76.1143 184.123C76.0386 184.226 75.9978 184.35 75.9978 184.478C75.9978 184.606 76.0386 184.73 76.1143 184.833C76.1899 184.936 76.2965 185.013 76.4188 185.052L78.3412 186.17C78.6496 186.325 78.9904 186.406 79.3361 186.406C79.6818 186.406 80.0226 186.325 80.331 186.17L82.2534 185.061C82.3756 185.022 82.4822 184.946 82.5579 184.843C82.6336 184.74 82.6743 184.615 82.6743 184.488C82.6743 184.36 82.6336 184.236 82.5579 184.132C82.4822 184.029 82.3756 183.953 82.2534 183.914L80.331 182.805C80.0195 182.655 79.6764 182.581 79.3303 182.589C78.9841 182.597 78.645 182.688 78.3412 182.853V182.795ZM83.3396 185.663L81.3787 186.868C80.8308 187.183 80.8404 187.69 81.3787 188.006L83.3011 189.124C83.6112 189.28 83.9536 189.361 84.3008 189.361C84.648 189.361 84.9904 189.28 85.3005 189.124L87.2229 188.015C87.3451 187.976 87.4518 187.9 87.5274 187.797C87.6031 187.693 87.6439 187.569 87.6439 187.442C87.6439 187.314 87.6031 187.19 87.5274 187.086C87.4518 186.983 87.3451 186.907 87.2229 186.868L85.3005 185.749C84.9919 185.591 84.6503 185.507 84.3031 185.503C83.9559 185.5 83.6127 185.578 83.3011 185.73L83.3396 185.663ZM88.3476 188.531L86.4251 189.64C86.3029 189.679 86.1963 189.756 86.1206 189.859C86.045 189.962 86.0042 190.086 86.0042 190.214C86.0042 190.341 86.045 190.466 86.1206 190.569C86.1963 190.672 86.3029 190.749 86.4251 190.787L88.3476 191.906C88.6559 192.061 88.9967 192.142 89.3424 192.142C89.6881 192.142 90.0289 192.061 90.3373 191.906L92.2597 190.797C92.8076 190.482 92.8076 189.975 92.2597 189.65L90.3373 188.541C90.0244 188.394 89.6812 188.323 89.3355 188.333C88.9898 188.343 88.6514 188.434 88.3476 188.598V188.531ZM95.3645 194.783L97.2869 193.674C97.4092 193.636 97.5158 193.559 97.5914 193.456C97.6671 193.353 97.7079 193.229 97.7079 193.101C97.7079 192.973 97.6671 192.849 97.5914 192.746C97.5158 192.643 97.4092 192.566 97.2869 192.527L95.3645 191.409C95.0561 191.253 94.7153 191.172 94.3696 191.172C94.0239 191.172 93.6831 191.253 93.3748 191.409L91.4523 192.518C91.3301 192.557 91.2235 192.633 91.1478 192.736C91.0722 192.839 91.0314 192.964 91.0314 193.091C91.0314 193.219 91.0722 193.343 91.1478 193.446C91.2235 193.549 91.3301 193.626 91.4523 193.665L93.3748 194.774C93.6763 194.943 94.0142 195.039 94.3603 195.052C94.7064 195.065 95.0507 194.996 95.3645 194.85V194.783ZM100.372 197.651L102.295 196.542C102.852 196.227 102.843 195.72 102.295 195.405L100.372 194.286C100.062 194.131 99.72 194.05 99.3728 194.05C99.0256 194.05 98.6832 194.131 98.3731 194.286L96.4507 195.395C95.9028 195.711 95.9124 196.217 96.4507 196.533L98.3731 197.651C98.6779 197.817 99.0175 197.91 99.3648 197.921C99.712 197.933 100.057 197.863 100.372 197.718V197.651ZM107.399 198.34L105.477 197.221C105.168 197.066 104.827 196.985 104.482 196.985C104.136 196.985 103.795 197.066 103.487 197.221L101.564 198.33C101.442 198.369 101.336 198.446 101.26 198.549C101.184 198.652 101.143 198.776 101.143 198.904C101.143 199.031 101.184 199.156 101.26 199.259C101.336 199.362 101.442 199.438 101.564 199.477L103.487 200.596C103.795 200.751 104.136 200.832 104.482 200.832C104.827 200.832 105.168 200.751 105.477 200.596L107.399 199.487C107.957 199.229 107.957 198.722 107.399 198.407V198.34ZM34.5286 166.381L40.7958 169.985C41.1059 170.141 41.4483 170.222 41.7955 170.222C42.1427 170.222 42.4851 170.141 42.7952 169.985L44.7176 168.876C44.8398 168.838 44.9465 168.761 45.0221 168.658C45.0978 168.555 45.1385 168.43 45.1385 168.303C45.1385 168.175 45.0978 168.051 45.0221 167.948C44.9465 167.845 44.8398 167.768 44.7176 167.729L38.4408 164.125C38.1325 163.97 37.7916 163.889 37.4459 163.889C37.1003 163.889 36.7594 163.97 36.4511 164.125L34.5286 165.234C34.4064 165.273 34.2998 165.35 34.2241 165.453C34.1485 165.556 34.1077 165.68 34.1077 165.808C34.1077 165.935 34.1485 166.06 34.2241 166.163C34.2998 166.266 34.4064 166.342 34.5286 166.381ZM43.891 171.735L45.8134 172.853C46.1218 173.009 46.4626 173.09 46.8083 173.09C47.1539 173.09 47.4948 173.009 47.8031 172.853L49.7256 171.744C49.8478 171.705 49.9544 171.629 50.0301 171.526C50.1057 171.423 50.1465 171.298 50.1465 171.171C50.1465 171.043 50.1057 170.919 50.0301 170.816C49.9544 170.713 49.8478 170.636 49.7256 170.597L47.8031 169.479C47.4948 169.323 47.1539 169.242 46.8083 169.242C46.4626 169.242 46.1218 169.323 45.8134 169.479L43.891 170.616C43.3046 170.913 43.3046 171.419 43.891 171.735ZM48.8893 174.603L50.8118 175.721C51.1201 175.877 51.461 175.958 51.8066 175.958C52.1523 175.958 52.4931 175.877 52.8015 175.721L54.7239 174.612C55.2718 174.297 55.2718 173.79 54.7239 173.465L52.8015 172.356C52.4931 172.201 52.1523 172.12 51.8066 172.12C51.461 172.12 51.1201 172.201 50.8118 172.356L48.8893 173.465C48.766 173.501 48.6574 173.575 48.579 173.676C48.5007 173.777 48.4567 173.901 48.4535 174.028C48.4503 174.156 48.488 174.281 48.5612 174.386C48.6343 174.491 48.7391 174.57 48.8605 174.612L48.8893 174.603ZM53.8973 177.471L55.8197 178.58C56.1291 178.737 56.4718 178.82 56.8194 178.82C57.1671 178.82 57.5097 178.737 57.8191 178.58L59.7415 177.471C59.8638 177.432 59.9704 177.355 60.046 177.252C60.1217 177.149 60.1625 177.025 60.1625 176.897C60.1625 176.769 60.1217 176.645 60.046 176.542C59.9704 176.439 59.8638 176.362 59.7415 176.324L57.8191 175.205C57.509 175.05 57.1666 174.969 56.8194 174.969C56.4722 174.969 56.1298 175.05 55.8197 175.205L53.8973 176.314C53.7619 176.34 53.6396 176.412 53.5507 176.517C53.4617 176.621 53.4114 176.753 53.408 176.89C53.4046 177.027 53.4485 177.162 53.5322 177.271C53.6159 177.38 53.7345 177.457 53.8685 177.49L53.8973 177.471ZM62.8367 181.457L64.7591 180.348C64.8779 180.307 64.9808 180.23 65.0537 180.128C65.1265 180.026 65.1657 179.904 65.1657 179.779C65.1657 179.654 65.1265 179.532 65.0537 179.43C64.9808 179.329 64.8779 179.252 64.7591 179.211L62.8367 178.092C62.5283 177.937 62.1875 177.856 61.8418 177.856C61.4961 177.856 61.1553 177.937 60.8469 178.092L58.9245 179.201C58.3766 179.516 58.3766 180.023 58.9245 180.339L60.8469 181.457C61.1501 181.611 61.4849 181.693 61.8251 181.696C62.1654 181.699 62.5017 181.624 62.8078 181.476L62.8367 181.457ZM67.8447 184.325L69.7671 183.216C69.8893 183.177 69.9959 183.101 70.0716 182.998C70.1473 182.894 70.188 182.77 70.188 182.643C70.188 182.515 70.1473 182.391 70.0716 182.287C69.9959 182.184 69.8893 182.108 69.7671 182.069L67.8447 180.96C67.537 180.802 67.1959 180.72 66.8498 180.72C66.5037 180.72 66.1626 180.802 65.8549 180.96L63.9325 182.069C63.8102 182.108 63.7036 182.184 63.628 182.287C63.5523 182.391 63.5115 182.515 63.5115 182.643C63.5115 182.77 63.5523 182.894 63.628 182.998C63.7036 183.101 63.8102 183.177 63.9325 183.216L65.8549 184.335C66.158 184.488 66.4929 184.57 66.8331 184.573C67.1733 184.577 67.5097 184.501 67.8158 184.354L67.8447 184.325ZM72.8526 187.193L74.7751 186.084C74.8973 186.045 75.0039 185.969 75.0796 185.865C75.1552 185.762 75.196 185.638 75.196 185.51C75.196 185.383 75.1552 185.258 75.0796 185.155C75.0039 185.052 74.8973 184.976 74.7751 184.937L72.8526 183.818C72.5426 183.663 72.2002 183.582 71.853 183.582C71.5057 183.582 71.1633 183.663 70.8533 183.818L68.8828 184.956C68.3349 185.271 68.3445 185.778 68.8828 186.094L70.8052 187.212C71.1162 187.374 71.4613 187.46 71.8122 187.463C72.1631 187.466 72.5097 187.387 72.8238 187.231L72.8526 187.193ZM77.851 190.061L79.7734 188.952C80.3213 188.636 80.3213 188.13 79.7734 187.805L77.851 186.696C77.5426 186.54 77.2018 186.46 76.8561 186.46C76.5104 186.46 76.1696 186.54 75.8613 186.696L73.9388 187.805C73.8166 187.844 73.71 187.92 73.6343 188.023C73.5587 188.126 73.5179 188.251 73.5179 188.378C73.5179 188.506 73.5587 188.63 73.6343 188.733C73.71 188.837 73.8166 188.913 73.9388 188.952L75.8613 190.07C76.1636 190.226 76.4981 190.309 76.8383 190.314C77.1786 190.319 77.5153 190.245 77.8222 190.099L77.851 190.061ZM82.859 192.929L84.7814 191.82C84.9036 191.781 85.0103 191.704 85.0859 191.601C85.1616 191.498 85.2023 191.374 85.2023 191.246C85.2023 191.119 85.1616 190.994 85.0859 190.891C85.0103 190.788 84.9036 190.712 84.7814 190.673L82.859 189.554C82.5506 189.399 82.2098 189.318 81.8641 189.318C81.5184 189.318 81.1776 189.399 80.8692 189.554L78.9468 190.663C78.8246 190.702 78.7179 190.779 78.6423 190.882C78.5666 190.985 78.5259 191.109 78.5259 191.237C78.5259 191.364 78.5666 191.489 78.6423 191.592C78.7179 191.695 78.8246 191.771 78.9468 191.81L80.8692 192.919C81.1687 193.081 81.5022 193.171 81.8428 193.181C82.1834 193.191 82.5217 193.121 82.8301 192.977L82.859 192.929ZM87.867 195.797L89.7894 194.688C90.3469 194.372 90.3373 193.866 89.7894 193.55L87.867 192.432C87.5569 192.276 87.2145 192.195 86.8673 192.195C86.52 192.195 86.1777 192.276 85.8676 192.432L83.9452 193.541C83.3973 193.856 83.4069 194.363 83.9452 194.678L85.8676 195.797C86.1702 195.955 86.5054 196.042 86.8472 196.05C87.189 196.058 87.5281 195.988 87.8381 195.845L87.867 195.797ZM88.9339 197.556L90.8564 198.674C91.1647 198.83 91.5055 198.911 91.8512 198.911C92.1969 198.911 92.5377 198.83 92.8461 198.674L94.7685 197.565C94.8908 197.526 94.9974 197.45 95.073 197.347C95.1487 197.244 95.1895 197.119 95.1895 196.992C95.1895 196.864 95.1487 196.74 95.073 196.637C94.9974 196.534 94.8908 196.457 94.7685 196.418L92.8461 195.309C92.5384 195.152 92.1973 195.069 91.8512 195.069C91.5051 195.069 91.164 195.152 90.8564 195.309L88.9339 196.418C88.7934 196.44 88.665 196.51 88.5712 196.616C88.4773 196.722 88.424 196.858 88.4206 196.999C88.4171 197.14 88.4638 197.278 88.5524 197.389C88.6409 197.499 88.7658 197.575 88.9051 197.604L88.9339 197.556ZM102.795 201.016L97.8541 198.148C97.5457 197.993 97.2049 197.912 96.8592 197.912C96.5135 197.912 96.1727 197.993 95.8643 198.148L93.8746 199.296C93.7558 199.337 93.6529 199.414 93.5801 199.516C93.5072 199.617 93.4681 199.739 93.4681 199.864C93.4681 199.989 93.5072 200.111 93.5801 200.213C93.6529 200.315 93.7558 200.392 93.8746 200.433L98.8153 203.301C99.1253 203.457 99.4677 203.538 99.815 203.538C100.162 203.538 100.505 203.457 100.815 203.301L102.737 202.192C102.854 202.152 102.955 202.078 103.028 201.979C103.101 201.88 103.142 201.761 103.145 201.638C103.148 201.515 103.114 201.395 103.046 201.292C102.978 201.19 102.88 201.11 102.766 201.064L102.795 201.016ZM29.9051 169.182L38.8157 174.287C39.1638 174.464 39.5493 174.557 39.9403 174.557C40.3314 174.557 40.7168 174.464 41.065 174.287L42.7375 173.331C42.8744 173.287 42.9936 173.201 43.0782 173.085C43.1628 172.969 43.2083 172.829 43.2083 172.686C43.2083 172.543 43.1628 172.403 43.0782 172.287C42.9936 172.171 42.8744 172.085 42.7375 172.041L33.8365 166.926C33.4875 166.752 33.1024 166.662 32.7119 166.662C32.3214 166.662 31.9363 166.752 31.5873 166.926L29.9148 167.882C29.7787 167.928 29.6604 168.015 29.5762 168.131C29.4921 168.247 29.4464 168.386 29.4453 168.529C29.4442 168.672 29.4879 168.812 29.5703 168.929C29.6528 169.046 29.7698 169.134 29.9051 169.182ZM42.1319 176.199L43.8141 177.155C44.1622 177.332 44.5477 177.425 44.9387 177.425C45.3297 177.425 45.7152 177.332 46.0633 177.155L47.7455 176.199C47.8824 176.155 48.0016 176.068 48.0862 175.953C48.1708 175.837 48.2163 175.697 48.2163 175.554C48.2163 175.411 48.1708 175.271 48.0862 175.155C48.0016 175.039 47.8824 174.953 47.7455 174.909L46.0633 173.953C45.7126 173.778 45.3259 173.688 44.9339 173.688C44.5418 173.688 44.1552 173.778 43.8044 173.953L42.1319 174.909C41.5071 175.262 41.5071 175.836 42.1319 176.199ZM47.1399 179.067L48.822 180.023C49.1711 180.197 49.5562 180.288 49.9467 180.288C50.3371 180.288 50.7222 180.197 51.0713 180.023L52.7438 179.067C53.3686 178.713 53.359 178.111 52.7438 177.777L51.0617 176.821C50.7135 176.644 50.3281 176.551 49.9371 176.551C49.546 176.551 49.1606 176.644 48.8124 176.821L47.1399 177.777C46.5055 178.13 46.5151 178.713 47.1399 179.067ZM52.1383 181.935L53.8204 182.891C54.1705 183.067 54.5574 183.159 54.9498 183.159C55.3423 183.159 55.7292 183.067 56.0793 182.891L57.7518 181.935C57.8887 181.891 58.008 181.804 58.0925 181.688C58.1771 181.573 58.2226 181.433 58.2226 181.29C58.2226 181.147 58.1771 181.007 58.0925 180.891C58.008 180.775 57.8887 180.689 57.7518 180.645L56.0697 179.689C55.7215 179.511 55.3361 179.419 54.945 179.419C54.554 179.419 54.1686 179.511 53.8204 179.689L52.1479 180.645C51.5135 181.008 51.5135 181.581 52.1383 181.945V181.935ZM57.1462 184.803L58.8284 185.759C59.1774 185.933 59.5625 186.024 59.953 186.024C60.3435 186.024 60.7286 185.933 61.0776 185.759L62.7502 184.803C62.8859 184.756 63.0035 184.668 63.0868 184.552C63.1701 184.435 63.2148 184.296 63.2148 184.153C63.2148 184.01 63.1701 183.871 63.0868 183.754C63.0035 183.638 62.8859 183.55 62.7502 183.503L61.068 182.547C60.7173 182.373 60.3306 182.282 59.9386 182.282C59.5465 182.282 59.1599 182.373 58.8092 182.547L57.1366 183.503C56.9941 183.546 56.8694 183.634 56.7812 183.754C56.693 183.873 56.6459 184.018 56.647 184.166C56.6481 184.314 56.6973 184.458 56.7872 184.576C56.8772 184.695 57.0031 184.781 57.1462 184.822V184.803ZM62.1542 187.671L63.8363 188.627C64.1845 188.804 64.57 188.896 64.961 188.896C65.352 188.896 65.7375 188.804 66.0856 188.627L67.7581 187.671C68.3829 187.317 68.3733 186.715 67.7581 186.38L66.076 185.424C65.7278 185.247 65.3424 185.155 64.9514 185.155C64.5603 185.155 64.1749 185.247 63.8267 185.424L62.1542 186.38C61.5198 186.753 61.5294 187.336 62.1542 187.69V187.671ZM67.1526 190.539L68.8347 191.495C69.1848 191.671 69.5717 191.763 69.9642 191.763C70.3566 191.763 70.7435 191.671 71.0936 191.495L72.7661 190.539C72.903 190.494 73.0223 190.408 73.1068 190.292C73.1914 190.176 73.237 190.037 73.237 189.894C73.237 189.75 73.1914 189.611 73.1068 189.495C73.0223 189.379 72.903 189.293 72.7661 189.248L71.084 188.292C70.7349 188.118 70.3498 188.028 69.9594 188.028C69.5689 188.028 69.1838 188.118 68.8347 188.292L67.1526 189.248C66.5278 189.631 66.5278 190.204 67.1526 190.568V190.539ZM72.1606 193.407L73.8427 194.363C74.1917 194.537 74.5768 194.628 74.9673 194.628C75.3578 194.628 75.7429 194.537 76.092 194.363L77.7645 193.407C78.3893 193.053 78.3893 192.451 77.7645 192.116L76.0727 191.16C75.7246 190.983 75.3391 190.891 74.9481 190.891C74.5571 190.891 74.1716 190.983 73.8235 191.16L72.1509 192.116C72.0025 192.153 71.8708 192.239 71.7771 192.359C71.6833 192.479 71.633 192.627 71.6341 192.78C71.6352 192.932 71.6877 193.079 71.7832 193.198C71.8787 193.317 72.0116 193.401 72.1606 193.435V193.407ZM77.1685 196.275L78.8507 197.231C79.1988 197.408 79.5843 197.5 79.9753 197.5C80.3663 197.5 80.7518 197.408 81.0999 197.231L82.7725 196.275C83.3973 195.921 83.3876 195.319 82.7725 194.984L81.0903 194.028C80.7422 193.851 80.3567 193.759 79.9657 193.759C79.5747 193.759 79.1892 193.851 78.8411 194.028L77.1685 194.984C76.5726 195.376 76.5726 195.95 77.1685 196.313V196.275ZM82.1669 199.143L83.849 200.099C84.1998 200.273 84.5864 200.364 84.9785 200.364C85.3705 200.364 85.7572 200.273 86.1079 200.099L87.7804 199.143C87.9162 199.096 88.0338 199.008 88.1171 198.891C88.2003 198.775 88.2451 198.636 88.2451 198.493C88.2451 198.35 88.2003 198.21 88.1171 198.094C88.0338 197.977 87.9162 197.89 87.7804 197.843L86.0983 196.887C85.7492 196.712 85.3641 196.622 84.9737 196.622C84.5832 196.622 84.1981 196.712 83.849 196.887L82.1669 197.843C82.0111 197.875 81.8711 197.959 81.7707 198.082C81.6702 198.205 81.6153 198.358 81.6153 198.517C81.6153 198.675 81.6702 198.828 81.7707 198.951C81.8711 199.074 82.0111 199.158 82.1669 199.19V199.143ZM87.1749 202.011L88.857 202.967C89.2052 203.144 89.5906 203.236 89.9816 203.236C90.3727 203.236 90.7581 203.144 91.1063 202.967L92.7788 202.011C92.9157 201.966 93.035 201.88 93.1195 201.764C93.2041 201.648 93.2496 201.509 93.2496 201.365C93.2496 201.222 93.2041 201.083 93.1195 200.967C93.035 200.851 92.9157 200.764 92.7788 200.72L91.0871 199.764C90.7389 199.587 90.3534 199.495 89.9624 199.495C89.5714 199.495 89.1859 199.587 88.8378 199.764L87.1653 200.72C87.0059 200.745 86.8603 200.824 86.7545 200.945C86.6486 201.066 86.5893 201.221 86.587 201.381C86.5847 201.542 86.6395 201.698 86.7419 201.822C86.8442 201.945 86.9874 202.029 87.146 202.058L87.1749 202.011ZM97.8925 203.664L96.2104 202.708C95.8603 202.532 95.4734 202.44 95.0809 202.44C94.6885 202.44 94.3016 202.532 93.9515 202.708L92.279 203.664C92.1421 203.709 92.0228 203.795 91.9382 203.911C91.8537 204.027 91.8081 204.167 91.8081 204.31C91.8081 204.453 91.8537 204.592 91.9382 204.708C92.0228 204.824 92.1421 204.911 92.279 204.955L93.9611 205.911C94.3102 206.085 94.6953 206.176 95.0857 206.176C95.4762 206.176 95.8613 206.085 96.2104 205.911L97.8925 204.955C98.5173 204.649 98.5173 204.076 97.8925 203.712V203.664ZM33.0964 171.83L29.1938 169.593C28.8438 169.417 28.4568 169.325 28.0644 169.325C27.672 169.325 27.285 169.417 26.935 169.593L25.2624 170.549C25.1255 170.594 25.0063 170.68 24.9217 170.796C24.8371 170.912 24.7916 171.051 24.7916 171.195C24.7916 171.338 24.8371 171.477 24.9217 171.593C25.0063 171.709 25.1255 171.796 25.2624 171.84L29.165 174.087C29.5157 174.261 29.9024 174.351 30.2944 174.351C30.6865 174.351 31.0731 174.261 31.4239 174.087L33.0964 173.131C33.7212 172.767 33.7212 172.194 33.0964 171.83ZM38.1044 174.698L36.4126 173.742C36.0645 173.565 35.679 173.473 35.288 173.473C34.897 173.473 34.5115 173.565 34.1634 173.742L32.4908 174.698C32.3539 174.743 32.2347 174.829 32.1501 174.945C32.0655 175.061 32.02 175.2 32.02 175.344C32.02 175.487 32.0655 175.626 32.1501 175.742C32.2347 175.858 32.3539 175.945 32.4908 175.989L34.173 176.945C34.5211 177.122 34.9066 177.214 35.2976 177.214C35.6886 177.214 36.0741 177.122 36.4222 176.945L38.0948 175.989C38.2294 175.945 38.347 175.861 38.4315 175.748C38.5159 175.636 38.563 175.499 38.5662 175.359C38.5693 175.218 38.5284 175.08 38.4492 174.963C38.3699 174.847 38.2561 174.757 38.1236 174.708L38.1044 174.698ZM43.1027 177.566L41.4206 176.61C41.0716 176.436 40.6865 176.346 40.296 176.346C39.9055 176.346 39.5204 176.436 39.1713 176.61L37.4988 177.566C37.3631 177.613 37.2454 177.701 37.1622 177.818C37.0789 177.934 37.0342 178.073 37.0342 178.216C37.0342 178.359 37.0789 178.499 37.1622 178.615C37.2454 178.732 37.3631 178.819 37.4988 178.866L39.1906 179.822C39.5396 179.996 39.9247 180.087 40.3152 180.087C40.7057 180.087 41.0908 179.996 41.4398 179.822L43.1124 178.866C43.2445 178.817 43.358 178.728 43.4379 178.612C43.5177 178.496 43.5599 178.358 43.5588 178.218C43.5578 178.077 43.5135 177.94 43.432 177.826C43.3505 177.711 43.2356 177.624 43.1027 177.576V177.566ZM78.1394 197.642L46.419 179.478C46.0708 179.301 45.6854 179.209 45.2943 179.209C44.9033 179.209 44.5179 179.301 44.1697 179.478L42.4876 180.434C42.3507 180.479 42.2314 180.565 42.1468 180.681C42.0623 180.797 42.0167 180.936 42.0167 181.079C42.0167 181.223 42.0623 181.362 42.1468 181.478C42.2314 181.594 42.3507 181.68 42.4876 181.725L74.208 199.936C74.5561 200.113 74.9416 200.206 75.3326 200.206C75.7236 200.206 76.1091 200.113 76.4572 199.936L78.1394 198.98C78.2728 198.934 78.3884 198.847 78.4702 198.732C78.5521 198.617 78.596 198.48 78.596 198.34C78.596 198.199 78.5521 198.062 78.4702 197.947C78.3884 197.832 78.2728 197.746 78.1394 197.699V197.642ZM83.1377 200.51L81.4556 199.554C81.1074 199.377 80.722 199.284 80.331 199.284C79.9399 199.284 79.5545 199.377 79.2063 199.554L77.5338 200.51C76.909 200.863 76.9186 201.466 77.5338 201.8L79.2159 202.756C79.565 202.93 79.9501 203.021 80.3406 203.021C80.731 203.021 81.1161 202.93 81.4652 202.756L83.1377 201.8C83.7721 201.504 83.7625 200.93 83.1377 200.567V200.51ZM88.1457 203.378L86.4636 202.422C86.1154 202.245 85.73 202.152 85.3389 202.152C84.9479 202.152 84.5625 202.245 84.2143 202.422L82.5418 203.378C82.4049 203.422 82.2856 203.508 82.201 203.624C82.1165 203.74 82.0709 203.88 82.0709 204.023C82.0709 204.166 82.1165 204.306 82.201 204.422C82.2856 204.537 82.4049 204.624 82.5418 204.668L84.2335 205.624C84.5817 205.801 84.9671 205.894 85.3582 205.894C85.7492 205.894 86.1346 205.801 86.4828 205.624L88.1553 204.668C88.2692 204.609 88.3638 204.518 88.4282 204.407C88.4925 204.296 88.524 204.169 88.5189 204.041C88.5139 203.913 88.4726 203.789 88.3997 203.684C88.3269 203.578 88.2255 203.495 88.1073 203.445L88.1457 203.378ZM93.2594 206.313L91.5677 205.357C91.2186 205.182 90.8335 205.092 90.443 205.092C90.0525 205.092 89.6674 205.182 89.3184 205.357L87.6459 206.313C87.0307 206.666 87.0307 207.268 87.6459 207.603L89.328 208.559C89.6762 208.736 90.0616 208.828 90.4526 208.828C90.8437 208.828 91.2291 208.736 91.5773 208.559L93.2498 207.603C93.3661 207.549 93.4647 207.463 93.534 207.355C93.6033 207.247 93.6406 207.122 93.6416 206.994C93.6426 206.866 93.6073 206.741 93.5397 206.632C93.472 206.523 93.3749 206.436 93.2594 206.379V206.313Z" fill="#999999"/>
<path d="M120.597 192.747L54.2722 154.661C51.7346 153.189 49.6583 149.231 49.6583 145.828V94.1382C49.6583 90.7349 51.7346 89.1766 54.301 90.6488L120.625 128.735C123.192 130.207 125.278 134.165 125.278 137.568V189.258C125.249 192.661 123.163 194.219 120.597 192.747Z" fill="#333333"/>
<path d="M121.202 190.09L55.6082 152.453C54.5517 151.711 53.6943 150.722 53.1111 149.574C52.5279 148.425 52.2368 147.152 52.2632 145.866V93.8514C52.2704 93.7107 52.3139 93.5743 52.3895 93.4551C52.465 93.336 52.57 93.2381 52.6945 93.1709C52.819 93.1038 52.9587 93.0695 53.1003 93.0715C53.2419 93.0735 53.3806 93.1116 53.5032 93.1822L53.6473 93.2682L119.289 130.943C121.75 132.358 122.634 134.863 122.634 137.53V189.382C122.634 189.537 122.593 189.688 122.515 189.822C122.438 189.956 122.327 190.067 122.193 190.145C122.059 190.223 121.907 190.265 121.752 190.267C121.597 190.269 121.444 190.231 121.308 190.157L121.202 190.09Z" fill="#2284F7"/>
<g opacity="0.5">
<path opacity="0.5" d="M117.523 140.134L57.2494 104.886L57.2952 118.133L117.477 152.83L117.523 140.134Z" fill="white"/>
<path opacity="0.5" d="M117.472 168.139L57.1986 133.9L57.1986 144.9L117.472 179.506L117.472 168.139Z" fill="white"/>
<path opacity="0.5" d="M117.426 154.48L57.2445 119.92L57.3362 132.158L117.426 166.443L117.426 154.48Z" fill="white"/>
</g>
<path d="M119.289 130.943L53.6474 93.23L53.5032 93.1822C53.3779 93.1102 53.2358 93.0722 53.091 93.072C52.9463 93.0718 52.8041 93.1094 52.6786 93.181C52.553 93.2526 52.4486 93.3558 52.3757 93.4801C52.3028 93.6045 52.2641 93.7457 52.2633 93.8896V145.828C52.2305 147.12 52.5186 148.401 53.102 149.557C53.6855 150.712 54.5463 151.707 55.6083 152.453L121.202 190.128L121.308 190.195C121.444 190.269 121.597 190.308 121.752 190.306C121.907 190.304 122.059 190.262 122.193 190.183C122.327 190.105 122.438 189.994 122.515 189.86C122.593 189.726 122.634 189.575 122.634 189.42V137.53C122.634 134.863 121.75 132.377 119.289 130.943ZM122.115 189.382C122.115 189.479 122.077 189.571 122.008 189.639C121.94 189.707 121.847 189.745 121.75 189.745C121.686 189.749 121.622 189.732 121.567 189.698L55.8678 151.965C54.891 151.269 54.1001 150.346 53.564 149.276C53.0279 148.207 52.7628 147.023 52.7919 145.828V93.8514C52.7919 93.7728 52.8233 93.6974 52.8792 93.6418C52.9351 93.5862 53.0109 93.555 53.0899 93.555C53.1402 93.5407 53.1934 93.5407 53.2437 93.555L119.03 131.421C121.577 132.884 122.115 135.57 122.115 137.559V189.382Z" fill="#2284F7"/>
<path d="M121.913 127.999L55.6179 89.9127C55.2245 89.6454 54.7749 89.4711 54.3034 89.4032C53.8319 89.3353 53.3511 89.3755 52.8976 89.5208C52.8015 89.5208 51.5038 90.2377 51.4173 90.2855C51.8863 90.0947 52.3958 90.0237 52.8995 90.0788C53.4031 90.1339 53.8849 90.3134 54.301 90.601L120.625 128.687C123.192 130.159 125.278 134.117 125.278 137.52V189.258C125.278 191.38 124.461 192.785 123.23 193.187C123.376 193.177 123.515 193.128 123.634 193.044L125.162 192.183C126.047 191.571 126.595 190.271 126.595 188.56V136.832C126.556 133.429 124.48 129.509 121.913 127.999Z" fill="#666666"/>
<path d="M121.913 127.999L55.6179 89.9127C55.2245 89.6454 54.7749 89.4711 54.3034 89.4032C53.8319 89.3353 53.3511 89.3755 52.8976 89.5208C52.8015 89.5208 51.5038 90.2377 51.4173 90.2855C51.8863 90.0947 52.3958 90.0237 52.8995 90.0788C53.4031 90.1339 53.8849 90.3134 54.301 90.601L120.625 128.687L121.913 127.999Z" fill="#666666"/>
<path d="M120.789 128.553L54.4644 90.4576C54.0637 90.1973 53.6076 90.0332 53.1321 89.9785C52.6566 89.9237 52.1749 89.9798 51.7249 90.1421C52.5102 90.0542 53.3018 90.24 53.9646 90.6679L120.289 128.754C122.855 130.226 124.941 134.184 124.941 137.587V189.306C124.941 191.313 124.211 192.68 123.096 193.13C124.528 192.9 125.499 191.437 125.499 189.114V137.415C125.47 134.012 123.384 130.064 120.789 128.553Z" fill="#666666"/>
<path fill-rule="evenodd" clip-rule="evenodd" d="M83.5825 118.326V122.207C92.4794 125.99 99.6855 136.816 99.6855 146.398C99.6855 148.653 99.283 150.65 98.5382 152.306C97.9947 153.527 94.1786 153.209 93.9496 152.356C93.4938 151.671 94.1703 150.365 94.5785 149.576C94.6569 149.425 94.7254 149.293 94.7741 149.187C95.3578 147.94 95.6598 146.399 95.6598 144.686C95.6598 137.511 90.2451 129.376 83.5825 126.543V130.423C83.5825 131.399 81.1069 131.341 80.4888 130.958L76.2354 122.031C75.8328 121.426 75.8328 120.754 76.2354 120.491L79.8249 116.788C80.4489 116.36 83.5825 117.351 83.5825 118.326ZM71.5051 134.414C71.5051 141.59 76.9198 149.724 83.5824 152.558L81.519 148.321C81.519 147.345 84.4492 147.253 85.2934 148.624L90.9094 157.061C91.3119 157.666 91.3119 158.338 90.9094 158.6L83.5335 163.259C82.9095 163.687 79.5502 159.903 83.5824 160.774V156.893C74.6855 153.11 67.4794 142.284 67.4794 132.702C67.4794 131.753 67.2065 130.797 66.9461 129.884C66.5879 128.629 66.2533 127.456 66.6845 126.498C67.228 125.276 70.9013 125.919 71.9278 127.461C72.4713 128.278 72.6927 129.261 72.3908 129.913C71.8071 131.16 71.5051 132.701 71.5051 134.414Z" fill="#FF9C00"/>
<path fill-rule="evenodd" clip-rule="evenodd" d="M81.3849 118.269V122.149C90.2818 125.933 97.4879 136.759 97.4879 146.341C97.4879 148.595 97.0854 150.592 96.3406 152.248C95.7971 153.469 94.066 153.124 93.0395 151.581C92.496 150.765 92.2746 149.782 92.5765 149.13C93.1602 147.882 93.4622 146.341 93.4622 144.629C93.4622 137.453 88.0475 129.318 81.3849 126.485V130.365C81.3849 131.341 80.2979 131.356 79.6538 130.41L74.0378 121.973C73.6352 121.368 73.6352 120.696 74.0378 120.434L79.6739 116.782C80.2979 116.354 81.3849 117.293 81.3849 118.269ZM69.3075 134.356C69.3075 141.532 74.7222 149.666 81.3849 152.5V148.619C81.3849 147.644 82.4718 147.629 83.0958 148.566L88.7118 157.003C89.1143 157.608 89.1143 158.28 88.7118 158.543L83.0958 162.203C82.4718 162.631 81.3849 161.692 81.3849 160.716V156.836C72.4879 153.052 65.2818 142.226 65.2818 132.644C65.2818 130.389 65.6843 128.393 66.4291 126.737C66.9726 125.515 68.7037 125.861 69.7302 127.403C70.2737 128.22 70.4951 129.203 70.1932 129.855C69.6095 131.103 69.3075 132.643 69.3075 134.356Z" fill="#FFD600"/>
</g>
<path fill-rule="evenodd" clip-rule="evenodd" d="M171.167 55.8365V61.1319C183.308 66.2952 193.141 81.068 193.141 94.1439C193.141 97.2205 192.592 99.9452 191.576 102.205C190.834 103.872 185.626 103.438 185.314 102.274C184.692 101.339 185.615 99.5562 186.172 98.4805C186.279 98.2738 186.373 98.0932 186.439 97.9498C187.236 96.2473 187.648 94.1446 187.648 91.8075C187.648 82.0155 180.259 70.9152 171.167 67.0486V72.344C171.167 73.6753 167.789 73.5962 166.945 73.0741L161.141 60.8915C160.592 60.0662 160.592 59.1491 161.141 58.7911L166.039 53.7378C166.891 53.1533 171.167 54.5053 171.167 55.8365ZM154.686 77.7896C154.686 87.5817 162.075 98.682 171.167 102.549L168.351 96.7671C168.351 95.4359 172.35 95.3094 173.502 97.1811L181.165 108.694C181.715 109.519 181.715 110.436 181.165 110.794L171.1 117.152C170.249 117.736 165.665 112.572 171.167 113.761V108.465C159.026 103.302 149.193 88.5291 149.193 75.4533C149.193 74.1581 148.82 72.8536 148.465 71.6084C147.976 69.8958 147.52 68.2956 148.108 66.9871C148.85 65.3204 153.862 66.1975 155.263 68.302C156.005 69.4162 156.307 70.7576 155.895 71.6474C155.098 73.3498 154.686 75.4525 154.686 77.7896Z" fill="#FF9C00"/>
<path fill-rule="evenodd" clip-rule="evenodd" d="M168.168 55.7579V61.0534C180.309 66.2166 190.142 80.9895 190.142 94.0653C190.142 97.142 189.593 99.8667 188.577 102.127C187.835 103.793 185.473 103.321 184.072 101.217C183.33 100.102 183.028 98.761 183.44 97.8712C184.237 96.1688 184.649 94.0661 184.649 91.729C184.649 81.9369 177.26 70.8366 168.168 66.97V72.2654C168.168 73.5967 166.685 73.6167 165.806 72.3258L158.142 60.8129C157.593 59.9876 157.593 59.0705 158.142 58.7125L165.833 53.7296C166.685 53.145 168.168 54.4267 168.168 55.7579ZM151.687 77.7111C151.687 87.5031 159.076 98.6034 168.168 102.47V97.1746C168.168 95.8433 169.651 95.8233 170.503 97.1025L178.166 108.615C178.716 109.441 178.716 110.358 178.166 110.716L170.503 115.71C169.651 116.295 168.168 115.013 168.168 113.682V108.387C156.027 103.223 146.194 88.4506 146.194 75.3747C146.194 72.2981 146.743 69.5734 147.759 67.3135C148.501 65.6468 150.863 66.1189 152.264 68.2235C153.006 69.3376 153.308 70.679 152.896 71.5688C152.099 73.2713 151.687 75.374 151.687 77.7111Z" fill="#FFD600"/>
<defs>
<linearGradient id="paint0_linear" x1="78358.6" y1="18385.4" x2="54065.6" y2="73405.1" gradientUnits="userSpaceOnUse">
<stop offset="0.06" stop-color="white" stop-opacity="0"/>
<stop offset="0.16" stop-color="#C9CCD0" stop-opacity="0.35"/>
<stop offset="0.27" stop-color="#9DA3AA" stop-opacity="0.63"/>
<stop offset="0.36" stop-color="#7E868F" stop-opacity="0.84"/>
<stop offset="0.45" stop-color="#6C747F" stop-opacity="0.96"/>
<stop offset="0.53" stop-color="#656E79"/>
</linearGradient>
<linearGradient id="paint1_linear" x1="66203.5" y1="18008" x2="43881" y2="64224.8" gradientUnits="userSpaceOnUse">
<stop offset="0.06" stop-color="white" stop-opacity="0"/>
<stop offset="0.16" stop-color="#C9CCD0" stop-opacity="0.35"/>
<stop offset="0.27" stop-color="#9DA3AA" stop-opacity="0.63"/>
<stop offset="0.36" stop-color="#7E868F" stop-opacity="0.84"/>
<stop offset="0.45" stop-color="#6C747F" stop-opacity="0.96"/>
<stop offset="0.53" stop-color="#656E79"/>
</linearGradient>
<linearGradient id="paint2_linear" x1="167.361" y1="165.441" x2="183.235" y2="148.952" gradientUnits="userSpaceOnUse">
<stop stop-color="white" stop-opacity="0"/>
<stop offset="0.09" stop-color="#FCFCFC" stop-opacity="0.12"/>
<stop offset="0.34" stop-color="#F4F4F4" stop-opacity="0.43"/>
<stop offset="0.56" stop-color="#EDEDED" stop-opacity="0.67"/>
<stop offset="0.76" stop-color="#E9E9E9" stop-opacity="0.85"/>
<stop offset="0.91" stop-color="#E6E6E6" stop-opacity="0.96"/>
<stop offset="1" stop-color="#E5E5E5"/>
</linearGradient>
<clipPath id="clip0">
<rect width="279.707" height="257.231" fill="white" transform="translate(23.9882 0.71167)"/>
</clipPath>
<clipPath id="clip1">
<rect width="125.93" height="141.102" fill="white" transform="translate(0.635895 89.3583)"/>
</clipPath>
</defs>
</svg>
