<svg width="39" height="36" viewBox="0 0 39 36" fill="none" xmlns="http://www.w3.org/2000/svg" version="1.1" baseProfile="full" >
 <defs>
    <style type="text/css"><![CDATA[
      #hand {
        animation-name: wave-animation;
        animation-duration: 2s;
        animation-iteration-count: 5;
        transform-origin: 50% 70%;
      }
      @keyframes wave-animation {
        0% {
          transform: rotate(0deg);
        }
        10% {
          transform: rotate(-20deg);
        }
        20% {
          transform: rotate(12deg);
        }
        30% {
          transform: rotate(-20deg);
        }
        40% {
          transform: rotate(9deg);
        }
        50% {
          transform: rotate(0deg);
        }
        100% {
          transform: rotate(0deg);
        }
      }
      @keyframes hideMe {
        to {
          opacity: 0;
        }
      }
      #svgIcon circle {
  	    animation: hideMe 1s ease-in-out forwards;
  	    animation-play-state: paused;
      }
      #svgIcon:hover circle {
        animation-play-state: running;
      }
    ]]></style>
  </defs>
  <g id="svgIcon">
    <path id="octagon" fill-rule="evenodd" clip-rule="evenodd" d="M11.8572 0C10.2659 0 8.73965 0.632213 7.61441 1.75755L1.75718 7.6153C0.632071 8.7405 0 10.2665 0 11.8578V20.1429C0 21.7342 0.632141 23.2603 1.75736 24.3856L7.61445 30.2426C8.73966 31.3679 10.2658 32 11.8571 32H20.1421C21.7334 32 23.2595 31.3679 24.3847 30.2426L30.2418 24.3856C31.367 23.2603 31.9992 21.7342 31.9992 20.1429V11.8578C31.9992 10.2665 31.3671 8.74051 30.242 7.6153L24.3848 1.75755C23.2595 0.632215 21.7333 0 20.1419 0H11.8572Z" fill="#E40D0D"/>
    <path id="hand" fill-rule="evenodd" clip-rule="evenodd" d="M15.6177 27.5994C20.9189 27.5994 22.1768 22.7368 22.1768 22.7368L25.2193 13.9948C25.2193 13.9948 25.4941 13.0874 25.4437 13.0773C22.6103 12.5479 22.0079 14.5444 22.0079 14.5444C22.0079 14.5444 20.9189 17.3727 20.75 17.3727C20.5811 17.3727 20.5609 17.1634 20.5609 17.1634V7.00223C20.5609 7.00223 20.6139 5.69143 19.2678 5.69143C17.9217 5.69143 17.9898 7.00475 17.9898 7.00475L17.9923 14.5116C17.9923 14.5116 18.0099 14.8141 17.7579 14.8141C17.5335 14.8141 17.5461 14.5217 17.5461 14.5217V5.47717C17.5461 5.47717 17.6293 4 16.2681 4C14.9069 4 14.98 5.48725 14.98 5.48725L14.9674 14.4108C14.9674 14.4108 14.985 14.6855 14.7607 14.6855C14.5514 14.6855 14.559 14.4133 14.559 14.4133V6.93165C14.559 6.93165 14.6346 5.40911 13.2482 5.40911C11.887 5.40911 11.9601 6.95938 11.9601 6.95938L11.9475 14.8595C11.9475 14.8595 11.9727 15.0888 11.7584 15.0888C11.5316 15.0888 11.5366 14.8595 11.5366 14.8595L11.5265 10.0826C11.5265 10.0826 11.5391 8.76172 10.3947 8.76172C9.17717 8.76172 9.19986 10.0826 9.19986 10.0826V20.3925C9.20742 20.39 8.89232 27.5994 15.6177 27.5994Z" fill="white"/>
    <circle cx="31" cy="28" r="8" fill="#2284F7"/>
    <path id="numberOne" d="M33.2746 31.075V32H29.2746V31.075H30.7396V26.86C30.7396 26.6933 30.7446 26.5217 30.7546 26.345L29.7146 27.215C29.6546 27.2617 29.5946 27.2917 29.5346 27.305C29.4779 27.315 29.4229 27.315 29.3696 27.305C29.3196 27.295 29.2746 27.2783 29.2346 27.255C29.1946 27.2283 29.1646 27.2 29.1446 27.17L28.7546 26.635L30.9596 24.76H31.9746V31.075H33.2746Z" fill="white"/>
  </g>
</svg>
