<svg width="18" height="18" viewBox="0 0 18 18" fill="none" xmlns="http://www.w3.org/2000/svg">
<g clip-path="url(#clip0)">
<path fill-rule="evenodd" clip-rule="evenodd" d="M5.89313 0C5.4953 0 5.11375 0.158053 4.83243 0.439385L0.439292 4.8329C0.158017 5.1142 0 5.49573 0 5.89353V12.1074C0 12.5052 0.158035 12.8867 0.43934 13.168L4.83243 17.5611C5.11375 17.8424 5.49527 18.0005 5.8931 18.0005H12.1069C12.5047 18.0005 12.8863 17.8424 13.1676 17.5611L17.5606 13.168C17.842 12.8867 18 12.5052 18 12.1074V5.89353C18 5.49573 17.842 5.1142 17.5607 4.8329L13.1676 0.439385C12.8862 0.158053 12.5047 0 12.1069 0H5.89313Z" fill="#E40D0D"/>
<path fill-rule="evenodd" clip-rule="evenodd" d="M8.6105 15.525C11.5925 15.525 12.3001 12.7898 12.3001 12.7898L14.0115 7.87222C14.0115 7.87222 14.1661 7.36177 14.1377 7.3561C12.544 7.05833 12.2051 8.18135 12.2051 8.18135C12.2051 8.18135 11.5925 9.7723 11.4975 9.7723C11.4025 9.7723 11.3911 9.65462 11.3911 9.65462V3.9388C11.3911 3.9388 11.4209 3.20145 10.6637 3.20145C9.90653 3.20145 9.9448 3.94021 9.9448 3.94021L9.94623 8.16292C9.94623 8.16292 9.95615 8.33308 9.81435 8.33308C9.68815 8.33308 9.69525 8.1686 9.69525 8.1686V3.08093C9.69525 3.08093 9.74203 2.25 8.97633 2.25C8.21063 2.25 8.25175 3.0866 8.25175 3.0866L8.24468 8.1062C8.24468 8.1062 8.2546 8.26075 8.1284 8.26075C8.0107 8.26075 8.01495 8.10763 8.01495 8.10763V3.8991C8.01495 3.8991 8.0575 3.04264 7.27761 3.04264C6.51191 3.04264 6.55303 3.91469 6.55303 3.91469L6.54594 8.3586C6.54594 8.3586 6.56012 8.48763 6.43959 8.48763C6.31198 8.48763 6.31481 8.3586 6.31481 8.3586L6.30914 5.67155C6.30914 5.67155 6.31623 4.92855 5.67248 4.92855C4.9876 4.92855 5.00036 5.67155 5.00036 5.67155V11.471C5.00461 11.4696 4.82737 15.525 8.6105 15.525Z" fill="white"/>
</g>
<defs>
<clipPath id="clip0">
<rect width="18" height="18" fill="white"/>
</clipPath>
</defs>
</svg>
